<svg xmlns="http://www.w3.org/2000/svg" xmlns:xlink="http://www.w3.org/1999/xlink" width="139" height="139" viewBox="0 0 139 139">
  <defs>
    <clipPath id="clip-path">
      <rect id="Rectángulo_413209" data-name="Rectángulo 413209" width="73" height="73" fill="#12263f"/>
    </clipPath>
  </defs>
  <g id="Grupo_1115341" data-name="Grupo 1115341" transform="translate(-317.499 -6774.501)">
    <g id="Grupo_1115001" data-name="Grupo 1115001" transform="translate(-8.996 -596.02)">
      <g id="Grupo_1114883" data-name="Grupo 1114883" transform="translate(465.495 7370.521) rotate(90)">
        <path id="Trazado_875690" data-name="Trazado 875690" d="M9.062,0,0,13.547,8.685,26.532,0,39.516,8.685,52.5,0,65.485,8.685,78.47,0,91.456l9.062,13.549,1.684-1.126L2.438,91.456,11.123,78.47,2.438,65.485,11.123,52.5,2.438,39.516l8.685-12.984L2.438,13.547,10.746,1.127Z" transform="translate(0 0)" fill="#12263f"/>
        <path id="Trazado_875691" data-name="Trazado 875691" d="M9.062,0,0,13.547,8.685,26.532,0,39.516,8.685,52.5,0,65.485,8.685,78.47,0,91.456l9.062,13.549,1.685-1.126L2.438,91.456,11.123,78.47,2.438,65.485,11.123,52.5,2.438,39.516l8.685-12.984L2.438,13.547,10.746,1.127Z" transform="translate(13.405 0)" fill="#12263f"/>
        <path id="Trazado_875692" data-name="Trazado 875692" d="M9.062,0,0,13.547,8.685,26.532,0,39.516,8.685,52.5,0,65.485,8.685,78.47,0,91.456l9.062,13.549,1.684-1.126L2.438,91.456,11.123,78.47,2.438,65.485,11.123,52.5,2.438,39.516l8.685-12.984L2.438,13.547,10.746,1.127Z" transform="translate(26.81 0)" fill="#12263f"/>
        <path id="Trazado_875693" data-name="Trazado 875693" d="M9.062,0,0,13.547,8.685,26.532,0,39.516,8.685,52.5,0,65.485,8.685,78.47,0,91.456l9.062,13.549,1.684-1.126L2.438,91.456,11.123,78.47,2.438,65.485,11.123,52.5,2.438,39.516l8.685-12.984L2.438,13.547,10.746,1.127Z" transform="translate(40.215 0)" fill="#12263f"/>
        <path id="Trazado_875694" data-name="Trazado 875694" d="M9.062,0,0,13.547,8.685,26.532,0,39.516,8.685,52.5,0,65.485,8.685,78.47,0,91.456l9.062,13.549,1.684-1.126L2.438,91.456,11.123,78.47,2.438,65.485,11.123,52.5,2.438,39.516l8.685-12.984L2.438,13.547,10.746,1.127Z" transform="translate(53.62 0)" fill="#12263f"/>
        <path id="Trazado_875695" data-name="Trazado 875695" d="M9.062,0,0,13.547,8.685,26.532,0,39.516,8.685,52.5,0,65.485,8.685,78.47,0,91.456l9.062,13.549,1.685-1.126L2.438,91.456,11.123,78.47,2.438,65.485,11.123,52.5,2.438,39.516l8.685-12.984L2.438,13.547,10.747,1.127Z" transform="translate(67.025 0)" fill="#12263f"/>
        <path id="Trazado_875696" data-name="Trazado 875696" d="M9.062,0,0,13.547,8.685,26.532,0,39.516,8.685,52.5,0,65.485,8.685,78.47,0,91.456l9.062,13.549,1.685-1.126L2.438,91.456,11.123,78.47,2.438,65.485,11.123,52.5,2.438,39.516l8.685-12.984L2.438,13.547,10.746,1.127Z" transform="translate(80.431 0)" fill="#12263f"/>
        <path id="Trazado_875697" data-name="Trazado 875697" d="M9.062,0,0,13.547,8.685,26.532,0,39.516,8.685,52.5,0,65.485,8.685,78.47,0,91.456l9.062,13.549,1.685-1.126L2.438,91.456,11.123,78.47,2.438,65.485,11.123,52.5,2.438,39.516l8.685-12.984L2.438,13.547,10.746,1.127Z" transform="translate(93.835 0)" fill="#12263f"/>
      </g>
      <g id="Grupo_1114882" data-name="Grupo 1114882" transform="translate(326.495 7379.938)">
        <rect id="Rectángulo_412780" data-name="Rectángulo 412780" width="123.655" height="122.5" rx="20" transform="translate(3.542 3.559)" fill="#dbe4f4"/>
        <g id="Grupo_1114814" data-name="Grupo 1114814">
          <path id="Trazado_875775" data-name="Trazado 875775" d="M245.7,319.88a1.7,1.7,0,0,1-1.7-1.7v-5.1a8.512,8.512,0,0,1,8.5-8.5h40.468a11.916,11.916,0,0,0,11.9-11.9V252.28a8.512,8.512,0,0,1,8.5-8.5h5.1a1.7,1.7,0,0,1,0,3.4h-5.1a5.107,5.107,0,0,0-5.1,5.1v40.394a15.321,15.321,0,0,1-15.3,15.3H252.5a5.107,5.107,0,0,0-5.1,5.1v5.1a1.7,1.7,0,0,1-1.7,1.7" transform="translate(-189.434 -190.297)" fill="#12263f"/>
          <path id="Trazado_875777" data-name="Trazado 875777" d="M1.7,76.1A1.7,1.7,0,0,1,0,74.4V69.3a8.512,8.512,0,0,1,8.5-8.5H48.97a11.916,11.916,0,0,0,11.9-11.9V8.5a8.512,8.512,0,0,1,8.5-8.5h5.1a1.7,1.7,0,0,1,0,3.4h-5.1a5.107,5.107,0,0,0-5.1,5.1V48.9a15.321,15.321,0,0,1-15.3,15.3H8.5a5.107,5.107,0,0,0-5.1,5.1v5.1a1.7,1.7,0,0,1-1.7,1.7" transform="translate(76.176 76.102) rotate(180)" fill="#12263f"/>
        </g>
      </g>
    </g>
    <g id="Grupo_1115312" data-name="Grupo 1115312" transform="translate(347 6812)">
      <path id="Trazado_876403" data-name="Trazado 876403" d="M220,60v45.406h22.7v-4.541H224.54V64.541H242.7V60Z" transform="translate(-170.053 -46.378)" fill="#12263f"/>
      <g id="Grupo_1115311" data-name="Grupo 1115311">
        <g id="Grupo_1115310" data-name="Grupo 1115310" clip-path="url(#clip-path)">
          <path id="Trazado_876404" data-name="Trazado 876404" d="M99.3,125.994H80v-4.541H99.3l-4.978-5.139a14.6,14.6,0,0,1,3.245-3.245l10.572,10.572L97.564,134.378a14.6,14.6,0,0,1-3.245-3.244Z" transform="translate(-61.837 -87.399)" fill="#12263f"/>
          <rect id="Rectángulo_413203" data-name="Rectángulo 413203" width="5" height="18" transform="translate(0 27)" fill="#12263f"/>
          <rect id="Rectángulo_413204" data-name="Rectángulo 413204" width="4" height="9" transform="translate(50)" fill="#12263f"/>
          <rect id="Rectángulo_413205" data-name="Rectángulo 413205" width="9" height="4" transform="translate(36 14)" fill="#12263f"/>
          <rect id="Rectángulo_413206" data-name="Rectángulo 413206" width="9" height="5" transform="translate(36 54)" fill="#12263f"/>
          <rect id="Rectángulo_413207" data-name="Rectángulo 413207" width="4" height="9" transform="translate(50 64)" fill="#12263f"/>
          <rect id="Rectángulo_413208" data-name="Rectángulo 413208" width="5" height="5" transform="translate(9 34)" fill="#12263f"/>
        </g>
      </g>
    </g>
  </g>
</svg>
