<svg xmlns="http://www.w3.org/2000/svg" xmlns:xlink="http://www.w3.org/1999/xlink" width="52" height="44" viewBox="0 0 52 44">
  <defs>
    <clipPath id="clip-path">
      <rect id="Rect치ngulo_412773" data-name="Rect치ngulo 412773" width="23" height="31" fill="#1e3f72"/>
    </clipPath>
  </defs>
  <g id="Grupo_1115404" data-name="Grupo 1115404" transform="translate(-180 -1143.04)">
    <rect id="Rect치ngulo_412856" data-name="Rect치ngulo 412856" width="52" height="44" rx="8" transform="translate(180 1143.04)" fill="#6ec7e3"/>
    <g id="Grupo_1114973" data-name="Grupo 1114973" transform="translate(195 1150.04)">
      <g id="Grupo_1114801" data-name="Grupo 1114801" clip-path="url(#clip-path)">
        <path id="Trazado_875771" data-name="Trazado 875771" d="M0,3.856A3.859,3.859,0,0,1,3.856,0h9.007a3.857,3.857,0,0,1,2.729,1.127l6.416,6.422a3.857,3.857,0,0,1,1.127,2.729V26.99a3.859,3.859,0,0,1-3.856,3.856H3.856A3.859,3.859,0,0,1,0,26.99Zm12.531-.331V9.157A1.442,1.442,0,0,0,13.977,10.6H19.61ZM8.157,16.555a1.444,1.444,0,0,0-2.819.627l1.928,8.675A1.445,1.445,0,0,0,10.049,26l1.518-4.561L13.085,26a1.451,1.451,0,0,0,1.446.988,1.437,1.437,0,0,0,1.337-1.133L17.8,17.182a1.444,1.444,0,0,0-2.819-.627l-.8,3.579-1.241-3.723a1.449,1.449,0,0,0-2.747,0L8.952,20.134Z" transform="translate(0.084 0.154)" fill="#1e3f72"/>
      </g>
    </g>
  </g>
</svg>
