<svg xmlns="http://www.w3.org/2000/svg" xmlns:xlink="http://www.w3.org/1999/xlink" width="139" height="139" viewBox="0 0 139 139">
  <defs>
    <clipPath id="clip-path">
      <rect id="Rect치ngulo_413213" data-name="Rect치ngulo 413213" width="72.625" height="68.033" fill="#12263f"/>
    </clipPath>
  </defs>
  <g id="Grupo_1115017" data-name="Grupo 1115017" transform="translate(-326.495 -7370.521)">
    <g id="Grupo_1114883" data-name="Grupo 1114883" transform="translate(465.495 7370.521) rotate(90)">
      <path id="Trazado_875690" data-name="Trazado 875690" d="M9.062,0,0,13.547,8.685,26.532,0,39.516,8.685,52.5,0,65.485,8.685,78.47,0,91.456l9.062,13.549,1.684-1.126L2.438,91.456,11.123,78.47,2.438,65.485,11.123,52.5,2.438,39.516l8.685-12.984L2.438,13.547,10.746,1.127Z" transform="translate(0 0)" fill="#12263f"/>
      <path id="Trazado_875691" data-name="Trazado 875691" d="M9.062,0,0,13.547,8.685,26.532,0,39.516,8.685,52.5,0,65.485,8.685,78.47,0,91.456l9.062,13.549,1.685-1.126L2.438,91.456,11.123,78.47,2.438,65.485,11.123,52.5,2.438,39.516l8.685-12.984L2.438,13.547,10.746,1.127Z" transform="translate(13.405 0)" fill="#12263f"/>
      <path id="Trazado_875692" data-name="Trazado 875692" d="M9.062,0,0,13.547,8.685,26.532,0,39.516,8.685,52.5,0,65.485,8.685,78.47,0,91.456l9.062,13.549,1.684-1.126L2.438,91.456,11.123,78.47,2.438,65.485,11.123,52.5,2.438,39.516l8.685-12.984L2.438,13.547,10.746,1.127Z" transform="translate(26.81 0)" fill="#12263f"/>
      <path id="Trazado_875693" data-name="Trazado 875693" d="M9.062,0,0,13.547,8.685,26.532,0,39.516,8.685,52.5,0,65.485,8.685,78.47,0,91.456l9.062,13.549,1.684-1.126L2.438,91.456,11.123,78.47,2.438,65.485,11.123,52.5,2.438,39.516l8.685-12.984L2.438,13.547,10.746,1.127Z" transform="translate(40.215 0)" fill="#12263f"/>
      <path id="Trazado_875694" data-name="Trazado 875694" d="M9.062,0,0,13.547,8.685,26.532,0,39.516,8.685,52.5,0,65.485,8.685,78.47,0,91.456l9.062,13.549,1.684-1.126L2.438,91.456,11.123,78.47,2.438,65.485,11.123,52.5,2.438,39.516l8.685-12.984L2.438,13.547,10.746,1.127Z" transform="translate(53.62 0)" fill="#12263f"/>
      <path id="Trazado_875695" data-name="Trazado 875695" d="M9.062,0,0,13.547,8.685,26.532,0,39.516,8.685,52.5,0,65.485,8.685,78.47,0,91.456l9.062,13.549,1.685-1.126L2.438,91.456,11.123,78.47,2.438,65.485,11.123,52.5,2.438,39.516l8.685-12.984L2.438,13.547,10.747,1.127Z" transform="translate(67.025 0)" fill="#12263f"/>
      <path id="Trazado_875696" data-name="Trazado 875696" d="M9.062,0,0,13.547,8.685,26.532,0,39.516,8.685,52.5,0,65.485,8.685,78.47,0,91.456l9.062,13.549,1.685-1.126L2.438,91.456,11.123,78.47,2.438,65.485,11.123,52.5,2.438,39.516l8.685-12.984L2.438,13.547,10.746,1.127Z" transform="translate(80.431 0)" fill="#12263f"/>
      <path id="Trazado_875697" data-name="Trazado 875697" d="M9.062,0,0,13.547,8.685,26.532,0,39.516,8.685,52.5,0,65.485,8.685,78.47,0,91.456l9.062,13.549,1.685-1.126L2.438,91.456,11.123,78.47,2.438,65.485,11.123,52.5,2.438,39.516l8.685-12.984L2.438,13.547,10.746,1.127Z" transform="translate(93.835 0)" fill="#12263f"/>
    </g>
    <g id="Grupo_1114882" data-name="Grupo 1114882" transform="translate(326.495 7379.938)">
      <rect id="Rect치ngulo_412780" data-name="Rect치ngulo 412780" width="123.655" height="122.5" rx="20" transform="translate(3.542 3.559)" fill="#ece1f9"/>
      <g id="Grupo_1114814" data-name="Grupo 1114814">
        <path id="Trazado_875775" data-name="Trazado 875775" d="M245.7,319.88a1.7,1.7,0,0,1-1.7-1.7v-5.1a8.512,8.512,0,0,1,8.5-8.5h40.468a11.916,11.916,0,0,0,11.9-11.9V252.28a8.512,8.512,0,0,1,8.5-8.5h5.1a1.7,1.7,0,0,1,0,3.4h-5.1a5.107,5.107,0,0,0-5.1,5.1v40.394a15.321,15.321,0,0,1-15.3,15.3H252.5a5.107,5.107,0,0,0-5.1,5.1v5.1a1.7,1.7,0,0,1-1.7,1.7" transform="translate(-189.434 -190.297)" fill="#12263f"/>
        <path id="Trazado_875777" data-name="Trazado 875777" d="M1.7,76.1A1.7,1.7,0,0,1,0,74.4V69.3a8.512,8.512,0,0,1,8.5-8.5H48.97a11.916,11.916,0,0,0,11.9-11.9V8.5a8.512,8.512,0,0,1,8.5-8.5h5.1a1.7,1.7,0,0,1,0,3.4h-5.1a5.107,5.107,0,0,0-5.1,5.1V48.9a15.321,15.321,0,0,1-15.3,15.3H8.5a5.107,5.107,0,0,0-5.1,5.1v5.1a1.7,1.7,0,0,1-1.7,1.7" transform="translate(76.176 76.102) rotate(180)" fill="#12263f"/>
      </g>
      <g id="Grupo_1115320" data-name="Grupo 1115320" transform="translate(29.057 30.793)">
        <g id="Grupo_1115319" data-name="Grupo 1115319" clip-path="url(#clip-path)">
          <path id="Trazado_876424" data-name="Trazado 876424" d="M107.546,7.056c.523.535,1.392.9,1.561,1.863.324,1.845-1.724,2.672-.7,4.344,3.358-2.8,6.948-3.994,11.252-2.657,10.819,3.359,9.047,19.966-2.413,20.805-3.189.233-5.492-.748-8.132-2.364-.007.765-1.193,2.053-1.133,2.673.086.887,1.5,1.442,1.08,3.284-.2.859-3.133,3.658-4.069,3.676s-2.222-1.231-3.011-1.113c-.453.068-2.686,1.255-3.41,1.553-.519.214-1.228.243-1.651.469-1.2.639-.352,3.2-2.783,3.577a15.637,15.637,0,0,1-3.884-.09c-1.492-.456-1.342-2.2-1.9-3.051-.31-.473-3.17-1.343-3.978-1.676-.526-.217-.992-.784-1.551-.821-1.018-.065-2.03,1.318-3.171,1.088-1.224-.246-4.013-2.945-4.012-4.269,0-.964,1.311-2.25,1.151-3-.059-.277-.8-1.306-1.012-1.833-.26-.646-.989-3.346-1.109-3.484-.3-.347-2.721-.279-3.314-1.751a12.678,12.678,0,0,1,0-4.825c.556-1.389,2.973-1.294,3.308-1.759.112-.155.887-2.967,1.181-3.647.225-.521.886-1.258.95-1.658.162-1.013-1.514-2.122-1.041-3.61a25.671,25.671,0,0,1,3.066-3.3c1.768-1.015,3.192.925,4.017.873.153-.01,2.2-1.227,2.715-1.445.641-.272,2.362-.584,2.673-.807.426-.3.382-2.47,1.581-3.184A8.3,8.3,0,0,1,94.807.831c1.565.729,1.09,2.7,2.118,3.3.579.34,1.609.466,2.29.772.508.229,2.715,1.46,2.948,1.445s1.348-.919,1.938-1.041c1.921-.4,2.343.62,3.445,1.749M94.249,2.45a15.232,15.232,0,0,0-3.52.084C90.3,2.819,90.193,4.9,89.452,5.5c-.51.412-2.5.776-3.35,1.126-.727.3-2.659,1.59-3.072,1.656-.987.157-2.655-1.713-3.486-1.163a19.562,19.562,0,0,0-1.966,2.075c-.236.869,1.274,1.988,1.147,3.225-.038.37-1.513,3.056-1.825,3.851-.3.755-.395,1.849-.66,2.4-.555,1.16-3.2.872-3.406,2.013a9,9,0,0,0,.115,2.712c.353.714,2.465.72,3.061,1.415A28.191,28.191,0,0,1,77.2,28.336c.45,1.092,1.7,2.527,1.483,3.6-.188.949-1.485,1.923-.915,2.894a20.991,20.991,0,0,0,2.068,1.962c.723.188,2.149-1.4,2.975-1.33.579.05,1.908,1.106,2.586,1.4,1.085.478,3.233.864,3.923,1.26.753.432,1.029,3.1,1.33,3.187.686-.17,3.215.2,3.594-.045.168-.109.5-2.172.783-2.633.443-.734,2.761-1.073,3.72-1.463.756-.308,2.79-1.674,3.223-1.709.669-.055,2.46,1.424,2.99,1.323A19.035,19.035,0,0,0,107.4,34.35c.038-.471-1.432-2.226-1.352-3.052.074-.756,1.924-2.84,1.838-3.747-.036-.384-1.193-1.84-1.479-2.513a11,11,0,0,1-.476-7.066c.208-.832,1.279-2.758,1.279-3.178,0-.838-1.219-1.667-1.158-2.574.046-.682,1.475-2.579,1.3-2.967a24.232,24.232,0,0,0-2.4-2.314c-.592-.113-2.34,1.441-3.012,1.384-.243-.021-2.778-1.5-3.437-1.77-1.041-.433-2.969-.58-3.479-1.468-.267-.465-.677-2.545-.781-2.634m20.7,9.46c-11.978,1.641-8.742,20.6,3.6,17.5,10.539-2.646,7.653-19.039-3.6-17.5" transform="translate(-54.375 -0.373)" fill="#12263f"/>
          <path id="Trazado_876425" data-name="Trazado 876425" d="M92.089,42.99a10.385,10.385,0,0,1-2.257-.173c-1.07-.327-1.34-1.27-1.579-2.1a3.824,3.824,0,0,0-.381-1,11.54,11.54,0,0,0-2.9-1.26c-.429-.151-.8-.281-1.021-.372a3.34,3.34,0,0,1-.629-.381,1.868,1.868,0,0,0-.884-.43,2.562,2.562,0,0,0-1.354.519,2.658,2.658,0,0,1-1.833.567c-1.224-.246-4.107-2.932-4.106-4.385a3.66,3.66,0,0,1,.635-1.611,2.5,2.5,0,0,0,.519-1.369,4.843,4.843,0,0,0-.434-.786,8.414,8.414,0,0,1-.572-1.027c-.127-.316-.359-1.1-.584-1.854-.2-.671-.448-1.507-.509-1.6a2.319,2.319,0,0,0-.719-.221c-.869-.2-2.181-.49-2.612-1.559a12.581,12.581,0,0,1,0-4.913c.381-.951,1.558-1.242,2.418-1.454a2.167,2.167,0,0,0,.9-.33c.048-.081.262-.787.45-1.41.261-.864.558-1.842.719-2.214a5.359,5.359,0,0,1,.473-.785,2.99,2.99,0,0,0,.47-.845,2.21,2.21,0,0,0-.476-1.3,2.793,2.793,0,0,1-.561-2.328A24.457,24.457,0,0,1,78.382,5a2.867,2.867,0,0,1,3.1.432,2.146,2.146,0,0,0,.97.426c.086-.022.712-.373,1.215-.654.592-.331,1.2-.673,1.461-.782a11.442,11.442,0,0,1,1.365-.4,6.826,6.826,0,0,0,1.285-.395,2.127,2.127,0,0,0,.32-.865A3.6,3.6,0,0,1,89.366.44a8.444,8.444,0,0,1,5.1-.087,2.774,2.774,0,0,1,1.392,2A2.075,2.075,0,0,0,96.6,3.657a5.324,5.324,0,0,0,1.2.42,7.431,7.431,0,0,1,1.077.347c.179.081.555.278.99.506a17.427,17.427,0,0,0,1.907.929,3.741,3.741,0,0,0,.6-.348,5.034,5.034,0,0,1,1.319-.691c1.654-.344,2.262.343,3.031,1.213.163.184.332.375.522.569a5.037,5.037,0,0,0,.484.414,2.487,2.487,0,0,1,1.109,1.51,3.132,3.132,0,0,1-.525,2.129,1.931,1.931,0,0,0-.254,2.055c3.66-3.014,7.239-3.837,11.254-2.59,5.7,1.77,7.737,7.053,7.227,11.5a10.423,10.423,0,0,1-9.667,9.532c-3.146.231-5.426-.7-8.045-2.285a4.7,4.7,0,0,1-.6,1.268,2.865,2.865,0,0,0-.517,1.2,1.858,1.858,0,0,0,.441.848,2.715,2.715,0,0,1,.637,2.473c-.206.9-3.191,3.748-4.182,3.768a3.605,3.605,0,0,1-1.615-.6,2.744,2.744,0,0,0-1.381-.511,16.068,16.068,0,0,0-2.092.935c-.522.256-1.015.5-1.291.611a4.756,4.756,0,0,1-.823.224,3.27,3.27,0,0,0-.817.24c-.432.231-.573.748-.736,1.348-.256.94-.547,2.006-2.085,2.242a13.759,13.759,0,0,1-1.68.079m-9.717-5.954.078,0a2.059,2.059,0,0,1,1,.473,3.149,3.149,0,0,0,.583.356c.216.089.583.218,1.009.368a9.431,9.431,0,0,1,3.022,1.353,3.974,3.974,0,0,1,.411,1.063c.233.811.473,1.65,1.421,1.94a15.546,15.546,0,0,0,3.832.087c1.387-.212,1.644-1.157,1.893-2.071.17-.625.331-1.215.852-1.494a3.414,3.414,0,0,1,.88-.263,4.617,4.617,0,0,0,.782-.211c.269-.111.759-.351,1.277-.6a14.675,14.675,0,0,1,2.161-.956,2.825,2.825,0,0,1,1.529.537,3.45,3.45,0,0,0,1.5.574c.879-.017,3.777-2.793,3.957-3.585a2.485,2.485,0,0,0-.6-2.281,2.045,2.045,0,0,1-.486-.965,2.836,2.836,0,0,1,.548-1.339,3.48,3.48,0,0,0,.584-1.347l0-.208.177.109c2.646,1.62,4.919,2.577,8.062,2.347A10.192,10.192,0,0,0,126.3,21.6c.5-4.354-1.492-9.522-7.063-11.252-3.971-1.233-7.511-.4-11.141,2.635l-.1.087-.071-.116a2.13,2.13,0,0,1,.179-2.409,2.9,2.9,0,0,0,.5-1.976A2.267,2.267,0,0,0,107.579,7.2a5.131,5.131,0,0,1-.506-.435c-.194-.2-.364-.391-.53-.578-.775-.876-1.287-1.454-2.807-1.138a4.949,4.949,0,0,0-1.239.658,2.289,2.289,0,0,1-.715.385,9.875,9.875,0,0,1-2.027-.955c-.432-.227-.8-.423-.977-.5A7.29,7.29,0,0,0,97.737,4.3a5.448,5.448,0,0,1-1.26-.444,2.263,2.263,0,0,1-.842-1.444A2.552,2.552,0,0,0,94.369.566a8.274,8.274,0,0,0-4.882.076,3.436,3.436,0,0,0-1.162,2.181c-.127.5-.219.861-.412,1a6.02,6.02,0,0,1-1.364.431,11.429,11.429,0,0,0-1.331.388c-.245.1-.851.443-1.438.771a7.676,7.676,0,0,1-1.316.683,2.246,2.246,0,0,1-1.107-.46c-.78-.474-1.752-1.064-2.858-.429a26.561,26.561,0,0,0-3.012,3.234,2.576,2.576,0,0,0,.539,2.136,2.347,2.347,0,0,1,.506,1.456,2.971,2.971,0,0,1-.507.94,5.227,5.227,0,0,0-.451.746c-.155.359-.45,1.332-.709,2.189a11.852,11.852,0,0,1-.484,1.48c-.145.2-.519.293-1.038.421-.81.2-1.92.474-2.256,1.313a12.851,12.851,0,0,0,0,4.737c.384.954,1.624,1.233,2.445,1.417a1.809,1.809,0,0,1,.849.3,10.164,10.164,0,0,1,.553,1.684c.223.751.454,1.528.577,1.834a8.393,8.393,0,0,0,.554.993,4.135,4.135,0,0,1,.463.86,2.582,2.582,0,0,1-.545,1.535,3.525,3.525,0,0,0-.6,1.494c0,1.218,2.7,3.909,3.917,4.154a2.484,2.484,0,0,0,1.666-.539,2.974,2.974,0,0,1,1.412-.554m10.8,4.062c-.3,0-.69-.019-1.155-.044a8.627,8.627,0,0,0-1.734,0l-.03.007-.03-.008c-.178-.049-.265-.355-.461-1.107-.2-.783-.485-1.856-.9-2.092a10.217,10.217,0,0,0-1.859-.608,16.212,16.212,0,0,1-2.053-.647,8.994,8.994,0,0,1-1.034-.605,5.236,5.236,0,0,0-1.515-.79,2.993,2.993,0,0,0-1.419.669c-.594.394-1.155.767-1.575.658a19.308,19.308,0,0,1-2.14-2.017c-.4-.674.011-1.325.4-1.955a3.338,3.338,0,0,0,.5-1.022,4.025,4.025,0,0,0-.859-2.37,9.785,9.785,0,0,1-.618-1.159c-.132-.322-.284-.863-.444-1.435a8.674,8.674,0,0,0-.723-2.059,3.329,3.329,0,0,0-1.491-.643c-.71-.195-1.38-.378-1.587-.8a8.944,8.944,0,0,1-.125-2.786c.119-.653.887-.872,1.7-1.1.721-.205,1.466-.418,1.715-.939a5.762,5.762,0,0,0,.315-1.129,8.548,8.548,0,0,1,.341-1.266c.139-.352.491-1.049.864-1.785a17.68,17.68,0,0,0,.954-2.034,2.956,2.956,0,0,0-.633-1.734,2.123,2.123,0,0,1-.51-1.509A18.386,18.386,0,0,1,79.09,6.647c.513-.339,1.256.1,1.974.528a2.983,2.983,0,0,0,1.559.617,9.769,9.769,0,0,0,1.53-.815,16.005,16.005,0,0,1,1.516-.833,13.544,13.544,0,0,1,1.4-.431,7.436,7.436,0,0,0,1.92-.678,3.821,3.821,0,0,0,.779-1.772c.157-.586.282-1.049.506-1.2a13.491,13.491,0,0,1,3.663-.075h0c.062.054.1.181.3.971a10.722,10.722,0,0,0,.506,1.694c.323.563,1.332.824,2.221,1.054a9.506,9.506,0,0,1,1.2.364c.312.13,1.033.522,1.731.9s1.544.84,1.673.861a3.863,3.863,0,0,0,1.457-.693c.656-.405,1.223-.755,1.565-.69a21.1,21.1,0,0,1,2.482,2.382c.109.243-.161.747-.611,1.548a5.431,5.431,0,0,0-.679,1.475,2.258,2.258,0,0,0,.573,1.291,2.441,2.441,0,0,1,.585,1.275,6,6,0,0,1-.594,1.531,12.307,12.307,0,0,0-.689,1.676,10.815,10.815,0,0,0,.47,6.991,9.778,9.778,0,0,0,.747,1.232,4.648,4.648,0,0,1,.74,1.316,5,5,0,0,1-1.045,2.267,5.415,5.415,0,0,0-.794,1.5,4.4,4.4,0,0,0,.8,1.848,2.969,2.969,0,0,1,.554,1.2,15.86,15.86,0,0,1-2.538,2.539,3.2,3.2,0,0,1-1.488-.637,4.131,4.131,0,0,0-1.514-.684,9.119,9.119,0,0,0-1.676.874,15.446,15.446,0,0,1-1.513.827,11.81,11.81,0,0,1-1.232.374c-.96.258-2.153.58-2.432,1.04a8.11,8.11,0,0,0-.437,1.491c-.21.881-.277,1.112-.383,1.18a1.589,1.589,0,0,1-.741.106m-2.315-.324c.338,0,.749.022,1.172.045a6.315,6.315,0,0,0,1.755-.025,8,8,0,0,0,.282-1.037,7.658,7.658,0,0,1,.465-1.558c.327-.542,1.52-.863,2.572-1.146a11.8,11.8,0,0,0,1.2-.365,15.666,15.666,0,0,0,1.483-.812,7.475,7.475,0,0,1,1.776-.906,3.953,3.953,0,0,1,1.653.716,3.678,3.678,0,0,0,1.324.609,22.831,22.831,0,0,0,2.352-2.349,4.036,4.036,0,0,0-.527-1.041,4.35,4.35,0,0,1-.829-1.991,5.134,5.134,0,0,1,.829-1.605,5.118,5.118,0,0,0,1.009-2.119,5.646,5.646,0,0,0-.7-1.207,9.884,9.884,0,0,1-.768-1.27,11.045,11.045,0,0,1-.482-7.14,12.342,12.342,0,0,1,.7-1.718,7.315,7.315,0,0,0,.572-1.432,2.261,2.261,0,0,0-.542-1.14,2.412,2.412,0,0,1-.615-1.442,5.193,5.193,0,0,1,.709-1.575c.266-.474.668-1.189.6-1.336a27.239,27.239,0,0,0-2.328-2.251,3.677,3.677,0,0,0-1.381.664,3.663,3.663,0,0,1-1.6.727,11.439,11.439,0,0,1-1.763-.888c-.692-.376-1.408-.766-1.709-.89a9.326,9.326,0,0,0-1.169-.353c-.98-.254-1.994-.516-2.367-1.165a10.1,10.1,0,0,1-.531-1.754c-.087-.346-.184-.735-.229-.844a17.436,17.436,0,0,0-3.376.089A2.7,2.7,0,0,0,90,3.323a3.859,3.859,0,0,1-.859,1.894,7.225,7.225,0,0,1-2.006.723,13.487,13.487,0,0,0-1.373.421,16.008,16.008,0,0,0-1.487.819,8.1,8.1,0,0,1-1.612.845,3.075,3.075,0,0,1-1.716-.647c-.656-.389-1.334-.792-1.724-.534A21.8,21.8,0,0,0,77.3,8.86c-.1.361.186.825.487,1.315a3.167,3.167,0,0,1,.666,1.881,13.6,13.6,0,0,1-.978,2.116c-.354.7-.72,1.423-.854,1.765a8.35,8.35,0,0,0-.33,1.23,5.9,5.9,0,0,1-.333,1.18c-.295.617-1.092.844-1.863,1.063-.74.211-1.44.41-1.533.92a9.138,9.138,0,0,0,.1,2.639c.16.323.81.5,1.438.673a3.424,3.424,0,0,1,1.607.717,8.228,8.228,0,0,1,.771,2.148c.158.565.308,1.1.435,1.409a9.671,9.671,0,0,0,.6,1.129,4.143,4.143,0,0,1,.887,2.535,3.541,3.541,0,0,1-.528,1.1c-.372.6-.724,1.16-.4,1.711a23.563,23.563,0,0,0,2.009,1.913c.3.077.847-.282,1.372-.631a3.067,3.067,0,0,1,1.57-.707,5.09,5.09,0,0,1,1.622.826,8.946,8.946,0,0,0,1,.588,16.117,16.117,0,0,0,2.02.635,10.223,10.223,0,0,1,1.914.631c.5.285.779,1.367,1.007,2.236a4.959,4.959,0,0,0,.292.926,3.3,3.3,0,0,1,.575-.038m24.667-11.281a8.01,8.01,0,0,1-6.126-2.68,10.089,10.089,0,0,1-1.886-9.981,8.269,8.269,0,0,1,7.026-5.411,8.752,8.752,0,0,1,10.1,7.253c.787,4.067-.9,9.08-6.456,10.476a10.918,10.918,0,0,1-2.657.343m-.97-17.955.016.117a8.042,8.042,0,0,0-6.837,5.258,9.848,9.848,0,0,0,1.84,9.743c2.089,2.321,5.126,3.125,8.551,2.265,5.409-1.358,7.048-6.241,6.282-10.2-.789-4.079-4.137-7.846-9.835-7.064Z" transform="translate(-53.986 -0.001)" fill="#12263f"/>
          <path id="Trazado_876426" data-name="Trazado 876426" d="M38.382,185.281l12.866-6.8c4.835-2.069,9.562,3.668,4.646,7.237-6.08,3.005-11.83,7.677-17.826,10.679a10.9,10.9,0,0,1-2.688,1.082c-3.977.628-10.548-2.9-14.665-3.384-1.268-.15-2.7,1.537-4,1.8,1.535,3.489-.764,4.9-3.532,6.238-2.076,1-3.264,1.144-4.818-.846-1.9-2.432-5.555-9.141-7.005-12.076-.855-1.731-1.5-3.066.148-4.644A17.132,17.132,0,0,1,6.25,182c1.614-.172,1.988.511,3.166,1.306,3.264-1.742,6.58-4.34,9.878-5.919,4.348-2.083,12.418-.064,16.423,2.432,2.066,1.288,3.586,2.842,2.664,5.462m-22.842,9.18c.492.341,3.538-2.287,4.575-2.318,4.653,1.119,9.219,2.706,13.907,3.607l1.776-.213,19.058-11.33c2.889-2.024.65-4.927-2.406-4.288-5.163,2.31-9.831,5.781-15.129,7.72-2.347.265-8.374-.683-10.487-1.764-1.15-.589-1.029-1.879.33-1.762,2.014.173,5.62,2.107,7.712,1.747,1.143-.2,2.515-1.7,1.725-2.921-2.074-3.2-12-5.477-15.47-4.422-1.3.708-10.635,5.827-10.751,6.444ZM6.694,183.74c-.722,0-5.022,2.2-4.354,3.528l7.571,13.174c.758,1.7,5.134-1.255,5.448-2.039a.814.814,0,0,0,.078-.645c-2.592-4.663-5.151-9.427-8.09-13.849a1.635,1.635,0,0,0-.654-.169" transform="translate(-0.369 -134.936)" fill="#12263f"/>
          <path id="Trazado_876427" data-name="Trazado 876427" d="M10.47,202.607A3.275,3.275,0,0,1,7.9,201,100.946,100.946,0,0,1,.881,188.9c-.83-1.681-1.548-3.132.172-4.781a17.109,17.109,0,0,1,4.817-2.6,3.014,3.014,0,0,1,2.571.831c.19.146.386.3.615.454,1.444-.775,2.925-1.733,4.358-2.66a51.318,51.318,0,0,1,5.462-3.228c4.422-2.118,12.612-.007,16.536,2.439,1.836,1.145,3.586,2.67,2.8,5.323l12.609-6.667a5,5,0,0,1,6.384,1.935c.841,1.482.859,3.705-1.614,5.5a91.378,91.378,0,0,0-9.072,5.424,92.4,92.4,0,0,1-8.77,5.265l-.142.071a10.294,10.294,0,0,1-2.58,1.021c-2.405.38-5.7-.724-8.88-1.791a32.33,32.33,0,0,0-5.817-1.592,3.784,3.784,0,0,0-2.167.894,6.389,6.389,0,0,1-1.66.872c1.451,3.456-.792,4.883-3.644,6.262a5.76,5.76,0,0,1-2.392.731M6.354,181.729a4.353,4.353,0,0,0-.46.026,17.155,17.155,0,0,0-4.679,2.534c-1.595,1.53-.978,2.778-.124,4.507a100.717,100.717,0,0,0,6.993,12.056c1.5,1.92,2.606,1.812,4.674.812,2.775-1.343,4.953-2.727,3.475-6.085l-.059-.134.143-.029a5.564,5.564,0,0,0,1.718-.872,3.924,3.924,0,0,1,2.323-.93,32.441,32.441,0,0,1,5.864,1.6c3.157,1.058,6.423,2.152,8.769,1.781a10.13,10.13,0,0,0,2.511-1l.143-.071a92.292,92.292,0,0,0,8.747-5.252,91.19,91.19,0,0,1,9.08-5.428c2.33-1.694,2.322-3.791,1.531-5.184a4.762,4.762,0,0,0-6.078-1.839L37.8,185.164l.1-.284c.939-2.669-.8-4.189-2.616-5.323-3.878-2.418-11.959-4.51-16.31-2.426a51.108,51.108,0,0,0-5.436,3.213c-1.458.943-2.965,1.918-4.437,2.7l-.063.033-.059-.04c-.261-.176-.487-.349-.686-.5a2.823,2.823,0,0,0-1.943-.81m4.118,18.99a1.037,1.037,0,0,1-1.037-.591L1.869,186.965a.969.969,0,0,1,.118-.98,8.765,8.765,0,0,1,4.338-2.725h0a1.764,1.764,0,0,1,.7.179l.032.014.019.029c2.544,3.828,4.832,7.963,7.044,11.961q.525.95,1.05,1.9a.9.9,0,0,1-.062.723l-.009.023a7.907,7.907,0,0,1-4.592,2.633h-.036M6.325,183.5h0a8.89,8.89,0,0,0-4.138,2.613.752.752,0,0,0-.111.744l7.568,13.168a.817.817,0,0,0,.859.461A7.77,7.77,0,0,0,14.881,198l.009-.023a.675.675,0,0,0,.068-.536c-.343-.616-.693-1.248-1.044-1.881-2.2-3.985-4.484-8.1-7.015-11.916a1.471,1.471,0,0,0-.573-.146Zm27.324,12.011-.018,0c-2.789-.536-5.579-1.327-8.277-2.091-1.838-.521-3.737-1.059-5.62-1.512a8.013,8.013,0,0,0-2.4,1.266c-1.228.8-1.937,1.236-2.234,1.031l-.023-.016-5.193-9.562.008-.041c.129-.688,9.028-5.557,10.811-6.526l.022-.009c1.694-.514,4.961-.273,8.324.613,3.61.952,6.331,2.394,7.279,3.857a1.589,1.589,0,0,1,.093,1.564,2.8,2.8,0,0,1-1.9,1.537c-1.269.218-3.026-.369-4.726-.938a15.051,15.051,0,0,0-3.016-.808c-.512-.043-.872.122-.964.444s.091.785.7,1.1c2.17,1.111,8.133,2,10.407,1.754a58.478,58.478,0,0,0,8.579-4.273c2.108-1.2,4.289-2.437,6.529-3.44l.024-.008a3.21,3.21,0,0,1,3.723,1.51c.443,1.024-.015,2.141-1.226,2.99L35.468,195.289Zm-13.891-3.844.015,0c1.892.455,3.8,1,5.645,1.519,2.688.762,5.466,1.549,8.239,2.083l1.733-.208,19.037-11.317c1.1-.774,1.533-1.785,1.138-2.7a2.976,2.976,0,0,0-3.446-1.376c-2.226,1-4.4,2.231-6.5,3.424a58.591,58.591,0,0,1-8.627,4.294l-.027.006c-2.291.259-8.35-.649-10.554-1.777a1.271,1.271,0,0,1-.817-1.37c.1-.339.465-.678,1.211-.614a15.154,15.154,0,0,1,3.07.82c1.672.559,3.4,1.138,4.611.929a2.539,2.539,0,0,0,1.721-1.4,1.374,1.374,0,0,0-.075-1.341c-2.1-3.237-12.034-5.365-15.325-4.377-3.958,2.152-10.254,5.719-10.665,6.33l5.115,9.418c.229.077,1.262-.6,1.952-1.044a7.507,7.507,0,0,1,2.532-1.3Z" transform="translate(0 -134.574)" fill="#12263f"/>
          <path id="Trazado_876428" data-name="Trazado 876428" d="M122.712,41.67c13.679-1.648,18.37,17.676,5.767,22.494-16.5,6.307-22.576-20.468-5.767-22.494m-.235,1.886c-11.652,1.485-10.323,20.124,2.043,19.726,13.262-.428,12.578-21.589-2.043-19.726" transform="translate(-86.165 -31.778)" fill="#12263f"/>
          <path id="Trazado_876429" data-name="Trazado 876429" d="M123.222,64.853a10.055,10.055,0,0,1-7.119-2.859,13.445,13.445,0,0,1-3.285-13.553c1.374-4.12,4.737-6.7,9.469-7.274l.014.117-.014-.117c7.154-.861,11.62,3.87,12.875,8.942,1.247,5.04-.45,11.255-7.052,13.779a13.706,13.706,0,0,1-4.888.966m.725-23.553a13.637,13.637,0,0,0-1.632.1c-4.637.559-7.93,3.085-9.274,7.115a13.2,13.2,0,0,0,3.225,13.309c3.051,2.922,7.228,3.576,11.76,1.844,6.467-2.473,8.129-8.563,6.907-13.5A11.212,11.212,0,0,0,123.947,41.3m-.228,21.718c-6.193,0-9.4-4.807-9.765-9.365s2.015-9.827,8.1-10.6c4.192-.535,7.655.79,9.749,3.73a11.008,11.008,0,0,1,.776,11,9.319,9.319,0,0,1-8.463,5.232c-.132,0-.264.006-.393.006m-1.654-19.85.015.117c-5.928.756-8.246,5.894-7.891,10.349s3.488,9.147,9.532,9.148c.127,0,.254,0,.384-.006a9.093,9.093,0,0,0,8.259-5.1,10.766,10.766,0,0,0-.757-10.757c-2.041-2.866-5.424-4.157-9.527-3.633Z" transform="translate(-85.754 -31.391)" fill="#12263f"/>
          <path id="Trazado_876430" data-name="Trazado 876430" d="M247.167,66.917a.911.911,0,0,1,.907,1.359l-7.825,7.737a1.217,1.217,0,0,1-1.141-.183,45.989,45.989,0,0,1-3.83-3.948c-.295-.985.237-1.493,1.2-1.2.626.188,3.081,3.25,3.347,3.25,1.236-.891,6.348-6.92,7.339-7.012" transform="translate(-179.789 -51.15)" fill="#12263f"/>
          <path id="Trazado_876431" data-name="Trazado 876431" d="M239.452,75.817a1.5,1.5,0,0,1-.785-.269,43.538,43.538,0,0,1-3.883-4.015.988.988,0,0,1,1.35-1.35,9.719,9.719,0,0,1,2.147,2.041,14.392,14.392,0,0,0,1.15,1.187,38.111,38.111,0,0,0,2.738-2.747c2.321-2.452,4.011-4.192,4.606-4.248a1.1,1.1,0,0,1,1.032.521.933.933,0,0,1-.015,1.019l-.017.02-7.846,7.758-.028.008a1.563,1.563,0,0,1-.449.075M235.6,70.332a.678.678,0,0,0-.5.173.955.955,0,0,0-.1.96,48.175,48.175,0,0,0,3.777,3.88,1.1,1.1,0,0,0,1.02.18l7.794-7.706a.7.7,0,0,0,.006-.758.871.871,0,0,0-.809-.409c-.552.051-2.717,2.338-4.456,4.175a33.566,33.566,0,0,1-2.824,2.815l-.031.022h-.038c-.151,0-.4-.259-1.34-1.281a11.722,11.722,0,0,0-2.041-1.974,1.638,1.638,0,0,0-.465-.076" transform="translate(-179.408 -50.766)" fill="#12263f"/>
          <path id="Trazado_876432" data-name="Trazado 876432" d="M19.422,216.726c1.269-.416,3.488,3.917,1.144,3.52-.593-.1-2.537-3.063-1.144-3.52" transform="translate(-14.47 -165.648)" fill="#12263f"/>
          <path id="Trazado_876433" data-name="Trazado 876433" d="M20.463,220.008a1.81,1.81,0,0,1-.3-.027,4.175,4.175,0,0,1-1.73-2.772.848.848,0,0,1,.569-.976c.415-.136.938.143,1.439.764.659.817,1.125,2.029.764,2.645a.79.79,0,0,1-.743.366m-1.245-3.573a.454.454,0,0,0-.142.022c-.3.1-.437.34-.408.734a4.068,4.068,0,0,0,1.534,2.557c.4.069.672-.008.8-.226.3-.5-.146-1.637-.744-2.378a1.586,1.586,0,0,0-1.04-.71" transform="translate(-14.087 -165.267)" fill="#12263f"/>
        </g>
      </g>
    </g>
  </g>
</svg>
