<svg xmlns="http://www.w3.org/2000/svg" xmlns:xlink="http://www.w3.org/1999/xlink" width="139" height="139" viewBox="0 0 139 139">
  <defs>
    <clipPath id="clip-path">
      <rect id="Rect치ngulo_413215" data-name="Rect치ngulo 413215" width="81.196" height="73.841" fill="#12263f"/>
    </clipPath>
  </defs>
  <g id="Grupo_1115404" data-name="Grupo 1115404" transform="translate(-420.999 -4258.873)">
    <g id="Grupo_1115083" data-name="Grupo 1115083" transform="translate(94.504 -3111.647)">
      <g id="Grupo_1114883" data-name="Grupo 1114883" transform="translate(465.495 7370.521) rotate(90)">
        <path id="Trazado_875690" data-name="Trazado 875690" d="M9.062,0,0,13.547,8.685,26.532,0,39.516,8.685,52.5,0,65.485,8.685,78.47,0,91.456l9.062,13.549,1.684-1.126L2.438,91.456,11.123,78.47,2.438,65.485,11.123,52.5,2.438,39.516l8.685-12.984L2.438,13.547,10.746,1.127Z" transform="translate(0 0)" fill="#12263f"/>
        <path id="Trazado_875691" data-name="Trazado 875691" d="M9.062,0,0,13.547,8.685,26.532,0,39.516,8.685,52.5,0,65.485,8.685,78.47,0,91.456l9.062,13.549,1.685-1.126L2.438,91.456,11.123,78.47,2.438,65.485,11.123,52.5,2.438,39.516l8.685-12.984L2.438,13.547,10.746,1.127Z" transform="translate(13.405 0)" fill="#12263f"/>
        <path id="Trazado_875692" data-name="Trazado 875692" d="M9.062,0,0,13.547,8.685,26.532,0,39.516,8.685,52.5,0,65.485,8.685,78.47,0,91.456l9.062,13.549,1.684-1.126L2.438,91.456,11.123,78.47,2.438,65.485,11.123,52.5,2.438,39.516l8.685-12.984L2.438,13.547,10.746,1.127Z" transform="translate(26.81 0)" fill="#12263f"/>
        <path id="Trazado_875693" data-name="Trazado 875693" d="M9.062,0,0,13.547,8.685,26.532,0,39.516,8.685,52.5,0,65.485,8.685,78.47,0,91.456l9.062,13.549,1.684-1.126L2.438,91.456,11.123,78.47,2.438,65.485,11.123,52.5,2.438,39.516l8.685-12.984L2.438,13.547,10.746,1.127Z" transform="translate(40.215 0)" fill="#12263f"/>
        <path id="Trazado_875694" data-name="Trazado 875694" d="M9.062,0,0,13.547,8.685,26.532,0,39.516,8.685,52.5,0,65.485,8.685,78.47,0,91.456l9.062,13.549,1.684-1.126L2.438,91.456,11.123,78.47,2.438,65.485,11.123,52.5,2.438,39.516l8.685-12.984L2.438,13.547,10.746,1.127Z" transform="translate(53.62 0)" fill="#12263f"/>
        <path id="Trazado_875695" data-name="Trazado 875695" d="M9.062,0,0,13.547,8.685,26.532,0,39.516,8.685,52.5,0,65.485,8.685,78.47,0,91.456l9.062,13.549,1.685-1.126L2.438,91.456,11.123,78.47,2.438,65.485,11.123,52.5,2.438,39.516l8.685-12.984L2.438,13.547,10.747,1.127Z" transform="translate(67.025 0)" fill="#12263f"/>
        <path id="Trazado_875696" data-name="Trazado 875696" d="M9.062,0,0,13.547,8.685,26.532,0,39.516,8.685,52.5,0,65.485,8.685,78.47,0,91.456l9.062,13.549,1.685-1.126L2.438,91.456,11.123,78.47,2.438,65.485,11.123,52.5,2.438,39.516l8.685-12.984L2.438,13.547,10.746,1.127Z" transform="translate(80.431 0)" fill="#12263f"/>
        <path id="Trazado_875697" data-name="Trazado 875697" d="M9.062,0,0,13.547,8.685,26.532,0,39.516,8.685,52.5,0,65.485,8.685,78.47,0,91.456l9.062,13.549,1.685-1.126L2.438,91.456,11.123,78.47,2.438,65.485,11.123,52.5,2.438,39.516l8.685-12.984L2.438,13.547,10.746,1.127Z" transform="translate(93.835 0)" fill="#12263f"/>
      </g>
      <g id="Grupo_1114882" data-name="Grupo 1114882" transform="translate(326.495 7379.938)">
        <rect id="Rect치ngulo_412780" data-name="Rect치ngulo 412780" width="123.655" height="122.5" rx="20" transform="translate(3.542 3.559)" fill="#dbe4f4"/>
        <g id="Grupo_1114814" data-name="Grupo 1114814">
          <path id="Trazado_875775" data-name="Trazado 875775" d="M245.7,319.88a1.7,1.7,0,0,1-1.7-1.7v-5.1a8.512,8.512,0,0,1,8.5-8.5h40.468a11.916,11.916,0,0,0,11.9-11.9V252.28a8.512,8.512,0,0,1,8.5-8.5h5.1a1.7,1.7,0,0,1,0,3.4h-5.1a5.107,5.107,0,0,0-5.1,5.1v40.394a15.321,15.321,0,0,1-15.3,15.3H252.5a5.107,5.107,0,0,0-5.1,5.1v5.1a1.7,1.7,0,0,1-1.7,1.7" transform="translate(-189.434 -190.297)" fill="#12263f"/>
          <path id="Trazado_875777" data-name="Trazado 875777" d="M1.7,76.1A1.7,1.7,0,0,1,0,74.4V69.3a8.512,8.512,0,0,1,8.5-8.5H48.97a11.916,11.916,0,0,0,11.9-11.9V8.5a8.512,8.512,0,0,1,8.5-8.5h5.1a1.7,1.7,0,0,1,0,3.4h-5.1a5.107,5.107,0,0,0-5.1,5.1V48.9a15.321,15.321,0,0,1-15.3,15.3H8.5a5.107,5.107,0,0,0-5.1,5.1v5.1a1.7,1.7,0,0,1-1.7,1.7" transform="translate(76.176 76.102) rotate(180)" fill="#12263f"/>
        </g>
      </g>
    </g>
    <g id="Grupo_1115325" data-name="Grupo 1115325" transform="translate(445.618 4296.726)">
      <g id="Grupo_1115324" data-name="Grupo 1115324" clip-path="url(#clip-path)">
        <path id="Trazado_876443" data-name="Trazado 876443" d="M183.708,3.717a2.213,2.213,0,0,0-1.9-1.4l-31.747.02c-1.742-.208-1.319-2.612.512-2.309,9.917.125,21.074-.049,31.494,0,6.145.029,2.992,7.17,3.976,10.491.159.535,1.791,1.728,2.094,2.473.918,2.255-1.826,3-1.861,3.411s1.7,2.624,1.5,3.431c2.936-.594,3.562-1.332,4.241,1.975.436,2.124.587,7.417-.474,9.287-1.082,1.906-3.086.288-3.783.778a24.812,24.812,0,0,0-1.523,3.072c0,.6,1.377.989,1.654,1.647.982,2.331-1.692,3.056-1.911,4.677l-.045,29.4a4.356,4.356,0,0,1-3.391,2.955,70.77,70.77,0,0,1-10.9.022c-1.929-.21-1.591-2.082-.5-2.285l11.114-.054a2.449,2.449,0,0,0,1.45-1.342V42.677c-1.459.821-4.314,3.352-5.845,1.657a8.04,8.04,0,0,1-.769-1.9,21.073,21.073,0,0,0-4.033.764c-.3.3.7,2.634-1.094,3.349-1.913.762-8.631-.914-10.324-2.235-1.955-1.526.244-3.5-.03-3.9-.968-.008-2.555-2.295-3.163-2.245-.8.064-1.809,2.918-4.14.023-1.441-1.79-4.031-6.848-3.591-9.088.327-1.671,2.408-1.264,2.676-1.638.377-.524-.059-3.115.124-3.932-4.187-.389-2.745-3.709-1.583-6.411,1.086-2.524,3.891-8.142,6.772-4.146.407-.847,2.8-1.992,3.062-2.526.25-.5-2.1-2.431.6-3.955,1.866-1.053,8.53-2.716,10.268-1.611,1.374.874.523,2.329.675,2.865a16.567,16.567,0,0,0,4.041,1.172c.085-.064.345-1.49.843-1.953,1.661-1.54,3.909.866,5.506,1.444-.2-1.366.269-3.435,0-4.7m-12.69,3.172a25.826,25.826,0,0,0-7.361,1.527c-.248.338,1.352,1.752.52,3.184a56.849,56.849,0,0,1-4.823,3.81c-1.752.558-2.394-1.288-2.922-1.16-.818.715-3.719,6.3-3.182,6.853a5.313,5.313,0,0,1,1.91.5c1.359.962.617,1.781.617,2.914,0,2.852,1.132,4.947-2.542,5.612-.2,1.057,2.586,6.7,3.189,6.7,2.425-2.719,3.265-.689,5.082.76,2.218,1.769,3.655,1.564,1.9,5.079,1.055.488,6.734,2.152,7.362,1.527.145-.144-.535-2.715,1.2-3.246,1.725.231,4.227-1.35,5.772-1.068,1.242.226,1.445,2.1,1.68,2.266.883.627,5.4-3.551,6.067-4.425,0-.4-2.468-1.029-1.836-3.093,1.218-1.337,1.792-5.5,3.785-5.592.637-.03,1.371.629,2.1.424a16.9,16.9,0,0,0,.009-7.6c-3.8,1.611-3.06.365-4.266-2.2-.489-1.041-1.691-2.711-1.563-3.738.189-1.52,2.38-1.565,1.533-2.827-.523-.779-4.933-4.361-5.579-3.9-.3.212-.342,2.108-1.947,2.265-.294.029-5.476-1.176-5.761-1.321-1.231-.624-.928-2.115-.941-3.247" transform="translate(-111.149 0)" fill="#12263f"/>
        <path id="Trazado_876444" data-name="Trazado 876444" d="M20.273,64.722c-.109-.449-1.831-.162-2.047-.016-.587.4.474,2.721-1.912,2.933A19.707,19.707,0,0,1,9.18,65.916c-2.493-1.52-.624-2.419-.627-3.229A14.915,14.915,0,0,0,6.817,61.16c-.873-.4-1.326,1.235-3.037.509-1.443-.613-4.355-7-3.68-8.49.561-1.236,1.994-.587,2.165-1.9.4-3.046-1.016-1.537-1.9-2.691C-.879,46.978,2.2,41.124,3.643,39.971c1.727-1.381,2.463.595,3.017.5A14.993,14.993,0,0,0,8.566,38.8c.1-.527-1.246-1.637.151-2.893,1.32-1.187,6.909-2.2,8.584-1.715,1.342.386.705,2,1.052,2.5.2.3,1.92.673,1.92.11V3.045A4.639,4.639,0,0,1,22.062.773C24.675-.252,29.2.254,33.347.185a1.241,1.241,0,0,1,1.271,1.207c.008.528-.22,1.018-.512,1.018H23.954a2.272,2.272,0,0,0-1.408,2.145V69.3a2.272,2.272,0,0,0,1.408,2.145H55.426c.545,0,1.1,2.045-.749,2.3l-30.48,0c-1.271.277-3.924-1.837-3.924-2.929,0-1.44.273-4.969,0-6.092m-4.315-28.3a21.006,21.006,0,0,0-5.077,1.019c-.224.3,1.019,1.259,0,2.663A42.3,42.3,0,0,1,7.4,42.969c-1.309.4-2.419-.69-2.615-.6-.547.257-2.441,4.184-2,4.688.048.056.951.1,1.384.517.941.9.166,4.089.394,5.474-.417,1.2-2.07,1.328-2.065,1.538.015.651,1.7,4.464,2.377,4.4.744-.071.937-1.3,2.548-.45a46.782,46.782,0,0,1,3.582,3.015c.467,1.011-.187,1.62-.378,2.533.807.074,4.66,1.451,5.078,1.019.085-.088-.25-1.651.621-2.3,1.967-1.462,4.832.9,3.945-4.555-3.835,1.291-7.584.977-10.281-2.282-5.774-6.977,2.234-16.521,10.281-12.695-.194-1.331.635-3.217-.868-3.825-1.748-.708-3.911.1-3.446-3.028m-.314,8.444C8.034,45.895,9.081,57.89,17.8,56.413c.616-.1,2.238-.769,2.423-1.385a71.61,71.61,0,0,0,.042-8.321c-.281-1.494-3.336-2.018-4.623-1.843" transform="translate(0 -0.09)" fill="#12263f"/>
        <path id="Trazado_876445" data-name="Trazado 876445" d="M119.656,212.2A1.083,1.083,0,0,1,121,213.544c-.127.863-1.605,1.39-1.779,2.3-.419,2.2,1.1,8.605-1.515,9.4a58.872,58.872,0,0,1-9.029.12,2.447,2.447,0,0,1-2.038-1.515,59.131,59.131,0,0,1-.119-9.03,2.443,2.443,0,0,1,1.34-1.959c1.037-.416,7.663-.3,9.205-.2.536.033,1.1.458,1.265.446.224-.016.73-.789,1.326-.908m-3.487,2.755h-6.98a2.546,2.546,0,0,0-.381.381v7.487h7.868v-4.569c-1.424,1.018-2.666,3.867-4.58,2.169-.869-.771-2.186-2.87-.309-3.141.82-.119,1.126.626,1.51.687.359.057,3.164-2.757,2.872-3.014" transform="translate(-79.399 -158.317)" fill="#12263f"/>
        <path id="Trazado_876446" data-name="Trazado 876446" d="M172.679,218.187l20.507-.061c1.732-.026,2.03,2.067.261,2.3-6.2.818-14.186-.645-20.582,0a1.124,1.124,0,0,1-.186-2.239" transform="translate(-128.11 -162.763)" fill="#12263f"/>
        <path id="Trazado_876447" data-name="Trazado 876447" d="M106.977,169.429c-1.324-.221-.753-2.284-.254-2.284H124.49c.8,0,.8,2.284,0,2.284Z" transform="translate(-79.216 -124.721)" fill="#12263f"/>
        <path id="Trazado_876448" data-name="Trazado 876448" d="M109.3,184.744a73.6,73.6,0,0,1,10.589-.037c1.7.26,1.746,2.3-.232,2.525a66.835,66.835,0,0,1-10.141-.021c-1.691-.269-1.786-2.116-.215-2.468" transform="translate(-80.725 -137.698)" fill="#12263f"/>
        <path id="Trazado_876449" data-name="Trazado 876449" d="M106.558,32.145h12.437c.708,0,.708,2.284,0,2.284H106.558c-.668,0-.966-1.951,0-2.284" transform="translate(-79.051 -23.986)" fill="#12263f"/>
        <path id="Trazado_876450" data-name="Trazado 876450" d="M108.054,49.874a42.8,42.8,0,0,1,7.038-.04c1.892.31,1.888,2.2,0,2.509a42.414,42.414,0,0,1-6.824,0c-1.78-.292-1.916-2.094-.214-2.469" transform="translate(-79.732 -37.093)" fill="#12263f"/>
        <path id="Trazado_876451" data-name="Trazado 876451" d="M181.486,237.669c1.437.239.653,2.284,0,2.284H172.6c-.8,0-.8-2.284,0-2.284,2.451,0,6.691-.364,8.883,0" transform="translate(-128.344 -177.224)" fill="#12263f"/>
        <path id="Trazado_876452" data-name="Trazado 876452" d="M115.978,96.145c.81.25.759,2.284-.254,2.284H107.6c-.8,0-.8-2.284,0-2.284Z" transform="translate(-79.842 -71.742)" fill="#12263f"/>
        <path id="Trazado_876453" data-name="Trazado 876453" d="M116.134,119.744a2.34,2.34,0,0,1-1.322.325c-1.075.091-7.236.129-7.69-.325a1.161,1.161,0,0,1,.58-1.962,59.791,59.791,0,0,1,7.862-.008,1.234,1.234,0,0,1,.571,1.97" transform="translate(-79.679 -87.788)" fill="#12263f"/>
        <path id="Trazado_876454" data-name="Trazado 876454" d="M202.748,57c15.436-2.1,17.167,20.37,3.46,21.989C191,80.783,189.2,58.838,202.748,57m.761,2.285c-12.37,1.632-8.31,20.811,3.755,16.952,10.008-3.2,6.382-18.289-3.755-16.952" transform="translate(-144.464 -42.428)" fill="#12263f"/>
      </g>
    </g>
  </g>
</svg>
