<svg xmlns="http://www.w3.org/2000/svg" xmlns:xlink="http://www.w3.org/1999/xlink" width="123.023" height="122.908" viewBox="0 0 123.023 122.908">
  <defs>
    <clipPath id="clip-path">
      <rect id="Rect치ngulo_413199" data-name="Rect치ngulo 413199" width="59.834" height="60.166" fill="#12263f"/>
    </clipPath>
  </defs>
  <g id="Grupo_1115336" data-name="Grupo 1115336" transform="translate(-388.667 -2609.66)">
    <g id="Grupo_1114984" data-name="Grupo 1114984" transform="translate(2 -2727.34)">
      <rect id="Rect치ngulo_412780" data-name="Rect치ngulo 412780" width="116.357" height="116.243" rx="20" transform="translate(390 5340.349)" fill="#b0c2e5"/>
      <g id="Grupo_1114814" data-name="Grupo 1114814">
        <path id="Trazado_875775" data-name="Trazado 875775" d="M245.6,315.389a1.6,1.6,0,0,1-1.6-1.6v-4.8a8.009,8.009,0,0,1,8-8h38.08a11.213,11.213,0,0,0,11.2-11.2v-38.01a8.009,8.009,0,0,1,8-8h4.8a1.6,1.6,0,1,1,0,3.2h-4.8a4.806,4.806,0,0,0-4.8,4.8v38.01a14.417,14.417,0,0,1-14.4,14.4H252a4.806,4.806,0,0,0-4.8,4.8v4.8a1.6,1.6,0,0,1-1.6,1.6" transform="translate(194.014 5144.519)" fill="#12263f"/>
        <path id="Trazado_875777" data-name="Trazado 875777" d="M245.6,315.389a1.6,1.6,0,0,1-1.6-1.6v-4.8a8.009,8.009,0,0,1,8-8h38.08a11.213,11.213,0,0,0,11.2-11.2v-38.01a8.009,8.009,0,0,1,8-8h4.8a1.6,1.6,0,1,1,0,3.2h-4.8a4.806,4.806,0,0,0-4.8,4.8v38.01a14.417,14.417,0,0,1-14.4,14.4H252a4.806,4.806,0,0,0-4.8,4.8v4.8a1.6,1.6,0,0,1-1.6,1.6" transform="translate(702.344 5652.389) rotate(180)" fill="#12263f"/>
      </g>
    </g>
    <g id="Grupo_1115302" data-name="Grupo 1115302" transform="translate(421.087 2641.031)">
      <g id="Grupo_1115301" data-name="Grupo 1115301" clip-path="url(#clip-path)">
        <path id="Trazado_876363" data-name="Trazado 876363" d="M47.8,4.151c3.359-.546,3.357,2.238,0,1.69V37.98c.751-.011,1.9-.226,1.9.845,0,1.3-1.9.728-1.9.846v3.571c.474-.051,1.263.168,1.6-.182.739-.761,1.529-4.826,2.343-5.925V.487c0-.46,1.691-.659,1.691,0V4.151c0,.1,1.521-.372,1.521.846s-1.521.746-1.521.846v26.31L63.776,5.935c-.57-.28-1.657.18-2.083-.356-1.294-1.626,3.016-2.248,2.65-.3A4.655,4.655,0,0,1,71,5.855a31.341,31.341,0,0,1,2.32,5.577c.238,1.2-.768,1.9-1.473,1.093-.519-.59-1.317-3.707-1.832-4.744C68.9,5.547,66.8,5.194,65.125,7.1L47.815,52.527A1.823,1.823,0,0,0,50.9,53.757c1.545-3.067,2.4-6.439,3.774-9.574.369-.843.308-.866,1.3-.95,7.267-.619,15.4.485,22.756,0l1.036.328L83.611,53.57c1.5,1.646,3.67.17,3-1.876l-13.4-35.467c-.355-1.434,1.085-1.859,1.685-.555l6.165,16.105V5.843c0-.063-.771.012-.77-.846,0-.8.713-.728.774-.978.205-.837-.571-4.162,1.02-4.011,1.274.121.83,2.943.847,3.869.2,10.936-.147,22.05.025,33.052l2.26,6.289,1.482.023V39.67c0-.108-1.709.417-1.709-.846,0-1.28,1.669-.659,1.712-.953l0-32.03c-.643.019-1.584.164-1.7-.669-.2-1.457,1.558-.885,1.7-1.021.11-.108-.077-2.561.01-3.091.231-1.4,1.823-1.425,1.869-.014l.008,57.894c0,.642-.145,1.194-.87,1.211-1.563.036-.874-3.144-1.016-4.133-.7-.044-1.456.076-2.146-.015-.359-.048-1.614-.751-1.614-.265V59.5a1.494,1.494,0,0,1-1.024.668c-1.389-.127-.64-3.151-.851-4.013-.061-.249-.774-.182-.774-.977s.713-.728.774-.978a10.932,10.932,0,0,0-.048-2.361c-.111-.595-2.132-5.89-2.445-6.388-.165-.262-.241-.49-.616-.511l-21.514.089a1.416,1.416,0,0,0-.47.657,54.2,54.2,0,0,0-2.524,6.684,11.531,11.531,0,0,0-.013,1.963c.107.1,1.375-.318,1.51.668.194,1.416-1.509.913-1.509,1.022v3.665c0,.659-1.691.46-1.691,0V55.457a7.686,7.686,0,0,1-3.947.564v3.665c0,.659-1.691.46-1.691,0V.487c0-.46,1.691-.659,1.691,0Zm.94,40.783-.941,0,0,2.067Zm37.961,0-.75,0,.565,1.689Z" transform="translate(-37.446 0)" fill="#12263f"/>
        <path id="Trazado_876364" data-name="Trazado 876364" d="M122.07,91.519l-8.362-21.987-8.55,21.894c.671.282,1.68-.14,2.315.265a.982.982,0,0,1-.061,1.427,19.061,19.061,0,0,1-3.486.1c-1.363-.179-.725-1.311-.464-2.172,2.41-7.951,6.6-15.966,9.12-23.956.273-.79.821-1.543,1.691-.943l9.876,26.224c.084.24-.336.839-.482.839H110.512c-.538,0-.4-1.691.188-1.691Z" transform="translate(-83.711 -53.541)" fill="#12263f"/>
        <path id="Trazado_876365" data-name="Trazado 876365" d="M3.208,21.8c.926-.282,2.906-.094,2.22,1.281-.251.5-2.212.515-2.546.289a.978.978,0,0,1,.326-1.57" transform="translate(-2.117 -17.609)" fill="#12263f"/>
        <path id="Trazado_876366" data-name="Trazado 876366" d="M28.208,21.8c.926-.282,2.906-.094,2.22,1.281-.251.5-2.212.515-2.546.289a.978.978,0,0,1,.326-1.57" transform="translate(-22.418 -17.609)" fill="#12263f"/>
        <path id="Trazado_876367" data-name="Trazado 876367" d="M3.044,288.68c.861-.3,3.131-.136,2.419,1.292-.257.515-1.9.5-2.351.282-.563-.272-.644-1.374-.068-1.574" transform="translate(-2.151 -234.327)" fill="#12263f"/>
        <path id="Trazado_876368" data-name="Trazado 876368" d="M28.044,288.68c.861-.3,3.131-.136,2.419,1.292-.257.515-1.9.5-2.351.282-.563-.272-.644-1.374-.068-1.574" transform="translate(-22.453 -234.327)" fill="#12263f"/>
        <path id="Trazado_876369" data-name="Trazado 876369" d="M103.528,21.815c.933-.276,2.907-.1,2.219,1.279-.256.514-1.908.5-2.352.281a.9.9,0,0,1,.132-1.56" transform="translate(-83.643 -17.626)" fill="#12263f"/>
        <path id="Trazado_876370" data-name="Trazado 876370" d="M178.529,21.815c.933-.276,2.907-.1,2.219,1.279-.256.514-1.908.5-2.352.281a.9.9,0,0,1,.132-1.56" transform="translate(-144.548 -17.626)" fill="#12263f"/>
        <path id="Trazado_876371" data-name="Trazado 876371" d="M203.529,21.815c.933-.276,2.907-.1,2.219,1.279-.256.514-1.908.5-2.352.281a.9.9,0,0,1,.132-1.56" transform="translate(-164.85 -17.626)" fill="#12263f"/>
        <path id="Trazado_876372" data-name="Trazado 876372" d="M278.529,21.815c.933-.276,2.907-.1,2.219,1.279-.257.514-1.908.5-2.352.281a.9.9,0,0,1,.132-1.56" transform="translate(-225.755 -17.626)" fill="#12263f"/>
        <path id="Trazado_876373" data-name="Trazado 876373" d="M303.529,21.815c.933-.276,2.907-.1,2.219,1.279-.257.514-1.908.5-2.352.281a.9.9,0,0,1,.132-1.56" transform="translate(-246.057 -17.626)" fill="#12263f"/>
        <path id="Trazado_876374" data-name="Trazado 876374" d="M.529,201.815c.933-.276,2.907-.1,2.219,1.279-.256.514-1.908.5-2.351.281a.9.9,0,0,1,.132-1.56" transform="translate(0 -163.798)" fill="#12263f"/>
        <path id="Trazado_876375" data-name="Trazado 876375" d="M25.529,201.815c.933-.276,2.907-.1,2.219,1.279-.257.514-1.908.5-2.352.281a.9.9,0,0,1,.132-1.56" transform="translate(-20.302 -163.798)" fill="#12263f"/>
        <path id="Trazado_876376" data-name="Trazado 876376" d="M278.529,201.815c.933-.276,2.907-.1,2.219,1.279-.257.514-1.908.5-2.352.281a.9.9,0,0,1,.132-1.56" transform="translate(-225.755 -163.798)" fill="#12263f"/>
        <path id="Trazado_876377" data-name="Trazado 876377" d="M303.529,201.815c.933-.276,2.907-.1,2.219,1.279-.257.514-1.908.5-2.352.281a.9.9,0,0,1,.132-1.56" transform="translate(-246.057 -163.798)" fill="#12263f"/>
        <path id="Trazado_876378" data-name="Trazado 876378" d="M.529,229.815c.933-.276,2.907-.1,2.219,1.279-.256.514-1.908.5-2.351.281a.9.9,0,0,1,.132-1.56" transform="translate(0 -186.536)" fill="#12263f"/>
        <path id="Trazado_876379" data-name="Trazado 876379" d="M25.529,229.815c.933-.276,2.907-.1,2.219,1.279-.257.514-1.908.5-2.352.281a.9.9,0,0,1,.132-1.56" transform="translate(-20.302 -186.536)" fill="#12263f"/>
        <path id="Trazado_876380" data-name="Trazado 876380" d="M278.529,229.815c.933-.276,2.907-.1,2.219,1.279-.257.514-1.908.5-2.352.281a.9.9,0,0,1,.132-1.56" transform="translate(-225.755 -186.536)" fill="#12263f"/>
        <path id="Trazado_876381" data-name="Trazado 876381" d="M303.529,229.815c.933-.276,2.907-.1,2.219,1.279-.257.514-1.908.5-2.352.281a.9.9,0,0,1,.132-1.56" transform="translate(-246.057 -186.536)" fill="#12263f"/>
        <path id="Trazado_876382" data-name="Trazado 876382" d="M103.528,288.815c.933-.276,2.907-.1,2.219,1.279-.256.514-1.908.5-2.352.281a.9.9,0,0,1,.132-1.56" transform="translate(-83.643 -234.448)" fill="#12263f"/>
        <path id="Trazado_876383" data-name="Trazado 876383" d="M128.529,288.815c.933-.276,2.907-.1,2.219,1.279-.256.514-1.908.5-2.352.281a.9.9,0,0,1,.132-1.56" transform="translate(-103.945 -234.448)" fill="#12263f"/>
        <path id="Trazado_876384" data-name="Trazado 876384" d="M153.529,288.815c.933-.276,2.907-.1,2.219,1.279-.256.514-1.908.5-2.352.281a.9.9,0,0,1,.132-1.56" transform="translate(-124.246 -234.448)" fill="#12263f"/>
        <path id="Trazado_876385" data-name="Trazado 876385" d="M178.529,288.815c.933-.276,2.907-.1,2.219,1.279-.256.514-1.908.5-2.352.281a.9.9,0,0,1,.132-1.56" transform="translate(-144.548 -234.448)" fill="#12263f"/>
        <path id="Trazado_876386" data-name="Trazado 876386" d="M203.529,288.815c.933-.276,2.907-.1,2.219,1.279-.256.514-1.908.5-2.352.281a.9.9,0,0,1,.132-1.56" transform="translate(-164.85 -234.448)" fill="#12263f"/>
        <path id="Trazado_876387" data-name="Trazado 876387" d="M278.529,288.815c.933-.276,2.907-.1,2.219,1.279-.257.514-1.908.5-2.352.281a.9.9,0,0,1,.132-1.56" transform="translate(-225.755 -234.448)" fill="#12263f"/>
        <path id="Trazado_876388" data-name="Trazado 876388" d="M303.529,288.815c.933-.276,2.907-.1,2.219,1.279-.257.514-1.908.5-2.352.281a.9.9,0,0,1,.132-1.56" transform="translate(-246.057 -234.448)" fill="#12263f"/>
      </g>
    </g>
  </g>
</svg>
