<svg xmlns="http://www.w3.org/2000/svg" xmlns:xlink="http://www.w3.org/1999/xlink" width="139" height="139" viewBox="0 0 139 139">
  <defs>
    <clipPath id="clip-path">
      <rect id="Rect치ngulo_413212" data-name="Rect치ngulo 413212" width="72.226" height="72.285" fill="#12263f"/>
    </clipPath>
  </defs>
  <g id="Grupo_1115016" data-name="Grupo 1115016" transform="translate(-326.495 -7370.521)">
    <g id="Grupo_1114883" data-name="Grupo 1114883" transform="translate(465.495 7370.521) rotate(90)">
      <path id="Trazado_875690" data-name="Trazado 875690" d="M9.062,0,0,13.547,8.685,26.532,0,39.516,8.685,52.5,0,65.485,8.685,78.47,0,91.456l9.062,13.549,1.684-1.126L2.438,91.456,11.123,78.47,2.438,65.485,11.123,52.5,2.438,39.516l8.685-12.984L2.438,13.547,10.746,1.127Z" transform="translate(0 0)" fill="#12263f"/>
      <path id="Trazado_875691" data-name="Trazado 875691" d="M9.062,0,0,13.547,8.685,26.532,0,39.516,8.685,52.5,0,65.485,8.685,78.47,0,91.456l9.062,13.549,1.685-1.126L2.438,91.456,11.123,78.47,2.438,65.485,11.123,52.5,2.438,39.516l8.685-12.984L2.438,13.547,10.746,1.127Z" transform="translate(13.405 0)" fill="#12263f"/>
      <path id="Trazado_875692" data-name="Trazado 875692" d="M9.062,0,0,13.547,8.685,26.532,0,39.516,8.685,52.5,0,65.485,8.685,78.47,0,91.456l9.062,13.549,1.684-1.126L2.438,91.456,11.123,78.47,2.438,65.485,11.123,52.5,2.438,39.516l8.685-12.984L2.438,13.547,10.746,1.127Z" transform="translate(26.81 0)" fill="#12263f"/>
      <path id="Trazado_875693" data-name="Trazado 875693" d="M9.062,0,0,13.547,8.685,26.532,0,39.516,8.685,52.5,0,65.485,8.685,78.47,0,91.456l9.062,13.549,1.684-1.126L2.438,91.456,11.123,78.47,2.438,65.485,11.123,52.5,2.438,39.516l8.685-12.984L2.438,13.547,10.746,1.127Z" transform="translate(40.215 0)" fill="#12263f"/>
      <path id="Trazado_875694" data-name="Trazado 875694" d="M9.062,0,0,13.547,8.685,26.532,0,39.516,8.685,52.5,0,65.485,8.685,78.47,0,91.456l9.062,13.549,1.684-1.126L2.438,91.456,11.123,78.47,2.438,65.485,11.123,52.5,2.438,39.516l8.685-12.984L2.438,13.547,10.746,1.127Z" transform="translate(53.62 0)" fill="#12263f"/>
      <path id="Trazado_875695" data-name="Trazado 875695" d="M9.062,0,0,13.547,8.685,26.532,0,39.516,8.685,52.5,0,65.485,8.685,78.47,0,91.456l9.062,13.549,1.685-1.126L2.438,91.456,11.123,78.47,2.438,65.485,11.123,52.5,2.438,39.516l8.685-12.984L2.438,13.547,10.747,1.127Z" transform="translate(67.025 0)" fill="#12263f"/>
      <path id="Trazado_875696" data-name="Trazado 875696" d="M9.062,0,0,13.547,8.685,26.532,0,39.516,8.685,52.5,0,65.485,8.685,78.47,0,91.456l9.062,13.549,1.685-1.126L2.438,91.456,11.123,78.47,2.438,65.485,11.123,52.5,2.438,39.516l8.685-12.984L2.438,13.547,10.746,1.127Z" transform="translate(80.431 0)" fill="#12263f"/>
      <path id="Trazado_875697" data-name="Trazado 875697" d="M9.062,0,0,13.547,8.685,26.532,0,39.516,8.685,52.5,0,65.485,8.685,78.47,0,91.456l9.062,13.549,1.685-1.126L2.438,91.456,11.123,78.47,2.438,65.485,11.123,52.5,2.438,39.516l8.685-12.984L2.438,13.547,10.746,1.127Z" transform="translate(93.835 0)" fill="#12263f"/>
    </g>
    <g id="Grupo_1114882" data-name="Grupo 1114882" transform="translate(326.495 7379.938)">
      <rect id="Rect치ngulo_412780" data-name="Rect치ngulo 412780" width="123.655" height="122.5" rx="20" transform="translate(3.542 3.559)" fill="#dbe4f4"/>
      <g id="Grupo_1114814" data-name="Grupo 1114814">
        <path id="Trazado_875775" data-name="Trazado 875775" d="M245.7,319.88a1.7,1.7,0,0,1-1.7-1.7v-5.1a8.512,8.512,0,0,1,8.5-8.5h40.468a11.916,11.916,0,0,0,11.9-11.9V252.28a8.512,8.512,0,0,1,8.5-8.5h5.1a1.7,1.7,0,0,1,0,3.4h-5.1a5.107,5.107,0,0,0-5.1,5.1v40.394a15.321,15.321,0,0,1-15.3,15.3H252.5a5.107,5.107,0,0,0-5.1,5.1v5.1a1.7,1.7,0,0,1-1.7,1.7" transform="translate(-189.434 -190.297)" fill="#12263f"/>
        <path id="Trazado_875777" data-name="Trazado 875777" d="M1.7,76.1A1.7,1.7,0,0,1,0,74.4V69.3a8.512,8.512,0,0,1,8.5-8.5H48.97a11.916,11.916,0,0,0,11.9-11.9V8.5a8.512,8.512,0,0,1,8.5-8.5h5.1a1.7,1.7,0,0,1,0,3.4h-5.1a5.107,5.107,0,0,0-5.1,5.1V48.9a15.321,15.321,0,0,1-15.3,15.3H8.5a5.107,5.107,0,0,0-5.1,5.1v5.1a1.7,1.7,0,0,1-1.7,1.7" transform="translate(76.176 76.102) rotate(180)" fill="#12263f"/>
      </g>
      <g id="Grupo_1115318" data-name="Grupo 1115318" transform="translate(29.256 28.649)">
        <g id="Grupo_1115317" data-name="Grupo 1115317" clip-path="url(#clip-path)">
          <path id="Trazado_876417" data-name="Trazado 876417" d="M15.118,65.84c1.671-1.622,5.274,1.547,5.751,2.948a3.174,3.174,0,0,1-.662,3.16c-.828,1.075-7.457,7.685-8.358,8.142A2.487,2.487,0,0,1,8.9,79.856,100.761,100.761,0,0,1,.527,71.5c-1.388-1.966.229-3.99,1.823-5.2,1.76-1.338,2.336-1.074,4.067-.008.213.131.155.38.452.007A29.538,29.538,0,0,1,17.851,47.668c.85-.663,3.267-2.484,4.212-2.575,1.934-.187,1.847,1.84,2.5,3.05.631,1.17,1.858,1.619,1.354,3.3C25.75,52,23.04,53.616,22.346,54.2A20.857,20.857,0,0,0,15.118,65.84m7-18.309c-7.2,3.728-11.955,11.488-13.272,19.387-.111.667.047,2.52-.5,2.885-1.528,1.009-2.815-2.278-3.953-2.167-.583.057-1.849,1.729-2.369,2.19L10.3,78.242l.524-.058,8.043-8.043c.4-.633-1.693-2.468-2.07-2.5-.859-.084-1.931,1.819-2.733,2.243-2.657,1.4-1.392-3.516-1.1-4.719A24.613,24.613,0,0,1,23.693,50.586a7.1,7.1,0,0,1-1.573-3.055" transform="translate(0 -34.891)" fill="#12263f"/>
          <path id="Trazado_876418" data-name="Trazado 876418" d="M65.789,215.528c-1.622-1.671,1.547-5.274,2.948-5.751a3.174,3.174,0,0,1,3.16.662c1.075.828,7.685,7.457,8.142,8.358a2.487,2.487,0,0,1-.234,2.951,100.725,100.725,0,0,1-8.356,8.371c-1.966,1.388-3.99-.229-5.2-1.823-1.338-1.76-1.074-2.336-.008-4.067.131-.213.38-.155.007-.452a29.539,29.539,0,0,1-18.628-10.982c-.663-.85-2.484-3.267-2.575-4.212-.187-1.934,1.84-1.847,3.05-2.5,1.17-.631,1.619-1.858,3.3-1.354.558.167,2.174,2.877,2.755,3.571a20.858,20.858,0,0,0,11.644,7.228m-18.308-7c3.712,7.193,11.508,11.959,19.387,13.272.667.111,2.52-.047,2.885.5,1.009,1.528-2.278,2.815-2.167,3.953.057.583,1.729,1.849,2.19,2.369l8.415-8.281-.059-.524-8.043-8.043c-.529-.431-2.381,1.6-2.46,1.882-.332,1.186,2.432,2.337,2.437,3.566.006,1.818-3.818.728-4.956.454a24.607,24.607,0,0,1-14.575-10.725,7.1,7.1,0,0,1-3.055,1.573" transform="translate(-34.851 -158.361)" fill="#12263f"/>
          <path id="Trazado_876419" data-name="Trazado 876419" d="M221.275,140.225a1.1,1.1,0,0,1-1.765-.957c.044-.927,1.4-3.76,1.712-5.088.22-.932.657-4.917.9-5.2,1.251-1.456,2.991,2.152,4.06,2.048a7.534,7.534,0,0,0,2.369-2.354l-8-8.069-.643-.189c-1.031,1.382-8.015,7.3-8.272,8.271-.131.5,1.678,2.3,2.135,2.34,1.119.109,2.862-3.629,4.175-2.163.923,1.031-.969,6.826-1.546,8.182a24.811,24.811,0,0,1-9.522,11.031,9.281,9.281,0,0,1,1.521,2.768c.1.217-.067.38.356.259,1.8-.513,5.86-4.657,7.146-6.194.76-.908,1.664-3.258,3.078-2.162,1.065.826-1.588,3.756-2.278,4.544-1.3,1.49-6.223,5.936-8.023,6.236-2.075.347-1.958-1.61-2.592-2.861s-2.2-2.012-1.271-3.733c5.077-3.269,9.494-8.017,10.637-14.111-1.894,1.35-4.373-.86-5.423-2.373a2.9,2.9,0,0,1-.2-2.916c.3-.755,7.094-7.588,8.113-8.387,1.389-1.09,2.344-1.351,3.85-.231a93.306,93.306,0,0,1,8.253,8.248c1.47,2.083-.733,4.861-2.632,5.749-1.689.79-1.951.255-3.259-.539-.211-.128-.154-.382-.451-.007-.246,1.454-1.464,7.041-2.428,7.859" transform="translate(-158.299 -91.476)" fill="#12263f"/>
          <path id="Trazado_876420" data-name="Trazado 876420" d="M132.766,15.129a2.8,2.8,0,0,1-.224,3.277c-1.085,1.548-2.768,3.017-4.756,2.491-.859-.228-4.148-3.314-3.95-4.213.632-2.874,3.984,1.877,4.64,2.18.7.324,2.553-1.651,2.494-2.256-.062-.628-1.721-1.74-2.147-2.4-2.068-3.19,5-1.156,6.2-.771a24.645,24.645,0,0,1,13,10.264,9.279,9.279,0,0,1,2.768-1.521c.217-.1.38.067.259-.356-.344-1.206-3.559-4.829-4.6-5.8-5.12-4.783-9.771-6.179-16.486-7.248C126.3,8.194,131.07,5.422,130.97,4.4c-.057-.583-1.73-1.849-2.19-2.369l-8.421,8.279c-.254.971,2.925,2.35,2.023,3.81-.849,1.375-2.542-.571-3.183-1.364-1.061-1.313-1.536-2.307-.449-3.849A114.634,114.634,0,0,1,127.227.433c1.9-1.239,3.94.427,5.081,1.929,1.4,1.842,1.072,2.315.008,4.068-.128.211-.382.154-.007.451a29.537,29.537,0,0,1,18.628,10.982c.663.85,2.484,3.267,2.575,4.212.19,1.966-1.865,1.824-3.051,2.5-1.133.643-1.573,1.874-3.3,1.356-.558-.168-2.174-2.877-2.755-3.571a20.856,20.856,0,0,0-11.644-7.228" transform="translate(-91.431 0)" fill="#12263f"/>
          <path id="Trazado_876421" data-name="Trazado 876421" d="M117.3,105.884c14.726-1.66,18.9,19.677,5.025,23.786-17.143,5.076-22.164-21.854-5.025-23.786m-.687,2.252c-10.263,1.6-10.694,17.935.191,19.818,15.381,2.66,16.069-22.349-.191-19.818" transform="translate(-82.57 -81.88)" fill="#12263f"/>
          <path id="Trazado_876422" data-name="Trazado 876422" d="M133.561,138.021c.047-.075,1.286-.552,1.612-.759a5.974,5.974,0,0,0-5.263-10.688,6.055,6.055,0,0,0-1.934,9.839c.944.916,2.947,1.225,2.794,2.539-.207,1.787-2.807.155-3.556-.421a8.118,8.118,0,0,1,.96-13.467c7.793-4.272,15.728,5.06,10.415,12-.654.854-4.149,3.939-4.953,2.281a2.109,2.109,0,0,1-.075-1.322" transform="translate(-96.03 -95.96)" fill="#12263f"/>
          <path id="Trazado_876423" data-name="Trazado 876423" d="M151.159,148.119c.955-.092,1.213,1,.865,1.756a24.26,24.26,0,0,1-3.89,3.591c-.814.118-3.562-2.774-1.708-3.323,1.064-.315,1.325.7,1.73.625.494-.087,2.146-2.567,3-2.649" transform="translate(-112.842 -114.635)" fill="#12263f"/>
        </g>
      </g>
    </g>
  </g>
</svg>
