<svg xmlns="http://www.w3.org/2000/svg" xmlns:xlink="http://www.w3.org/1999/xlink" width="123.023" height="122.908" viewBox="0 0 123.023 122.908">
  <defs>
    <clipPath id="clip-path">
      <rect id="Rect치ngulo_413201" data-name="Rect치ngulo 413201" width="57.231" height="57.066" fill="#12263f"/>
    </clipPath>
  </defs>
  <g id="Grupo_1115338" data-name="Grupo 1115338" transform="translate(-1091.667 -2609.66)">
    <g id="Grupo_1114986" data-name="Grupo 1114986" transform="translate(705 -2727.34)">
      <rect id="Rect치ngulo_412780" data-name="Rect치ngulo 412780" width="116.357" height="116.243" rx="20" transform="translate(390 5340.349)" fill="#b0c2e5"/>
      <g id="Grupo_1114814" data-name="Grupo 1114814">
        <path id="Trazado_875775" data-name="Trazado 875775" d="M245.6,315.389a1.6,1.6,0,0,1-1.6-1.6v-4.8a8.009,8.009,0,0,1,8-8h38.08a11.213,11.213,0,0,0,11.2-11.2v-38.01a8.009,8.009,0,0,1,8-8h4.8a1.6,1.6,0,1,1,0,3.2h-4.8a4.806,4.806,0,0,0-4.8,4.8v38.01a14.417,14.417,0,0,1-14.4,14.4H252a4.806,4.806,0,0,0-4.8,4.8v4.8a1.6,1.6,0,0,1-1.6,1.6" transform="translate(194.014 5144.519)" fill="#12263f"/>
        <path id="Trazado_875777" data-name="Trazado 875777" d="M245.6,315.389a1.6,1.6,0,0,1-1.6-1.6v-4.8a8.009,8.009,0,0,1,8-8h38.08a11.213,11.213,0,0,0,11.2-11.2v-38.01a8.009,8.009,0,0,1,8-8h4.8a1.6,1.6,0,1,1,0,3.2h-4.8a4.806,4.806,0,0,0-4.8,4.8v38.01a14.417,14.417,0,0,1-14.4,14.4H252a4.806,4.806,0,0,0-4.8,4.8v4.8a1.6,1.6,0,0,1-1.6,1.6" transform="translate(702.344 5652.389) rotate(180)" fill="#12263f"/>
      </g>
    </g>
    <g id="Grupo_1115306" data-name="Grupo 1115306" transform="translate(1125 2642.581)">
      <g id="Grupo_1115305" data-name="Grupo 1115305" clip-path="url(#clip-path)">
        <path id="Trazado_876396" data-name="Trazado 876396" d="M1.277,28.7a1.541,1.541,0,0,1,.633-3.016l53.676.006a1.569,1.569,0,0,1,1.407,2.439,5.511,5.511,0,0,1-.982.572h-20.5l6.431,15.57,14.236.145c1.76.387.88,2.744.261,2.744H43.24L54.293,74.2c.335.4,1.408.116,2.05.311a1.443,1.443,0,0,1,.2,2.581L1.479,77.22a1.4,1.4,0,0,1-.371-2.758c.564-.12,1.554.142,1.887-.259L14.049,47.156H.848c-.619,0-1.5-2.357.261-2.744l14.236-.145L21.776,28.7ZM6.107,74.416h5.9L17.748,61.7c7.218-.263,14.574-.263,21.792,0l.526.547c1.844,4,3.2,8.27,5.213,12.173h5.9l-18.7-45.694-7.572-.038Zm35.845,0L37.738,64.357l-18.332.07-4.07,9.989Z" transform="translate(-0.033 -20.157)" fill="#12263f"/>
        <path id="Trazado_876397" data-name="Trazado 876397" d="M.86,0,56.51.067a1.451,1.451,0,0,1-.951,2.688H1.663A1.447,1.447,0,0,1,.86,0" transform="translate(0)" fill="#12263f"/>
        <path id="Trazado_876398" data-name="Trazado 876398" d="M96.128,96.685c-.7-.666-.288-1.47-.057-2.2,1.62-5.126,4.7-10.323,6.4-15.494a1.47,1.47,0,0,1,2.662,0c1.762,4.774,4.037,9.363,5.853,14.109.55,1.436,1.793,3.311-.411,3.868-4.312-.3-9.073.364-13.328,0a1.925,1.925,0,0,1-1.116-.279m3.165-2.52h9.015L103.7,83.646Z" transform="translate(-75.189 -61.37)" fill="#12263f"/>
      </g>
    </g>
  </g>
</svg>
