<svg id="Grupo_1115329" data-name="Grupo 1115329" xmlns="http://www.w3.org/2000/svg" xmlns:xlink="http://www.w3.org/1999/xlink" width="472.706" height="254.627" viewBox="0 0 472.706 254.627">
  <defs>
    <clipPath id="clip-path">
      <rect id="Rectángulo_413297" data-name="Rectángulo 413297" width="472.706" height="254.627" fill="none"/>
    </clipPath>
  </defs>
  <g id="Grupo_1115328" data-name="Grupo 1115328" clip-path="url(#clip-path)">
    <path id="Trazado_876462" data-name="Trazado 876462" d="M159.064,290.44h3.312v-2.4H39.133a5.6,5.6,0,0,0-5.69,5.495v19.555a5.6,5.6,0,0,0,5.69,5.494H162.376v-2.4h-3.312Z" transform="translate(-11.01 -94.823)" fill="#e66f55"/>
    <path id="Trazado_876463" data-name="Trazado 876463" d="M189.6,291.619H129.384a4.473,4.473,0,0,0-4.56,4.379v16.981a4.473,4.473,0,0,0,4.56,4.38H189.6Z" transform="translate(-41.092 -96.002)" fill="#fff"/>
    <path id="Trazado_876464" data-name="Trazado 876464" d="M126.08,318.6a5.829,5.829,0,0,1-5.916-5.725V293.7a5.829,5.829,0,0,1,5.916-5.724v.671a5.158,5.158,0,0,0-5.245,5.053v19.181a5.158,5.158,0,0,0,5.245,5.054Z" transform="translate(-39.558 -94.802)" fill="#b53726"/>
    <rect id="Rectángulo_413217" data-name="Rectángulo 413217" width="60.39" height="0.671" transform="translate(88.114 198.616)" fill="#eacfc5"/>
    <rect id="Rectángulo_413218" data-name="Rectángulo 413218" width="60.39" height="0.671" transform="translate(88.114 217.686)" fill="#eacfc5"/>
    <rect id="Rectángulo_413219" data-name="Rectángulo 413219" width="57.704" height="0.671" transform="translate(90.801 210.464)" fill="#eacfc5"/>
    <rect id="Rectángulo_413220" data-name="Rectángulo 413220" width="48.9" height="0.671" transform="translate(99.605 213.061)" fill="#eacfc5"/>
    <rect id="Rectángulo_413221" data-name="Rectángulo 413221" width="36.936" height="0.671" transform="translate(111.569 205.016)" fill="#eacfc5"/>
    <path id="Trazado_876465" data-name="Trazado 876465" d="M88.24,315.842H46.025V296.881H88.24ZM46.7,315.171H87.569V297.552H46.7Z" transform="translate(-15.152 -97.734)" fill="#b53726"/>
    <path id="Trazado_876466" data-name="Trazado 876466" d="M547.337,361.7h-3.312v2.4h97.726a5.594,5.594,0,0,0,5.689-5.494V339.049a5.594,5.594,0,0,0-5.689-5.495H544.025v2.4h3.312Z" transform="translate(-179.095 -109.807)" fill="#bfb685"/>
    <path id="Trazado_876467" data-name="Trazado 876467" d="M548.291,362.876H608.5a4.473,4.473,0,0,0,4.561-4.379V341.517a4.473,4.473,0,0,0-4.561-4.38H548.291Z" transform="translate(-180.499 -110.987)" fill="#fff"/>
    <path id="Trazado_876468" data-name="Trazado 876468" d="M640.693,364.12v-.671a5.158,5.158,0,0,0,5.245-5.053V339.215a5.158,5.158,0,0,0-5.245-5.054v-.671a5.829,5.829,0,0,1,5.916,5.725V358.4a5.829,5.829,0,0,1-5.916,5.724" transform="translate(-210.918 -109.786)" fill="#93854c"/>
    <rect id="Rectángulo_413222" data-name="Rectángulo 413222" width="60.39" height="0.671" transform="translate(367.792 248.219)" fill="#eacfc5"/>
    <rect id="Rectángulo_413223" data-name="Rectángulo 413223" width="52.012" height="0.671" transform="translate(367.792 239.017)" fill="#eacfc5"/>
    <rect id="Rectángulo_413224" data-name="Rectángulo 413224" width="48.9" height="0.671" transform="translate(367.792 229.349)" fill="#eacfc5"/>
    <rect id="Rectángulo_413225" data-name="Rectángulo 413225" width="55.56" height="0.671" transform="translate(367.791 232.42)" fill="#eacfc5"/>
    <path id="Trazado_876469" data-name="Trazado 876469" d="M18.162,362.876H74.8c2.827,0,5.119-1.961,5.119-4.379V341.517c0-2.419-2.292-4.38-5.119-4.38H18.162Z" transform="translate(-5.979 -110.987)" fill="#fff"/>
    <path id="Trazado_876470" data-name="Trazado 876470" d="M169.636,333.555H14.57v3H63.039a12.272,12.272,0,0,1-.066,24.543H14.57v3H169.553a15.272,15.272,0,1,0,.083-30.544" transform="translate(-4.796 -109.807)" fill="#7a94cc"/>
    <path id="Trazado_876471" data-name="Trazado 876471" d="M87.525,364.124v-.671a14.651,14.651,0,0,0,.08-29.3v-.671a15.321,15.321,0,0,1-.08,30.643" transform="translate(-28.814 -109.783)" fill="#516fa5"/>
    <rect id="Rectángulo_413226" data-name="Rectángulo 413226" width="47.374" height="0.671" transform="translate(12.184 248.219)" fill="#eacfc5"/>
    <rect id="Rectángulo_413227" data-name="Rectángulo 413227" width="47.374" height="0.671" transform="translate(12.184 233.784)" fill="#eacfc5"/>
    <rect id="Rectángulo_413228" data-name="Rectángulo 413228" width="24.724" height="0.671" transform="translate(12.183 230.918)" fill="#eacfc5"/>
    <path id="Trazado_876472" data-name="Trazado 876472" d="M611.3,259.1H527.923a3.338,3.338,0,0,1-3.335-3.184l-6.138-145.032a3.339,3.339,0,0,1,3.335-3.494h95.657a3.339,3.339,0,0,1,3.335,3.494l-6.138,145.032A3.339,3.339,0,0,1,611.3,259.1" transform="translate(-170.674 -35.353)" fill="#fff"/>
    <path id="Trazado_876473" data-name="Trazado 876473" d="M617.758,243.058l3.369-69.781a1.952,1.952,0,0,0-1.95-2.046h-99.8a1.952,1.952,0,0,0-1.95,2.046l3.369,69.781a1.952,1.952,0,0,0,1.949,1.858h93.061a1.952,1.952,0,0,0,1.95-1.858" transform="translate(-170.338 -56.37)" fill="#e66f55"/>
    <path id="Trazado_876474" data-name="Trazado 876474" d="M583.261,238.049a23.358,23.358,0,1,1,23.358-23.359,23.385,23.385,0,0,1-23.358,23.359m0-46.046a22.688,22.688,0,1,0,22.687,22.687A22.713,22.713,0,0,0,583.261,192" transform="translate(-184.322 -62.987)" fill="#b53726"/>
    <path id="Trazado_876475" data-name="Trazado 876475" d="M620.762,122.123H512.98a2.864,2.864,0,0,1-2.857-3.064l.942-11.5a2.865,2.865,0,0,1,2.858-2.665h105.9a2.865,2.865,0,0,1,2.858,2.665l.942,11.5a2.864,2.864,0,0,1-2.857,3.064" transform="translate(-167.932 -34.533)" fill="#703232"/>
    <path id="Trazado_876476" data-name="Trazado 876476" d="M612.2,100.875H536.077a3.892,3.892,0,0,1-3.867-4.327l1.807-16.059a3.892,3.892,0,0,1,3.867-3.456h72.5a3.892,3.892,0,0,1,3.867,3.456l1.807,16.059a3.892,3.892,0,0,1-3.867,4.327" transform="translate(-175.197 -25.36)" fill="#703232"/>
    <rect id="Rectángulo_413229" data-name="Rectángulo 413229" width="83.785" height="0.671" transform="translate(356.988 70.03)" fill="#4c0c09"/>
    <path id="Trazado_876477" data-name="Trazado 876477" d="M540.773,289.8a5.742,5.742,0,0,0-4.765-2.54H482.725a5.743,5.743,0,0,0-4.766,2.54l-22.353,33.27a5.741,5.741,0,0,0,.268,6.77l13.37,16.847a5.74,5.74,0,0,0,4.5,2.173h71.251a5.742,5.742,0,0,0,4.5-2.173l13.37-16.847a5.741,5.741,0,0,0,.268-6.77Z" transform="translate(-149.666 -94.566)" fill="#703232"/>
    <path id="Trazado_876478" data-name="Trazado 876478" d="M590.453,323.068,571.6,289.8a4.691,4.691,0,0,0-4.019-2.539H563.2a3.791,3.791,0,0,1,3.236,2.539l15.177,33.27a8.005,8.005,0,0,1-.182,6.77l-9.078,16.847a3.631,3.631,0,0,1-3.053,2.173h5.861a4.607,4.607,0,0,0,3.793-2.173l11.277-16.847a6.613,6.613,0,0,0,.226-6.77" transform="translate(-185.406 -94.567)" fill="#935858"/>
    <rect id="Rectángulo_413230" data-name="Rectángulo 413230" width="35.9" height="10.505" transform="translate(341.751 182.187)" fill="#703232"/>
    <rect id="Rectángulo_413231" data-name="Rectángulo 413231" width="109.472" height="0.671" transform="translate(304.965 231.649)" fill="#4c0c09"/>
    <rect id="Rectángulo_413232" data-name="Rectángulo 413232" width="35.9" height="0.671" transform="translate(341.75 192.357)" fill="#4c0c09"/>
    <rect id="Rectángulo_413233" data-name="Rectángulo 413233" width="35.9" height="0.671" transform="translate(341.75 190.173)" fill="#4c0c09"/>
    <rect id="Rectángulo_413234" data-name="Rectángulo 413234" width="35.9" height="0.671" transform="translate(341.75 187.991)" fill="#4c0c09"/>
    <rect id="Rectángulo_413235" data-name="Rectángulo 413235" width="35.9" height="0.671" transform="translate(341.75 185.808)" fill="#4c0c09"/>
    <rect id="Rectángulo_413236" data-name="Rectángulo 413236" width="35.9" height="0.671" transform="translate(341.75 183.625)" fill="#4c0c09"/>
    <path id="Trazado_876479" data-name="Trazado 876479" d="M547.213,271.237v5.827a2.425,2.425,0,0,0,2.218,2.473,2.323,2.323,0,0,0,2.428-2.321V271.2a.763.763,0,0,0-.763-.763h-3.086a.8.8,0,0,0-.8.8" transform="translate(-180.144 -89.029)" fill="#4c0c09"/>
    <path id="Trazado_876480" data-name="Trazado 876480" d="M518.318,271.232v5.832a2.426,2.426,0,0,0,2.218,2.473,2.323,2.323,0,0,0,2.428-2.321V274.56a2.425,2.425,0,0,1,2.218-2.473,2.323,2.323,0,0,1,2.428,2.321v.052a2.425,2.425,0,0,0,2.218,2.473,2.323,2.323,0,0,0,2.428-2.321v-3.426a.747.747,0,0,0-.747-.747h-12.4a.793.793,0,0,0-.793.793" transform="translate(-170.632 -89.029)" fill="#4c0c09"/>
    <path id="Trazado_876481" data-name="Trazado 876481" d="M534.476,305.692h0a2.334,2.334,0,0,1-2.334-2.334v-4.663a2.334,2.334,0,1,1,4.667,0v4.663a2.334,2.334,0,0,1-2.334,2.334" transform="translate(-175.183 -97.563)" fill="#4c0c09"/>
    <path id="Trazado_876482" data-name="Trazado 876482" d="M372.316,0H193.23a17.64,17.64,0,0,1,17.628,17.041l.016.015V236.442A17.629,17.629,0,0,0,228.5,254.071H390.02V17.7A17.7,17.7,0,0,0,372.316,0" transform="translate(-63.612)" fill="#fff"/>
    <path id="Trazado_876483" data-name="Trazado 876483" d="M123.065,107.6a17.641,17.641,0,0,0,17.629-17.056V41.617H87.807L105.436,65.74V90.546A17.641,17.641,0,0,0,123.065,107.6" transform="translate(-28.906 -13.7)" fill="#fff"/>
    <path id="Trazado_876484" data-name="Trazado 876484" d="M79.155,41.617A17.641,17.641,0,0,0,61.526,58.673V78.285H96.784V58.673A17.64,17.64,0,0,0,79.155,41.617" transform="translate(-20.255 -13.7)" fill="#eacfc5"/>
    <path id="Trazado_876485" data-name="Trazado 876485" d="M175.626.3A17.641,17.641,0,0,0,158,17.357V76.98l0,0A17.64,17.64,0,0,1,140.368,94h52.887V17.357A17.641,17.641,0,0,0,175.626.3" transform="translate(-46.21 -0.099)" fill="#eacfc5"/>
    <rect id="Rectángulo_413237" data-name="Rectángulo 413237" width="71.464" height="0.671" transform="translate(201.836 21.203)" fill="#eacfc5"/>
    <rect id="Rectángulo_413238" data-name="Rectángulo 413238" width="25.963" height="0.671" transform="translate(220.703 41.65)" fill="#eacfc5"/>
    <rect id="Rectángulo_413239" data-name="Rectángulo 413239" width="47.52" height="0.671" transform="translate(162.017 41.65)" fill="#eacfc5"/>
    <rect id="Rectángulo_413240" data-name="Rectángulo 413240" width="59.862" height="0.671" transform="translate(186.803 52.949)" fill="#eacfc5"/>
    <rect id="Rectángulo_413241" data-name="Rectángulo 413241" width="17.522" height="0.671" transform="translate(162.017 52.949)" fill="#eacfc5"/>
    <rect id="Rectángulo_413242" data-name="Rectángulo 413242" width="21.389" height="0.671" transform="translate(225.276 64.249)" fill="#eacfc5"/>
    <rect id="Rectángulo_413243" data-name="Rectángulo 413243" width="55.592" height="0.671" transform="translate(162.017 64.249)" fill="#eacfc5"/>
    <rect id="Rectángulo_413244" data-name="Rectángulo 413244" width="50.445" height="0.671" transform="translate(196.22 75.548)" fill="#eacfc5"/>
    <rect id="Rectángulo_413245" data-name="Rectángulo 413245" width="26.132" height="0.671" transform="translate(162.017 75.548)" fill="#eacfc5"/>
    <rect id="Rectángulo_413246" data-name="Rectángulo 413246" width="20.716" height="0.671" transform="translate(290.519 98.148)" fill="#eacfc5"/>
    <rect id="Rectángulo_413247" data-name="Rectángulo 413247" width="54.919" height="0.671" transform="translate(226.587 98.148)" fill="#eacfc5"/>
    <rect id="Rectángulo_413248" data-name="Rectángulo 413248" width="48.427" height="0.671" transform="translate(262.808 109.448)" fill="#eacfc5"/>
    <rect id="Rectángulo_413249" data-name="Rectángulo 413249" width="24.517" height="0.671" transform="translate(226.587 109.448)" fill="#eacfc5"/>
    <rect id="Rectángulo_413250" data-name="Rectángulo 413250" width="28.384" height="0.671" transform="translate(282.851 120.747)" fill="#eacfc5"/>
    <rect id="Rectángulo_413251" data-name="Rectángulo 413251" width="47.655" height="0.671" transform="translate(226.587 120.747)" fill="#eacfc5"/>
    <rect id="Rectángulo_413252" data-name="Rectángulo 413252" width="47.083" height="0.671" transform="translate(264.152 132.048)" fill="#eacfc5"/>
    <rect id="Rectángulo_413253" data-name="Rectángulo 413253" width="30.84" height="0.671" transform="translate(226.587 132.048)" fill="#eacfc5"/>
    <rect id="Rectángulo_413254" data-name="Rectángulo 413254" width="18.652" height="0.671" transform="translate(228.013 154.647)" fill="#eacfc5"/>
    <rect id="Rectángulo_413255" data-name="Rectángulo 413255" width="57.744" height="0.671" transform="translate(162.017 154.647)" fill="#eacfc5"/>
    <rect id="Rectángulo_413256" data-name="Rectángulo 413256" width="53.405" height="0.671" transform="translate(193.26 165.947)" fill="#eacfc5"/>
    <rect id="Rectángulo_413257" data-name="Rectángulo 413257" width="21.423" height="0.671" transform="translate(162.017 165.947)" fill="#eacfc5"/>
    <rect id="Rectángulo_413258" data-name="Rectángulo 413258" width="30.268" height="0.671" transform="translate(216.398 177.247)" fill="#eacfc5"/>
    <rect id="Rectángulo_413259" data-name="Rectángulo 413259" width="46.579" height="0.671" transform="translate(162.017 177.247)" fill="#eacfc5"/>
    <rect id="Rectángulo_413260" data-name="Rectángulo 413260" width="51.791" height="0.671" transform="translate(194.874 188.546)" fill="#eacfc5"/>
    <rect id="Rectángulo_413261" data-name="Rectángulo 413261" width="25.19" height="0.671" transform="translate(162.017 188.546)" fill="#eacfc5"/>
    <rect id="Rectángulo_413262" data-name="Rectángulo 413262" width="27.846" height="0.671" transform="translate(283.389 210.944)" fill="#eacfc5"/>
    <rect id="Rectángulo_413263" data-name="Rectángulo 413263" width="22.146" height="0.671" transform="translate(248.732 210.944)" fill="#eacfc5"/>
    <rect id="Rectángulo_413264" data-name="Rectángulo 413264" width="16.715" height="0.671" transform="translate(226.587 210.944)" fill="#eacfc5"/>
    <path id="Trazado_876486" data-name="Trazado 876486" d="M424.882,330.1H263.206v15.585a17.64,17.64,0,0,1-17.629,17.056H424.882a17.641,17.641,0,0,0,17.629-17.056V330.1Z" transform="translate(-80.845 -108.67)" fill="#f7e7e2"/>
    <path id="Trazado_876487" data-name="Trazado 876487" d="M485.31,370.652H444.725a1.5,1.5,0,0,1-1.5-1.5V354.964a1.5,1.5,0,0,1,1.5-1.5H485.31a1.5,1.5,0,0,1,1.5,1.5v14.187a1.5,1.5,0,0,1-1.5,1.5" transform="translate(-145.91 -116.361)" fill="#efb05e"/>
    <rect id="Rectángulo_413265" data-name="Rectángulo 413265" width="0.671" height="12.757" transform="translate(300.183 239.352)" fill="#d38931"/>
    <rect id="Rectángulo_413266" data-name="Rectángulo 413266" width="0.671" height="12.757" transform="translate(303.9 239.352)" fill="#d38931"/>
    <rect id="Rectángulo_413267" data-name="Rectángulo 413267" width="0.671" height="12.757" transform="translate(307.618 239.352)" fill="#d38931"/>
    <rect id="Rectángulo_413268" data-name="Rectángulo 413268" width="0.671" height="12.757" transform="translate(311.336 239.352)" fill="#d38931"/>
    <rect id="Rectángulo_413269" data-name="Rectángulo 413269" width="0.671" height="12.757" transform="translate(315.054 239.352)" fill="#d38931"/>
    <rect id="Rectángulo_413270" data-name="Rectángulo 413270" width="0.671" height="12.757" transform="translate(318.772 239.352)" fill="#d38931"/>
    <rect id="Rectángulo_413271" data-name="Rectángulo 413271" width="0.671" height="12.757" transform="translate(322.489 239.352)" fill="#d38931"/>
    <rect id="Rectángulo_413272" data-name="Rectángulo 413272" width="0.671" height="12.757" transform="translate(326.207 239.352)" fill="#d38931"/>
    <rect id="Rectángulo_413273" data-name="Rectángulo 413273" width="0.671" height="12.757" transform="translate(329.925 239.352)" fill="#d38931"/>
    <rect id="Rectángulo_413274" data-name="Rectángulo 413274" width="0.671" height="12.757" transform="translate(333.643 239.352)" fill="#d38931"/>
    <rect id="Rectángulo_413275" data-name="Rectángulo 413275" width="0.671" height="12.757" transform="translate(337.361 239.352)" fill="#d38931"/>
    <path id="Trazado_876488" data-name="Trazado 876488" d="M138.563,56h2.212a1.657,1.657,0,0,1,1.564,1.736V84.366a.517.517,0,0,1-.488.542h-.9a.524.524,0,0,1-.5-.549V77.352h.8V59h-2.938Z" transform="translate(-45.534 -18.437)" fill="#efb05e"/>
    <path id="Trazado_876489" data-name="Trazado 876489" d="M124.895,94.276l1.237-46.318a.868.868,0,0,1,.751-.93h7.148a.868.868,0,0,1,.751.93l1.237,46.318a.886.886,0,0,1-.751,1h-9.622a.886.886,0,0,1-.751-1" transform="translate(-41.116 -15.482)" fill="#703232"/>
    <path id="Trazado_876490" data-name="Trazado 876490" d="M135.469,56.39H126.5l.041-1.515h8.883Z" transform="translate(-41.646 -18.065)" fill="#efb05e"/>
    <path id="Trazado_876491" data-name="Trazado 876491" d="M135.352,47.958l.075,2.811h-8.8l.075-2.811a.869.869,0,0,1,.752-.93H134.6a.869.869,0,0,1,.751.93" transform="translate(-41.686 -15.482)" fill="#efb05e"/>
    <path id="Trazado_876492" data-name="Trazado 876492" d="M127.422,224.7,126,197.412h9.635L134.223,224.7c-.036.688-.442,1.22-.93,1.22h-4.94c-.488,0-.895-.532-.93-1.22" transform="translate(-41.481 -64.989)" fill="#703232"/>
    <path id="Trazado_876493" data-name="Trazado 876493" d="M128.649,35.008l-.59,7.44h6.88l-.591-7.44a1.86,1.86,0,0,0-1.633-1.89h-2.432a1.86,1.86,0,0,0-1.633,1.89" transform="translate(-42.157 -10.903)" fill="#703232"/>
    <path id="Trazado_876494" data-name="Trazado 876494" d="M135.124,249.923a19.788,19.788,0,0,0-3.557,7.74,19.788,19.788,0,0,0-3.557-7.74,73.3,73.3,0,0,0,1.256-10.018h4.6a70.645,70.645,0,0,0,1.256,10.018" transform="translate(-42.142 -78.978)" fill="#efb05e"/>
    <rect id="Rectángulo_413276" data-name="Rectángulo 413276" width="0.671" height="9.927" transform="translate(89.09 168.757)" fill="#703232"/>
    <path id="Trazado_876495" data-name="Trazado 876495" d="M132.848,251.086a1.023,1.023,0,1,1,.862-1.011.947.947,0,0,1-.862,1.011m0-1.35c-.078,0-.192.132-.192.339s.113.34.192.34.191-.133.191-.34-.113-.339-.191-.339" transform="translate(-43.45 -81.993)" fill="#703232"/>
    <rect id="Rectángulo_413277" data-name="Rectángulo 413277" width="9.635" height="52.633" transform="translate(84.524 79.791)" fill="#efb05e"/>
    <path id="Trazado_876496" data-name="Trazado 876496" d="M126.219,247.616v-3.128h-.17a.826.826,0,0,1-.826-.826v-.182a.826.826,0,0,1,.826-.826h.17v-1.667h-.17a.827.827,0,0,1-.826-.826v-.182a.827.827,0,0,1,.826-.826h7.679a.827.827,0,0,1,.826.826v.182a.827.827,0,0,1-.826.826h-.17v1.667h.17a.826.826,0,0,1,.826.826v.182a.826.826,0,0,1-.826.826h-.17v3.128l3.355,6.949v2.391H122.864v-2.391Z" transform="translate(-40.447 -78.729)" fill="#efb05e"/>
    <rect id="Rectángulo_413278" data-name="Rectángulo 413278" width="7.34" height="0.671" transform="translate(85.772 161.922)" fill="#d38931"/>
    <rect id="Rectángulo_413279" data-name="Rectángulo 413279" width="7.34" height="0.671" transform="translate(85.772 163.523)" fill="#d38931"/>
    <rect id="Rectángulo_413280" data-name="Rectángulo 413280" width="7.34" height="0.671" transform="translate(85.772 165.39)" fill="#d38931"/>
    <rect id="Rectángulo_413281" data-name="Rectángulo 413281" width="7.34" height="0.671" transform="translate(85.772 168.46)" fill="#d38931"/>
    <rect id="Rectángulo_413282" data-name="Rectángulo 413282" width="14.051" height="0.671" transform="translate(82.417 175.623)" fill="#d38931"/>
    <rect id="Rectángulo_413283" data-name="Rectángulo 413283" width="59.617" height="6.89" transform="translate(59.589 178.227)" fill="#703232"/>
    <rect id="Rectángulo_413284" data-name="Rectángulo 413284" width="70.88" height="5.437" transform="translate(53.958 187.777)" fill="#703232"/>
    <path id="Trazado_876497" data-name="Trazado 876497" d="M86.069,275.965h59.617l5.632,2.66H80.437Z" transform="translate(-26.48 -90.849)" fill="#703232"/>
    <rect id="Rectángulo_413285" data-name="Rectángulo 413285" width="59.617" height="0.671" transform="translate(59.589 184.781)" fill="#4c0c09"/>
    <rect id="Rectángulo_413286" data-name="Rectángulo 413286" width="70.881" height="0.671" transform="translate(53.957 187.441)" fill="#4c0c09"/>
    <path id="Trazado_876498" data-name="Trazado 876498" d="M276.963,347.2,275.6,364.169H263.69l1.362-16.964Z" transform="translate(-86.808 -114.301)" fill="#ea9e6a"/>
    <path id="Trazado_876499" data-name="Trazado 876499" d="M263.216,366.172l-.706,7.8h32.772l-1.891-3.519a9.548,9.548,0,0,0-6.467-4.828l-10.941-2.077Z" transform="translate(-86.419 -119.682)" fill="#e66f55"/>
    <path id="Trazado_876500" data-name="Trazado 876500" d="M193.214,347.2l-5.376,16.964h11.912l5.376-16.964Z" transform="translate(-61.837 -114.301)" fill="#ea9e6a"/>
    <path id="Trazado_876501" data-name="Trazado 876501" d="M193.221,366.172l-1,7.8h-30.1l1.891-3.519a9.547,9.547,0,0,1,6.467-4.828l10.228-2.077Z" transform="translate(-53.37 -119.682)" fill="#e66f55"/>
    <path id="Trazado_876502" data-name="Trazado 876502" d="M215.815,173.649,185.861,297.576h19.631l31.591-99.8-2.05,99.8h18.45l11-129.309Z" transform="translate(-61.186 -55.394)" fill="#703232"/>
    <path id="Trazado_876503" data-name="Trazado 876503" d="M400.57,87.834l-.022-.066a1.658,1.658,0,0,0-2.088-1.054l2.5-.831a1.658,1.658,0,0,0,1.051-2.1l-.022-.067a1.659,1.659,0,0,0-2.1-1.051L401,82.3a1.658,1.658,0,0,0,1.051-2.1l-.022-.066a1.658,1.658,0,0,0-2.1-1.051l-1.1.366a1.658,1.658,0,0,0,1.051-2.1l-.022-.067a1.658,1.658,0,0,0-2.1-1.051l-.738.246-6.295,2.09L385.219,80.4l.815-3.648c.5-1.772-.126-2.732-1.4-3.227l-5.262,7.3A8.524,8.524,0,0,0,378.2,88.5l.636,1.913a6.063,6.063,0,0,0,7.664,3.844l5.989-1.989,6.452-2.143.58-.193a1.658,1.658,0,0,0,1.051-2.1" transform="translate(-124.361 -24.206)" fill="#ea9e6a"/>
    <path id="Trazado_876504" data-name="Trazado 876504" d="M396.389,85.382l-.211-.637,8.606-2.858.211.637Z" transform="translate(-130.423 -26.957)" fill="#cc7133"/>
    <path id="Trazado_876505" data-name="Trazado 876505" d="M397.98,90.173l-.211-.637,8.606-2.858.211.637Z" transform="translate(-130.947 -28.535)" fill="#cc7133"/>
    <path id="Trazado_876506" data-name="Trazado 876506" d="M399.576,95.337l-.211-.637,6.418-2.132.211.637Z" transform="translate(-131.473 -30.474)" fill="#cc7133"/>
    <path id="Trazado_876507" data-name="Trazado 876507" d="M385.971,89.879l-.347-.574a4.309,4.309,0,0,0,1.876-5.458l.614-.269a5.034,5.034,0,0,1-2.144,6.3" transform="translate(-126.949 -27.514)" fill="#cc7133"/>
    <rect id="Rectángulo_413287" data-name="Rectángulo 413287" width="14.45" height="20.987" transform="translate(172.778 34.343)" fill="#ea9e6a"/>
    <path id="Trazado_876508" data-name="Trazado 876508" d="M326.069,116.827h0a10.155,10.155,0,0,1,3.227-13.995l31.059-16.84,8.808,13.128-29.1,20.933a10.156,10.156,0,0,1-13.995-3.227" transform="translate(-106.834 -28.309)" fill="#7a94cc"/>
    <path id="Trazado_876509" data-name="Trazado 876509" d="M328.922,113.067h0a10.155,10.155,0,0,1-14.362-.062l-26.172-26.4a10.156,10.156,0,1,1,14.424-14.3l26.171,26.4a10.156,10.156,0,0,1-.062,14.362" transform="translate(-93.969 -22.814)" fill="#7a94cc"/>
    <path id="Trazado_876510" data-name="Trazado 876510" d="M201.4,124.64h0a10.156,10.156,0,0,1-4.551-13.622l17.784-35.631a10.156,10.156,0,0,1,18.173,9.071l-17.784,35.631A10.156,10.156,0,0,1,201.4,124.64" transform="translate(-64.452 -22.967)" fill="#7a94cc"/>
    <path id="Trazado_876511" data-name="Trazado 876511" d="M260.417,65.612c-4.068,2.574-9.924,2.11-14.433,0l-15.3,2.862a10.7,10.7,0,0,0-8.355,10.913l1.9,63.268a2.547,2.547,0,0,0,2.546,2.47h48.762a1.4,1.4,0,0,0,1.4-1.253L284.057,78.2a10.1,10.1,0,0,0-8.326-10.285Z" transform="translate(-73.188 -21.6)" fill="#7a94cc"/>
    <rect id="Rectángulo_413288" data-name="Rectángulo 413288" width="5.965" height="0.67" transform="matrix(0.172, -0.985, 0.985, 0.172, 228.338, 76.424)" fill="#516fa5"/>
    <path id="Trazado_876512" data-name="Trazado 876512" d="M262.688,41.11l-.718.111a12.927,12.927,0,0,1-14.744-10.807l-1.34-8.695A12.927,12.927,0,0,1,256.694,6.975l.718-.111a12.926,12.926,0,0,1,14.743,10.808l1.34,8.694A12.926,12.926,0,0,1,262.688,41.11" transform="translate(-80.896 -2.21)" fill="#703232"/>
    <path id="Trazado_876513" data-name="Trazado 876513" d="M270.094,27.531l-.366-2.97c-6.219,3.258-16.2,3.9-21.39-.626l1.046,6.786a3.81,3.81,0,0,0,1.16,7.531l.36,2.338a10.477,10.477,0,0,0,20.71-3.19l-.36-2.338a3.81,3.81,0,0,0-1.16-7.531" transform="translate(-81.035 -7.879)" fill="#ea9e6a"/>
    <path id="Trazado_876514" data-name="Trazado 876514" d="M265.429,60.908a10.713,10.713,0,0,1-6.522-2.214l.406-.533a10.146,10.146,0,0,0,12.915-.516l.448.5a10.778,10.778,0,0,1-5.572,2.635,10.971,10.971,0,0,1-1.675.129" transform="translate(-85.233 -18.977)" fill="#cc7133"/>
    <path id="Trazado_876515" data-name="Trazado 876515" d="M259.156,36.911a.8.8,0,1,1-.916-.671.8.8,0,0,1,.916.671" transform="translate(-84.79 -11.927)" fill="#703232"/>
    <path id="Trazado_876516" data-name="Trazado 876516" d="M275.832,34.341a.8.8,0,1,1-.916-.671.8.8,0,0,1,.916.671" transform="translate(-90.279 -11.081)" fill="#703232"/>
    <path id="Trazado_876517" data-name="Trazado 876517" d="M269.09,49.391a2.059,2.059,0,0,1-1.028-.272l.337-.58a1.4,1.4,0,0,0,.91.165,1.377,1.377,0,0,0,.891-.519l.533.408a2.048,2.048,0,0,1-1.323.774,2.159,2.159,0,0,1-.321.024" transform="translate(-88.247 -15.863)" fill="#cc7133"/>
    <path id="Trazado_876518" data-name="Trazado 876518" d="M266.866,46.374a5.03,5.03,0,0,1-2.515-.665l.335-.58a4.409,4.409,0,0,0,2.867.522,4.337,4.337,0,0,0,2.808-1.637l.533.408a5.011,5.011,0,0,1-3.239,1.892,5.139,5.139,0,0,1-.79.06" transform="translate(-87.025 -14.489)" fill="#cc7133"/>
    <path id="Trazado_876519" data-name="Trazado 876519" d="M268.066,39.229l-.36-.566a1.928,1.928,0,0,0,.538-2.74L266.8,33.89l.548-.388,1.44,2.033a2.6,2.6,0,0,1-.725,3.693" transform="translate(-87.832 -11.029)" fill="#cc7133"/>
    <path id="Trazado_876520" data-name="Trazado 876520" d="M255.961,34.31l-.382-.551a4.122,4.122,0,0,1,3.188-.657l-.119.661a3.433,3.433,0,0,0-2.687.547" transform="translate(-84.137 -10.872)" fill="#703232"/>
    <path id="Trazado_876521" data-name="Trazado 876521" d="M272.809,31.642l-.359-.567a3.791,3.791,0,0,1,3.243-.476l-.194.642a3.1,3.1,0,0,0-2.69.4" transform="translate(-89.692 -10.017)" fill="#703232"/>
    <rect id="Rectángulo_413289" data-name="Rectángulo 413289" width="0.671" height="3.056" transform="matrix(0.988, -0.152, 0.152, 0.988, 168.713, 27.403)" fill="#cc7133"/>
    <rect id="Rectángulo_413290" data-name="Rectángulo 413290" width="0.671" height="3.056" transform="translate(189.429 24.212) rotate(-8.761)" fill="#cc7133"/>
    <path id="Trazado_876522" data-name="Trazado 876522" d="M262.385,208.475l-.647-.177.959-3.5,10.734-4.309.25.622L263.257,205.3Z" transform="translate(-86.165 -66.003)" fill="#4c0c09"/>
    <path id="Trazado_876523" data-name="Trazado 876523" d="M304.17,121.91h-26a2.71,2.71,0,0,1-2.636-3.337L283.686,84.3h29.433Z" transform="translate(-90.681 -27.753)" fill="#fff"/>
    <path id="Trazado_876524" data-name="Trazado 876524" d="M308.92,135.932H282.985a3.024,3.024,0,0,1-3.023,2.974H305.9a3.024,3.024,0,0,0,3.023-2.974" transform="translate(-92.164 -44.749)" fill="#f7e7e2"/>
    <path id="Trazado_876525" data-name="Trazado 876525" d="M287.293,117.854v-.07a1.657,1.657,0,0,0-1.682-1.625h0l2.636-.051a1.658,1.658,0,0,0,1.626-1.69v-.07a1.658,1.658,0,0,0-1.69-1.626l1.16-.022a1.658,1.658,0,0,0,1.626-1.69v-.07a1.659,1.659,0,0,0-1.69-1.626l-1.16.022a1.658,1.658,0,0,0,1.626-1.69v-.07a1.658,1.658,0,0,0-1.69-1.626l-.777.015-6.632.127-3.866.074.647-2.678-5.494.446a5.29,5.29,0,0,0-4.531,3.43l-1.666,4.484.038,2.016a6.063,6.063,0,0,0,6.179,5.945l6.309-.121,6.8-.131.611-.012a1.658,1.658,0,0,0,1.626-1.69" transform="translate(-87.48 -34.068)" fill="#ea9e6a"/>
    <rect id="Rectángulo_413291" data-name="Rectángulo 413291" width="9.069" height="0.671" transform="matrix(1, -0.02, 0.02, 1, 191.563, 75.109)" fill="#cc7133"/>
    <rect id="Rectángulo_413292" data-name="Rectángulo 413292" width="9.068" height="0.671" transform="matrix(1, -0.02, 0.02, 1, 191.628, 78.495)" fill="#cc7133"/>
    <rect id="Rectángulo_413293" data-name="Rectángulo 413293" width="6.763" height="0.671" transform="matrix(1, -0.02, 0.02, 1, 191.693, 81.892)" fill="#cc7133"/>
    <path id="Trazado_876526" data-name="Trazado 876526" d="M196.558,130.486h0a10.156,10.156,0,0,0,12.893,6.329l39.782-15.295L243.8,104.849l-40.908,12.744a10.156,10.156,0,0,0-6.329,12.893" transform="translate(-64.527 -34.517)" fill="#7a94cc"/>
    <rect id="Rectángulo_413294" data-name="Rectángulo 413294" width="38.958" height="0.671" transform="translate(141.975 81.609) rotate(-17.331)" fill="#516fa5"/>
    <rect id="Rectángulo_413295" data-name="Rectángulo 413295" width="36.739" height="0.671" transform="matrix(0.934, -0.358, 0.358, 0.934, 150.287, 99.857)" fill="#516fa5"/>
    <rect id="Rectángulo_413296" data-name="Rectángulo 413296" width="472.706" height="0.671" transform="translate(0 253.956)" fill="#703232"/>
    <line id="Línea_3229" data-name="Línea 3229" y1="0.614" transform="translate(359.569 135.888)" fill="#e66f55"/>
  </g>
</svg>
