<svg xmlns="http://www.w3.org/2000/svg" xmlns:xlink="http://www.w3.org/1999/xlink" width="400" height="168" viewBox="0 0 400 168">
  <defs>
    <clipPath id="clip-path">
      <rect id="Rectángulo_413198" data-name="Rectángulo 413198" width="291.915" height="165.211" fill="none"/>
    </clipPath>
    <clipPath id="clip-path-3">
      <rect id="Rectángulo_413174" data-name="Rectángulo 413174" width="272.049" height="38.937" fill="#dbe4f4"/>
    </clipPath>
    <clipPath id="clip-path-5">
      <rect id="Rectángulo_413176" data-name="Rectángulo 413176" width="71.839" height="71.838" fill="none"/>
    </clipPath>
  </defs>
  <g id="Grupo_1115300" data-name="Grupo 1115300" transform="translate(-285 -1758)">
    <rect id="Rectángulo_412857" data-name="Rectángulo 412857" width="400" height="168" transform="translate(285 1758)" fill="none"/>
    <g id="Grupo_1115299" data-name="Grupo 1115299" transform="translate(339 1759)">
      <g id="Grupo_1115298" data-name="Grupo 1115298" clip-path="url(#clip-path)">
        <g id="Grupo_1115292" data-name="Grupo 1115292">
          <g id="Grupo_1115291" data-name="Grupo 1115291" clip-path="url(#clip-path)">
            <g id="Grupo_1115290" data-name="Grupo 1115290" transform="translate(10.191 126.274)">
              <g id="Grupo_1115289" data-name="Grupo 1115289">
                <g id="Grupo_1115288" data-name="Grupo 1115288" clip-path="url(#clip-path-3)">
                  <path id="Trazado_876284" data-name="Trazado 876284" d="M288.167,219.171c0,10.752-60.9,19.468-136.025,19.468S16.118,229.923,16.118,219.171,77.018,199.7,152.142,199.7s136.025,8.716,136.025,19.468" transform="translate(-16.118 -199.703)" fill="#dbe4f4"/>
                </g>
              </g>
            </g>
          </g>
        </g>
        <g id="Grupo_1115297" data-name="Grupo 1115297">
          <g id="Grupo_1115296" data-name="Grupo 1115296" clip-path="url(#clip-path)">
            <path id="Trazado_876285" data-name="Trazado 876285" d="M384.621,35.245q-.017,1.222-.076,2.446a74.313,74.313,0,0,1-2.715,16.4q-.373,1.32-.789,2.63a83.89,83.89,0,0,1-6.4,14.869q-.7,1.278-1.443,2.533a87.192,87.192,0,0,1-11.024,14.779q-1.044,1.13-2.13,2.218a79.054,79.054,0,0,1-18.388,13.829q-1.8.971-3.643,1.833-2.12,1-4.3,1.844c-1.841.713-4.78,1.981-7.265,1.977a4.942,4.942,0,0,1-2.223-.47,3.81,3.81,0,0,1-.4-.24c-3.538-2.423-1.691-11.342-1.054-14.958q.341-1.945.785-3.856.53-2.316,1.2-4.586a93.305,93.305,0,0,1,5.254-13.608q.737-1.563,1.529-3.1c.018-.037.038-.072.056-.109a148.3,148.3,0,0,1,7.7-13.153q.777-1.2,1.583-2.4c1.782-2.662,3.623-5.279,5.488-7.858q1-1.38,2-2.749l1.507-2.056c2.881-3.932,5.752-7.851,8.472-11.893q.719-1.066,1.42-2.143,1.094-1.674,2.138-3.382c1.643-2.685,3.208-5.42,4.647-8.216q.655-1.265,1.271-2.549.4-.838.787-1.681a103.1,103.1,0,0,0,4.261-9.636,1.463,1.463,0,0,1,.4-.621,1.485,1.485,0,0,1,2.264.327l.018.028a60.432,60.432,0,0,1,6.58,14.818q.339,1.165.629,2.337a64.141,64.141,0,0,1,1.855,16.393" transform="translate(-118.293 -0.352)" fill="#ecbf4c"/>
            <path id="Trazado_876286" data-name="Trazado 876286" d="M370.036,41.523q7.829-3.138,15.653-6.278-.017,1.223-.077,2.446-8.385,3.363-16.77,6.724A130.879,130.879,0,0,1,360.7,60.2q1.323-.278,2.646-.573,2.823-.635,5.626-1.356,7.045-1.813,13.927-4.175-.372,1.32-.788,2.63-1.639.55-3.287,1.065-6,1.886-12.114,3.359-3.008.727-6.037,1.353a12.458,12.458,0,0,1-1.58.305c-2.684,4.268-5.566,8.408-8.58,12.416-.082.11-.168.218-.25.328q12.765-1.743,25.454-3.958-.7,1.279-1.443,2.533-12.939,2.225-25.958,3.957c-2.952,3.773-6.018,7.472-8.9,11.3q11.9-.665,23.832-.477-1.044,1.13-2.13,2.218-11.716-.115-23.423.6a81.691,81.691,0,0,0-5.018,7.793c-.692,1.238-1.344,2.5-1.966,3.765.842.179,1.713.279,2.556.413q4.716.75,9.462,1.263-1.8.971-3.642,1.833-3.958-.5-7.892-1.167c-.511-.087-1-.17-1.451-.295q-1.189,2.6-2.223,5.282a4.938,4.938,0,0,1-2.224-.47c.8-2.066,1.652-4.111,2.579-6.12a3.317,3.317,0,0,1-.3-.706c-.592-2.021-1-4.117-1.49-6.164q-.732-3.032-1.462-6.064.529-2.316,1.2-4.586,1.11,4.608,2.222,9.217.641,2.649,1.281,5.3,1.275-2.5,2.734-4.915c1.115-1.834,2.31-3.612,3.552-5.355q-2.267-8.928-4.535-17.855.737-1.563,1.529-3.1,2.361,9.3,4.725,18.6c2.912-3.894,6.021-7.65,9.029-11.473q-2.8-10.254-6-20.39.777-1.2,1.582-2.4,3.274,10.224,6.135,20.576.919-1.2,1.812-2.405c2.528-3.437,4.95-6.958,7.227-10.57a6.265,6.265,0,0,1-.314-.744,187.965,187.965,0,0,0-7.371-17.463l1.507-2.056q1.833,3.725,3.5,7.533,2.231,5.112,4.144,10.357c2.26-3.733,4.357-7.561,6.244-11.5q.925-1.928,1.778-3.9-3.487-7.248-7.193-14.383.719-1.066,1.419-2.143,3.567,6.825,6.931,13.755a100.135,100.135,0,0,0,4.777-15.339,1.032,1.032,0,0,1-.287-.35q-2.316-4.831-4.635-9.664.654-1.266,1.271-2.549l4.355,9.079a79.563,79.563,0,0,0,1.1-21.017,1.485,1.485,0,0,1,2.264.327l.018.028a82.529,82.529,0,0,1-1.038,20.366q3.886-2.671,7.619-5.548.338,1.165.629,2.337Q379.513,22.14,375,25.164a99.129,99.129,0,0,1-4.963,16.359" transform="translate(-119.361 -0.352)" fill="#e58f31"/>
            <path id="Trazado_876287" data-name="Trazado 876287" d="M407.428,88.139q-.367.827-.764,1.643a55.056,55.056,0,0,1-6.622,10.379q-.638.79-1.3,1.561a62.071,62.071,0,0,1-8.682,8.263q-.848.667-1.719,1.305a64.581,64.581,0,0,1-11.808,6.855q-1.039.465-2.1.89a58.524,58.524,0,0,1-16.546,4.065q-1.506.138-3.014.188-1.734.062-3.465,0a16.313,16.313,0,0,1-5.522-.768,3.648,3.648,0,0,1-1.377-.967,2.877,2.877,0,0,1-.2-.281c-1.7-2.68,2.149-8.215,3.635-10.492q.8-1.225,1.657-2.4,1.035-1.424,2.155-2.773a69.188,69.188,0,0,1,7.538-7.736q.957-.85,1.944-1.669l.07-.058a109.633,109.633,0,0,1,9.068-6.716q.879-.593,1.775-1.171c1.988-1.294,4-2.541,6.023-3.753q1.081-.649,2.163-1.289l1.624-.961c3.107-1.839,6.2-3.672,9.231-5.633q.8-.517,1.59-1.046,1.232-.822,2.441-1.681c1.9-1.35,3.762-2.756,5.555-4.242q.815-.672,1.607-1.366.517-.454,1.025-.916a76.174,76.174,0,0,0,5.705-5.321,1.095,1.095,0,0,1,1.9.576c0,.008,0,.016,0,.024a44.772,44.772,0,0,1,.168,12.005q-.109.892-.252,1.774a47.511,47.511,0,0,1-3.508,11.7" transform="translate(-126.441 -22.683)" fill="#c3b7fc"/>
            <path id="Trazado_876288" data-name="Trazado 876288" d="M395.309,87.858q6.244.141,12.485.281-.367.827-.764,1.643l-13.375-.3a97.024,97.024,0,0,1-10.139,8.376q.982.2,1.968.38,2.107.389,4.225.715,5.325.816,10.7,1.21-.638.79-1.3,1.561-1.276-.1-2.548-.231-4.633-.462-9.226-1.238-2.26-.38-4.5-.836a9.294,9.294,0,0,1-1.165-.252c-3.069,2.125-6.237,4.106-9.456,5.957-.088.051-.178.1-.266.151q9.2,2.527,18.484,4.712-.849.667-1.72,1.305-9.458-2.251-18.826-4.86c-3.108,1.71-6.273,3.336-9.348,5.1q8.3,3.011,16.366,6.611-1.039.465-2.1.89-7.944-3.488-16.123-6.411a60.345,60.345,0,0,0-5.685,3.846c-.831.641-1.641,1.308-2.434,1.991.52.367,1.085.689,1.62,1.026q2.992,1.883,6.075,3.614-1.506.138-3.014.188-2.549-1.492-5.034-3.091c-.322-.208-.633-.408-.9-.623q-1.569,1.428-3.051,2.95a3.647,3.647,0,0,1-1.377-.967c1.144-1.175,2.321-2.319,3.537-3.416a2.471,2.471,0,0,1,0-.568c.185-1.549.52-3.094.78-4.631q.384-2.277.769-4.554,1.036-1.424,2.156-2.773-.586,3.46-1.17,6.923-.334,1.991-.67,3.982,1.6-1.334,3.292-2.551c1.293-.924,2.624-1.787,3.977-2.613q1.055-6.738,2.108-13.477.957-.85,1.944-1.669-1.1,7.02-2.2,14.04c3.115-1.8,6.326-3.456,9.487-5.184q1.077-7.8,1.846-15.631.879-.593,1.775-1.17-.746,7.914-1.811,15.8.974-.546,1.934-1.11c2.722-1.6,5.4-3.3,8-5.093a4.62,4.62,0,0,1,0-.6,139.141,139.141,0,0,0,.063-14.036l1.625-.961q.164,3.069.191,6.147.031,4.131-.193,8.258c2.625-1.884,5.167-3.88,7.6-6.011q1.19-1.043,2.346-2.14-.265-5.95-.712-11.887.8-.517,1.59-1.046.443,5.686.716,11.384a74.177,74.177,0,0,0,7.717-9.055.76.76,0,0,1-.094-.322q-.171-3.963-.343-7.929.815-.672,1.607-1.366.162,3.725.324,7.45a58.9,58.9,0,0,0,6.862-13.992,1.1,1.1,0,0,1,1.447.881l0,.024a61.133,61.133,0,0,1-6.634,13.566q3.423-.688,6.8-1.561-.108.892-.252,1.774-3.9.982-7.853,1.727a73.422,73.422,0,0,1-8.14,9.695" transform="translate(-126.807 -22.683)" fill="#a797fb"/>
            <path id="Trazado_876289" data-name="Trazado 876289" d="M212.01,111.529l-5.468-12.238-1.866-4.173.343-.15a31.339,31.339,0,0,0,15.862-41.313l4.174-1.867,12.236-5.469a49.313,49.313,0,0,1-24.935,65.059c-.115.05-.229.1-.346.152" transform="translate(-75.257 -17.031)" fill="#a797fb"/>
            <path id="Trazado_876290" data-name="Trazado 876290" d="M159.963,20.872,152.628,4.46c.114-.052.23-.1.343-.155a49.312,49.312,0,0,1,65.145,24.9l.037.085-12.236,5.469-4.174,1.867-.039-.087a31.337,31.337,0,0,0-41.4-15.822c-.116.052-.229.1-.343.157" transform="translate(-56.12 0)" fill="#e08675"/>
            <path id="Trazado_876291" data-name="Trazado 876291" d="M111.33,72.129l-.039-.087A49.314,49.314,0,0,1,135.846,7.053l7.335,16.412A31.337,31.337,0,0,0,127.7,64.708c.011.027.027.056.039.085Z" transform="translate(-39.338 -2.593)" fill="#ecbf4c"/>
            <path id="Trazado_876292" data-name="Trazado 876292" d="M113.856,105.7l16.412-7.335a31.336,31.336,0,0,0,41.015,15.887l1.865,4.173,5.469,12.238A49.312,49.312,0,0,1,113.856,105.7" transform="translate(-41.864 -36.169)" fill="#5f5ea5"/>
            <g id="Grupo_1115295" data-name="Grupo 1115295" transform="translate(81.055 13.406)" opacity="0.31">
              <g id="Grupo_1115294" data-name="Grupo 1115294">
                <g id="Grupo_1115293" data-name="Grupo 1115293" clip-path="url(#clip-path-5)">
                  <path id="Trazado_876293" data-name="Trazado 876293" d="M178.418,90.056c.031-.012.062-.027.094-.04l.251-.109a35.911,35.911,0,0,0,18.168-47.354l-.037-.084a35.913,35.913,0,0,0-47.44-18.132c-.082.037-.166.074-.248.113l-.095.042a35.911,35.911,0,0,0-17.788,47.283l.039.087a35.909,35.909,0,0,0,47.056,18.194M135.537,70c-.013-.029-.028-.059-.04-.085a31.339,31.339,0,0,1,15.48-41.243c.114-.054.228-.1.343-.157a31.337,31.337,0,0,1,41.4,15.822l.039.087A31.34,31.34,0,0,1,176.9,85.733l-.343.15A31.335,31.335,0,0,1,135.537,70" transform="translate(-128.189 -21.202)" fill="#5f5ea5"/>
                </g>
              </g>
            </g>
            <path id="Trazado_876294" data-name="Trazado 876294" d="M263.92,216.139H209.535L212.05,200.3l2.216-13.951h44.926l2.216,13.951Z" transform="translate(-77.044 -68.517)" fill="#dfdbfc"/>
            <path id="Trazado_876295" data-name="Trazado 876295" d="M262.868,200.3H213.511l2.216-13.951h44.926Z" transform="translate(-78.506 -68.517)" fill="#a797fb"/>
            <path id="Trazado_876296" data-name="Trazado 876296" d="M285.1,35.834V126.67a9.913,9.913,0,0,1-9.912,9.912H139.423a9.913,9.913,0,0,1-9.912-9.912V35.834a9.913,9.913,0,0,1,9.912-9.912H275.185a9.913,9.913,0,0,1,9.912,9.912" transform="translate(-47.62 -9.531)" fill="#dfdbfc"/>
            <rect id="Rectángulo_413177" data-name="Rectángulo 413177" width="139.035" height="82.759" transform="translate(90.403 24.666)" fill="#363271"/>
            <path id="Trazado_876297" data-name="Trazado 876297" d="M285.1,165.031v12.787a9.913,9.913,0,0,1-9.912,9.912H139.423a9.913,9.913,0,0,1-9.912-9.912V165.031Z" transform="translate(-47.62 -60.68)" fill="#c3b7fc"/>
            <rect id="Rectángulo_413178" data-name="Rectángulo 413178" width="94.581" height="84.65" transform="translate(113.103 19.701)" fill="#fff"/>
            <path id="Trazado_876298" data-name="Trazado 876298" d="M273.453,15.708v7.475H178.872V15.708a6.238,6.238,0,0,1,6.24-6.24h82.1a6.238,6.238,0,0,1,6.24,6.24" transform="translate(-65.769 -3.481)" fill="#514e92"/>
            <path id="Trazado_876299" data-name="Trazado 876299" d="M296.655,17.877a3.547,3.547,0,1,1-3.547-3.547,3.546,3.546,0,0,1,3.547,3.547" transform="translate(-106.468 -5.269)" fill="#ecbf4c"/>
            <path id="Trazado_876300" data-name="Trazado 876300" d="M313.109,17.877a3.547,3.547,0,1,1-3.547-3.547,3.546,3.546,0,0,1,3.547,3.547" transform="translate(-112.518 -5.269)" fill="#dd6e5c"/>
            <path id="Trazado_876301" data-name="Trazado 876301" d="M184.546,101.064a.954.954,0,0,1-.214-.678V85.117a1,1,0,0,1,.214-.7.955.955,0,0,1,.717-.226h7.27a5.608,5.608,0,0,1,3.961,1.258,4.425,4.425,0,0,1,1.346,3.4,3.969,3.969,0,0,1-.6,2.163,3.57,3.57,0,0,1-1.686,1.408,3.728,3.728,0,0,1,2.792,3.924,4.989,4.989,0,0,1-.642,2.529,4.5,4.5,0,0,1-1.924,1.773,6.923,6.923,0,0,1-3.169.654h-7.345a.953.953,0,0,1-.717-.226m7.533-9.734a2.663,2.663,0,0,0,1.9-.629,2.3,2.3,0,0,0,.666-1.76,2.251,2.251,0,0,0-.616-1.774,2.956,2.956,0,0,0-1.974-.541h-4.5v4.7Zm.378,7.521a2.388,2.388,0,0,0,2.692-2.566,2.434,2.434,0,0,0-.793-1.975,3.315,3.315,0,0,0-2.2-.666h-4.6v5.207Z" transform="translate(-67.777 -30.954)" fill="#dfdbfc"/>
            <path id="Trazado_876302" data-name="Trazado 876302" d="M211.637,81.074a.873.873,0,0,1-.2-.621V66.492a.909.909,0,0,1,.2-.644.872.872,0,0,1,.655-.207h6a5.913,5.913,0,0,1,4.059,1.243,4.676,4.676,0,0,1,1.391,3.679,4.843,4.843,0,0,1-.759,2.749,4.607,4.607,0,0,1-2.208,1.714l2.553,5.658a.568.568,0,0,1,.07.252c0,.23-.138.345-.414.345H221.1a.9.9,0,0,1-.437-.08.714.714,0,0,1-.253-.333l-2.323-5.451h-3.7v5.037a.876.876,0,0,1-.2.621.91.91,0,0,1-.678.207h-1.219a.872.872,0,0,1-.655-.207m6.06-7.866a3.712,3.712,0,0,0,2.369-.621,2.473,2.473,0,0,0,.759-2.024,2.649,2.649,0,0,0-.69-2.024,2.977,2.977,0,0,0-2.093-.644h-3.657v5.313Z" transform="translate(-77.744 -24.135)" fill="#dfdbfc"/>
            <path id="Trazado_876303" data-name="Trazado 876303" d="M281.628,119.586a.9.9,0,0,1-.2-.642V104.51a.759.759,0,0,1,.9-.88h1.095a1.191,1.191,0,0,1,.523.095,1.086,1.086,0,0,1,.381.381L292.175,115V104.51a.945.945,0,0,1,.2-.666.9.9,0,0,1,.678-.214h1.26a.946.946,0,0,1,.689.214.909.909,0,0,1,.214.666v14.434a.906.906,0,0,1-.2.642.94.94,0,0,1-.7.214H293.2a1.154,1.154,0,0,1-.5-.083,1.225,1.225,0,0,1-.381-.369l-7.848-10.867v10.463a.9.9,0,0,1-.2.642.939.939,0,0,1-.7.214h-1.26a.9.9,0,0,1-.678-.214" transform="translate(-103.477 -38.104)" fill="#dfdbfc"/>
            <path id="Trazado_876304" data-name="Trazado 876304" d="M301.567,91.458a.993.993,0,0,1-.222-.705V74.9a1.037,1.037,0,0,1,.222-.732.992.992,0,0,1,.744-.235h5.225q4.414,0,6.752,2.116t2.338,6.766q0,8.881-9.091,8.881h-5.225a.99.99,0,0,1-.744-.235m6.178-2.3a5.566,5.566,0,0,0,4.167-1.437q1.4-1.437,1.4-4.911t-1.4-4.9a5.594,5.594,0,0,0-4.167-1.424h-3.056v12.67Z" transform="translate(-110.801 -27.183)" fill="#dfdbfc"/>
            <path id="Trazado_876305" data-name="Trazado 876305" d="M234.4,107.912a1.4,1.4,0,0,1,.126-.547l11.1-26.322a2.073,2.073,0,0,1,.546-.862,1.337,1.337,0,0,1,.841-.231h2.313a1.325,1.325,0,0,1,.862.231,2.227,2.227,0,0,1,.525.862l11.1,26.322a1.4,1.4,0,0,1,.126.547q0,.631-.715.63h-3.658a1.522,1.522,0,0,1-.778-.147,1.393,1.393,0,0,1-.441-.61l-2.4-5.886H242.349l-2.354,5.886a1.4,1.4,0,0,1-.441.61,1.528,1.528,0,0,1-.778.147h-3.659q-.715,0-.715-.63m18.207-9.924-4.458-11.017-4.457,11.017Z" transform="translate(-86.187 -29.396)" fill="#a797fb"/>
            <path id="Trazado_876306" data-name="Trazado 876306" d="M263.816,109.362h-38.2v-36.5h38.2ZM226.68,108.3h36.074V73.924H226.68Z" transform="translate(-82.958 -26.791)" fill="#5f5ea5"/>
            <rect id="Rectángulo_413179" data-name="Rectángulo 413179" width="3.82" height="3.82" transform="translate(141.176 44.799)" fill="#5f5ea5"/>
            <rect id="Rectángulo_413180" data-name="Rectángulo 413180" width="3.82" height="3.82" transform="translate(159.85 44.799)" fill="#5f5ea5"/>
            <rect id="Rectángulo_413181" data-name="Rectángulo 413181" width="3.82" height="3.82" transform="translate(159.85 80.237)" fill="#5f5ea5"/>
            <rect id="Rectángulo_413182" data-name="Rectángulo 413182" width="3.82" height="3.82" transform="translate(141.176 80.025)" fill="#5f5ea5"/>
            <rect id="Rectángulo_413183" data-name="Rectángulo 413183" width="3.82" height="3.82" transform="translate(141.176 62.624)" fill="#5f5ea5"/>
            <rect id="Rectángulo_413184" data-name="Rectángulo 413184" width="3.82" height="3.82" transform="translate(178.524 62.624)" fill="#5f5ea5"/>
            <rect id="Rectángulo_413185" data-name="Rectángulo 413185" width="3.82" height="3.82" transform="translate(178.382 44.799)" fill="#5f5ea5"/>
            <rect id="Rectángulo_413186" data-name="Rectángulo 413186" width="3.82" height="3.82" transform="translate(178.382 80.025)" fill="#5f5ea5"/>
            <rect id="Rectángulo_413187" data-name="Rectángulo 413187" width="30.503" height="3.547" transform="translate(117.832 88.982)" fill="#dfdbfc"/>
            <rect id="Rectángulo_413188" data-name="Rectángulo 413188" width="30.503" height="3.547" transform="translate(117.832 95.366)" fill="#dfdbfc"/>
            <rect id="Rectángulo_413189" data-name="Rectángulo 413189" width="30.503" height="3.547" transform="translate(173.871 25.849)" fill="#dfdbfc"/>
            <rect id="Rectángulo_413190" data-name="Rectángulo 413190" width="40.67" height="3.31" transform="translate(163.704 32.47)" fill="#dfdbfc"/>
            <rect id="Rectángulo_413191" data-name="Rectángulo 413191" width="63.606" height="5.911" transform="translate(127.526 144.784)" fill="#c3b7fc"/>
            <path id="Trazado_876307" data-name="Trazado 876307" d="M376.844,175.8a35.312,35.312,0,1,1-18.132-46.531A35.312,35.312,0,0,1,376.844,175.8" transform="translate(-113.686 -46.43)" fill="#dd6e5c"/>
            <path id="Trazado_876308" data-name="Trazado 876308" d="M374.093,177.275a27.073,27.073,0,1,1-13.9-35.674,27.073,27.073,0,0,1,13.9,35.674" transform="translate(-118.479 -51.222)" fill="#fff"/>
            <path id="Trazado_876309" data-name="Trazado 876309" d="M371.06,178.906a17.992,17.992,0,1,1-9.239-23.709,17.992,17.992,0,0,1,9.239,23.709" transform="translate(-123.76 -56.504)" fill="#dd6e5c"/>
            <path id="Trazado_876310" data-name="Trazado 876310" d="M368.089,180.5a9.094,9.094,0,1,1-4.67-11.983,9.094,9.094,0,0,1,4.67,11.983" transform="translate(-128.936 -61.68)" fill="#fff"/>
            <path id="Trazado_876311" data-name="Trazado 876311" d="M401.907,149.518l1.261.649-34.094,18.744-2.988,1.644-1.486-2.7,2.987-1.642,34.038-18.715-.128,1.275a.756.756,0,0,0,.409.749" transform="translate(-134.06 -54.232)" fill="#5f5ea5"/>
            <path id="Trazado_876312" data-name="Trazado 876312" d="M433.258,146.107l-3.556,1.956a.763.763,0,0,1-.711.01l-4.369-2.25-1.26-.649a.757.757,0,0,1-.409-.749l.128-1.276.494-4.928a.751.751,0,0,1,.387-.587l3.557-1.955a.754.754,0,0,0-.389.587l-.492,4.928-.128,1.275a.756.756,0,0,0,.408.751l1.26.649,4.369,2.248a.761.761,0,0,0,.712-.01" transform="translate(-155.514 -49.888)" fill="#5f5ea5"/>
            <path id="Trazado_876313" data-name="Trazado 876313" d="M438.729,143.147l-3.4,1.87a.761.761,0,0,1-.712.01l-4.369-2.248-1.26-.649a.756.756,0,0,1-.408-.75l.128-1.276.492-4.927a.758.758,0,0,1,.389-.588l3.406-1.873a.754.754,0,0,0-.38.583l-.494,4.928-.126,1.274a.756.756,0,0,0,.408.751l1.261.649,4.368,2.25a.761.761,0,0,0,.7,0" transform="translate(-157.582 -48.798)" fill="#ecbf4c"/>
            <path id="Trazado_876314" data-name="Trazado 876314" d="M443.989,140.3l-3.263,1.794-.011.006a.761.761,0,0,1-.7,0l-4.368-2.25-1.261-.65a.757.757,0,0,1-.408-.75l.127-1.274.494-4.928a.752.752,0,0,1,.38-.583l.007,0,3.272-1.8a.754.754,0,0,0-.387.587l-.494,4.928-.127,1.273a.755.755,0,0,0,.408.751l1.261.649,4.368,2.25a.762.762,0,0,0,.7-.005" transform="translate(-159.567 -47.75)" fill="#5f5ea5"/>
            <path id="Trazado_876315" data-name="Trazado 876315" d="M449.171,137.449l-3.271,1.8-.009,0a.762.762,0,0,1-.7.005l-4.369-2.25-1.261-.649a.756.756,0,0,1-.408-.751l.127-1.273.494-4.928a.754.754,0,0,1,.388-.587l3.272-1.8a.756.756,0,0,0-.389.586l-.62,6.2a.755.755,0,0,0,.408.75l5.628,2.9a.761.761,0,0,0,.712-.01" transform="translate(-161.47 -46.704)" fill="#ecbf4c"/>
            <path id="Trazado_876316" data-name="Trazado 876316" d="M454.2,134.728l-3.13,1.721a.761.761,0,0,1-.712.01l-5.627-2.9a.755.755,0,0,1-.408-.75l.62-6.2a.756.756,0,0,1,.389-.586l3.13-1.721a.754.754,0,0,0-.389.587l-.62,6.2a.755.755,0,0,0,.408.749l5.628,2.9a.761.761,0,0,0,.712-.01" transform="translate(-163.372 -45.704)" fill="#5f5ea5"/>
            <path id="Trazado_876317" data-name="Trazado 876317" d="M456.715,134.07l-.691.379a.761.761,0,0,1-.712.01l-5.628-2.9a.756.756,0,0,1-.409-.749l.62-6.2a.756.756,0,0,1,.389-.588l.7-.384a.758.758,0,0,1,1.122.666l-.019,5.122a.757.757,0,0,0,.357.646l4.307,2.693a.758.758,0,0,1-.035,1.307" transform="translate(-165.192 -45.425)" fill="#ecbf4c"/>
            <path id="Trazado_876318" data-name="Trazado 876318" d="M367.921,182.167,355.9,181.131a.575.575,0,0,1-.424-.773l5.567-10.707c.139-.266.513-.2.69.124l6.457,11.743c.178.323.034.675-.266.649" transform="translate(-130.686 -62.318)" fill="#ecbf4c"/>
            <path id="Trazado_876319" data-name="Trazado 876319" d="M66.07,215.318a8.191,8.191,0,0,1-2.464,2.506,26.822,26.822,0,0,1-6.656,2.911,38.359,38.359,0,0,1-6.384,1.521q-.868.137-1.736.223c-.57.066-1.141.107-1.712.14-.314.025-.629.042-.943.042-.09.008-.19.016-.281.016-.248.008-.5.016-.752.016-.273,0-.546.008-.827.008-.446,0-.893-.008-1.347-.016-.306-.008-.6-.025-.91-.041-.794-.042-1.6-.107-2.39-.2-.555-.066-1.108-.149-1.654-.248a16.247,16.247,0,0,1-8.873-4.2,6.786,6.786,0,0,1-2.282-4.564c0-1.745,1.447-3.556,3.192-3.39a5.056,5.056,0,0,1,2.083.893c1.058.661,2.125,1.323,3.184,1.985a16.716,16.716,0,0,1-2.778-4.515,7.594,7.594,0,0,1-.67-4.143,3.684,3.684,0,0,1,2.613-3.034,3.788,3.788,0,0,1,3.233,1.033,9.357,9.357,0,0,1,1.96,2.911,35.623,35.623,0,0,1,2.051,5.2c-.166-4.267-.215-8.947,2.439-12.3a2.659,2.659,0,0,1,1.033-.885,2.223,2.223,0,0,1,2.274.6,6.411,6.411,0,0,1,1.521,4.333,35.273,35.273,0,0,1-.6,9.418,59.447,59.447,0,0,1,4.689-7.7,8.774,8.774,0,0,1,2.207-2.34,3.348,3.348,0,0,1,3.076-.438,3.217,3.217,0,0,1,1.762,2.713,6.816,6.816,0,0,1-.7,3.291,15.741,15.741,0,0,1-6.309,7.1,58.136,58.136,0,0,1,6.946-3.026,9.108,9.108,0,0,1,3.316-.711,3.426,3.426,0,0,1,2.894,1.521,3.372,3.372,0,0,1-.2,3.357" transform="translate(-9.876 -72.462)" fill="#dd6e5c"/>
            <path id="Trazado_876320" data-name="Trazado 876320" d="M40.978,231.618c-.554-.066-1.108-.149-1.653-.248a62.8,62.8,0,0,1-8.8-8.625c-.34-.405.24-1,.579-.587a62.071,62.071,0,0,0,9.873,9.459" transform="translate(-11.186 -81.634)" fill="#d14f42"/>
            <path id="Trazado_876321" data-name="Trazado 876321" d="M39.015,208.567q4.08,9.129,8.145,18.266c-.306-.008-.6-.025-.909-.041q-3.969-8.905-7.947-17.8c-.215-.48.5-.909.711-.422" transform="translate(-14.069 -76.609)" fill="#d14f42"/>
            <path id="Trazado_876322" data-name="Trazado 876322" d="M55.9,204.71q-.3,10.319-.6,20.647c-.273,0-.546.008-.826.008q.3-10.332.6-20.647c.016-.529.844-.537.827-.008" transform="translate(-20.026 -75.125)" fill="#d14f42"/>
            <path id="Trazado_876323" data-name="Trazado 876323" d="M68.4,209.179A140.088,140.088,0,0,0,58.349,226.85c-.314.025-.629.041-.943.041a139.958,139.958,0,0,1,10.278-18.125c.29-.438,1.009-.033.711.414" transform="translate(-21.108 -76.691)" fill="#d14f42"/>
            <path id="Trazado_876324" data-name="Trazado 876324" d="M76.175,224.492a100.9,100.9,0,0,0-12.833,7.566q-.868.137-1.736.224a101.351,101.351,0,0,1,14.148-8.5c.471-.24.893.472.422.711" transform="translate(-22.651 -82.264)" fill="#d14f42"/>
            <path id="Trazado_876325" data-name="Trazado 876325" d="M35.139,115.3a1.289,1.289,0,0,0-.924.369,1.24,1.24,0,0,0-.186.728,13.988,13.988,0,0,0,5.958,11.4,20.216,20.216,0,0,0,12.675,3.479,25.641,25.641,0,0,0,9.683-2c3.1-1.521,0-4.186-1.666-5.667a34.024,34.024,0,0,0-15.631-7.806,32.206,32.206,0,0,0-9.909-.508" transform="translate(-12.51 -42.33)" fill="#c3b7fc"/>
            <path id="Trazado_876326" data-name="Trazado 876326" d="M47.924,145.659a1.289,1.289,0,0,0-.818.567,1.241,1.241,0,0,0-.018.751,13.987,13.987,0,0,0,8.365,9.777,20.213,20.213,0,0,0,13.132.547,25.646,25.646,0,0,0,8.988-4.121c2.679-2.178-.937-4.08-2.895-5.149a34.02,34.02,0,0,0-16.984-4.1,32.206,32.206,0,0,0-9.77,1.728" transform="translate(-17.296 -52.919)" fill="#c3b7fc"/>
            <path id="Trazado_876327" data-name="Trazado 876327" d="M74.541,58.542a1.288,1.288,0,0,1,.853-.512,1.235,1.235,0,0,1,.692.293,13.987,13.987,0,0,1,5.468,11.648,20.212,20.212,0,0,1-4.908,12.193,25.643,25.643,0,0,1-7.455,6.494c-3.088,1.545-3.333-2.533-3.5-4.758a34.028,34.028,0,0,1,3.255-17.166,32.227,32.227,0,0,1,5.6-8.193" transform="translate(-24.119 -21.337)" fill="#c3b7fc"/>
            <path id="Trazado_876328" data-name="Trazado 876328" d="M87.472,86.544a1.284,1.284,0,0,1,.818-.566,1.23,1.23,0,0,1,.709.247A13.985,13.985,0,0,1,95.207,97.5a20.216,20.216,0,0,1-4.11,12.485,25.64,25.64,0,0,1-7.021,6.962c-2.981,1.741-3.489-2.313-3.8-4.522a34.028,34.028,0,0,1,2.14-17.341,32.211,32.211,0,0,1,5.057-8.537" transform="translate(-29.398 -31.613)" fill="#c3b7fc"/>
            <path id="Trazado_876329" data-name="Trazado 876329" d="M102.949,110.684a1.182,1.182,0,0,1,.75-.519,1.133,1.133,0,0,1,.65.227,12.821,12.821,0,0,1,5.691,10.332,18.529,18.529,0,0,1-3.768,11.445,23.5,23.5,0,0,1-6.436,6.382c-2.733,1.6-3.2-2.12-3.484-4.145a31.2,31.2,0,0,1,1.961-15.9,29.543,29.543,0,0,1,4.635-7.825" transform="translate(-35.319 -40.506)" fill="#c3b7fc"/>
            <path id="Trazado_876330" data-name="Trazado 876330" d="M20.36,88.869a1.287,1.287,0,0,0-.914.394,1.238,1.238,0,0,0-.166.733,13.986,13.986,0,0,0,6.273,11.235,20.215,20.215,0,0,0,12.767,3.126,25.652,25.652,0,0,0,9.623-2.268C51,100.482,47.83,97.9,46.122,96.47A34.027,34.027,0,0,0,30.279,89.1a32.218,32.218,0,0,0-9.919-.232" transform="translate(-7.089 -32.574)" fill="#c3b7fc"/>
            <path id="Trazado_876331" data-name="Trazado 876331" d="M56.585,57.942a34.21,34.21,0,0,0-7.217-14.114c-1.421-1.768-3.194-3.574-5.458-3.71a29.006,29.006,0,0,0,.7,24.631c1.15,2.238,6.74,10.371,9.587,7.893,3.44-2.993,3.211-10.772,2.386-14.7" transform="translate(-15.26 -14.751)" fill="#c3b7fc"/>
            <path id="Trazado_876332" data-name="Trazado 876332" d="M81.9,124a75.512,75.512,0,0,1-10.216-8.854,37.377,37.377,0,0,0,6.926-24.268c-.068-.977-1.6-1.044-1.535-.056A36.055,36.055,0,0,1,70.6,114.01a91.959,91.959,0,0,1-9.031-11.417.886.886,0,0,0,.117-.132,40.776,40.776,0,0,0,7.576-26.5c-.074-1.065-1.75-1.138-1.675-.061a39.33,39.33,0,0,1-7,25.211c-.262-.405-.525-.81-.782-1.218A119.9,119.9,0,0,1,51.746,84.6a.856.856,0,0,0,.337-.25,40.777,40.777,0,0,0,9.272-25.96c-.006-1.068-1.673-1.248-1.667-.169a39.325,39.325,0,0,1-8.649,24.75c-2.181-5.1-4.077-10.324-5.764-15.605C43.139,60.681,41.323,53.9,39.622,47.1c-.262-1.046-1.875-.59-1.612.457,3.058,12.235,6.5,24.426,11.476,36.039a39.324,39.324,0,0,1-24.727-7.429c-.874-.634-1.7.826-.835,1.453A40.776,40.776,0,0,0,50.2,85.24a122.367,122.367,0,0,0,8.36,15.791,39.333,39.333,0,0,1-24.525-8.114c-.856-.658-1.722.778-.875,1.429a40.772,40.772,0,0,0,26.272,8.344.946.946,0,0,0,.18-.025,96.349,96.349,0,0,0,7.666,10.166q.659.76,1.339,1.5A39.323,39.323,0,0,1,42.607,112c-.982-.449-1.5,1.145-.532,1.59a40.776,40.776,0,0,0,27.475,2.236.868.868,0,0,0,.318-.158,78.787,78.787,0,0,0,11.2,9.784c.878.629,1.7-.83.835-1.453" transform="translate(-8.662 -17.1)" fill="#a797fb"/>
            <path id="Trazado_876333" data-name="Trazado 876333" d="M18.52,166.177a.984.984,0,0,0-.553.523.943.943,0,0,0,.073.57,10.7,10.7,0,0,0,7.46,6.43,15.467,15.467,0,0,0,10-1.105,19.623,19.623,0,0,0,6.323-4.157c1.775-1.958-1.181-2.978-2.786-3.561a26.036,26.036,0,0,0-13.324-1.138,24.645,24.645,0,0,0-7.192,2.438" transform="translate(-6.599 -60.06)" fill="#ecbf4c"/>
            <path id="Trazado_876334" data-name="Trazado 876334" d="M36.439,182.973a.986.986,0,0,0-.422.634.948.948,0,0,0,.2.539,10.705,10.705,0,0,0,8.713,4.592,15.472,15.472,0,0,0,9.5-3.32,19.62,19.62,0,0,0,5.229-5.47c1.291-2.305-1.819-2.637-3.513-2.845a26.045,26.045,0,0,0-13.24,1.88,24.676,24.676,0,0,0-6.462,3.989" transform="translate(-13.243 -65.05)" fill="#ecbf4c"/>
            <path id="Trazado_876335" data-name="Trazado 876335" d="M33.139,114.8a.986.986,0,0,1,.462-.605.946.946,0,0,1,.575.013,10.705,10.705,0,0,1,7.179,6.742,15.472,15.472,0,0,1-.047,10.06,19.631,19.631,0,0,1-3.469,6.725c-1.76,1.971-3.086-.861-3.834-2.4a26.044,26.044,0,0,1-2.534-13.13,24.657,24.657,0,0,1,1.667-7.409" transform="translate(-11.549 -41.973)" fill="#ecbf4c"/>
            <path id="Trazado_876336" data-name="Trazado 876336" d="M49.981,131.3a.985.985,0,0,1,.422-.634.943.943,0,0,1,.574-.025,10.705,10.705,0,0,1,7.6,6.264,15.474,15.474,0,0,1,.6,10.042,19.621,19.621,0,0,1-3.028,6.935c-1.629,2.081-3.136-.66-3.981-2.143A26.039,26.039,0,0,1,48.8,138.8a24.677,24.677,0,0,1,1.186-7.5" transform="translate(-17.942 -48.022)" fill="#ecbf4c"/>
            <path id="Trazado_876337" data-name="Trazado 876337" d="M67.6,144.215a.905.905,0,0,1,.387-.581.863.863,0,0,1,.527-.022,9.811,9.811,0,0,1,6.966,5.742,14.18,14.18,0,0,1,.553,9.205,18,18,0,0,1-2.775,6.358c-1.494,1.907-2.874-.6-3.649-1.965a23.872,23.872,0,0,1-3.1-11.862,22.621,22.621,0,0,1,1.087-6.876" transform="translate(-24.456 -52.793)" fill="#ecbf4c"/>
            <path id="Trazado_876338" data-name="Trazado 876338" d="M.555,151.406a.987.987,0,0,0-.539.539.951.951,0,0,0,.089.568,10.706,10.706,0,0,0,7.636,6.22,15.474,15.474,0,0,0,9.965-1.383,19.628,19.628,0,0,0,6.2-4.332c1.72-2.006-1.263-2.944-2.884-3.482a26.036,26.036,0,0,0-13.35-.767,24.653,24.653,0,0,0-7.122,2.637" transform="translate(0 -54.506)" fill="#ecbf4c"/>
            <path id="Trazado_876339" data-name="Trazado 876339" d="M18.4,120.578a26.181,26.181,0,0,0-9.12-8c-1.51-.856-3.282-1.64-4.93-1.1A22.2,22.2,0,0,0,11.81,128.8c1.45,1.268,7.724,5.474,9.049,2.907,1.6-3.1-.759-8.57-2.455-11.131" transform="translate(-1.595 -40.924)" fill="#ecbf4c"/>
            <path id="Trazado_876340" data-name="Trazado 876340" d="M59.047,158.374a57.8,57.8,0,0,1-9.768-3.408,28.609,28.609,0,0,0-1.928-19.224c-.324-.675-1.435-.289-1.108.394a27.591,27.591,0,0,1,1.948,18.328,70.371,70.371,0,0,1-9.652-5.572.66.66,0,0,0,.047-.13,31.209,31.209,0,0,0-2.1-20.993c-.353-.737-1.566-.316-1.209.429a30.1,30.1,0,0,1,2.144,19.917q-.453-.322-.9-.651a91.777,91.777,0,0,1-10.054-8.6.646.646,0,0,0,.169-.273A31.207,31.207,0,0,0,25.9,117.5c-.305-.759-1.543-.416-1.234.35a30.1,30.1,0,0,1,.842,20.052c-2.993-3.012-5.819-6.2-8.512-9.476-3.406-4.15-6.612-8.457-9.743-12.816-.481-.67-1.5.11-1.018.781a181.569,181.569,0,0,0,18.348,22.4,30.108,30.108,0,0,1-19.693,1.695c-.8-.2-.976,1.067-.183,1.27a31.212,31.212,0,0,0,20.848-2,93.649,93.649,0,0,0,10.412,8.875,30.107,30.107,0,0,1-19.745,1.151c-.794-.226-1,1.04-.218,1.264a31.207,31.207,0,0,0,21.045-1.485.74.74,0,0,0,.121-.068,73.654,73.654,0,0,0,8.325,5.065q.686.356,1.379.694a30.1,30.1,0,0,1-19.166,5.685c-.825-.042-.746,1.239.07,1.281a31.211,31.211,0,0,0,20.176-6.169.683.683,0,0,0,.179-.2,60.245,60.245,0,0,0,10.732,3.793c.8.2.978-1.072.183-1.27" transform="translate(-1.542 -42.416)" fill="#e58f31"/>
            <path id="Trazado_876341" data-name="Trazado 876341" d="M140.981,162.381v44.963a4.992,4.992,0,0,1-4.994,4.994h-65.7a4.993,4.993,0,0,1-4.994-4.994V162.381Z" transform="translate(-24.006 -59.706)" fill="#fff"/>
            <path id="Trazado_876342" data-name="Trazado 876342" d="M140.981,150.017V156H65.288v-5.982a4.993,4.993,0,0,1,4.994-4.994h65.7a4.993,4.993,0,0,1,4.994,4.994" transform="translate(-24.006 -53.323)" fill="#514e92"/>
            <path id="Trazado_876343" data-name="Trazado 876343" d="M159.549,151.752a2.838,2.838,0,1,1-2.838-2.838,2.839,2.839,0,0,1,2.838,2.838" transform="translate(-56.577 -54.754)" fill="#ecbf4c"/>
            <path id="Trazado_876344" data-name="Trazado 876344" d="M172.717,151.752a2.838,2.838,0,1,1-2.838-2.838,2.839,2.839,0,0,1,2.838,2.838" transform="translate(-61.419 -54.754)" fill="#dd6e5c"/>
            <rect id="Rectángulo_413192" data-name="Rectángulo 413192" width="29.899" height="23.843" transform="translate(45.635 109.676)" fill="#8690f1"/>
            <rect id="Rectángulo_413193" data-name="Rectángulo 413193" width="33.115" height="4.731" transform="translate(79.507 110.244)" fill="#dfdbfc"/>
            <rect id="Rectángulo_413194" data-name="Rectángulo 413194" width="33.115" height="4.731" transform="translate(79.507 118.949)" fill="#dfdbfc"/>
            <rect id="Rectángulo_413195" data-name="Rectángulo 413195" width="33.115" height="4.731" transform="translate(79.507 128.599)" fill="#dfdbfc"/>
            <path id="Trazado_876345" data-name="Trazado 876345" d="M407.025,220.318a8.182,8.182,0,0,1-2.464,2.505,26.8,26.8,0,0,1-6.656,2.911,38.361,38.361,0,0,1-6.384,1.521q-.868.137-1.736.223c-.57.066-1.141.107-1.712.14-.314.025-.629.042-.943.042-.09.008-.19.016-.281.016-.249.008-.5.016-.752.016-.273,0-.546.008-.827.008-.446,0-.893-.008-1.347-.016-.306-.008-.6-.025-.91-.042-.794-.041-1.6-.107-2.389-.2-.554-.066-1.108-.149-1.654-.248A16.247,16.247,0,0,1,370.1,223a6.788,6.788,0,0,1-2.282-4.565c0-1.745,1.447-3.555,3.192-3.39a5.056,5.056,0,0,1,2.083.893c1.059.661,2.125,1.323,3.184,1.985a16.716,16.716,0,0,1-2.778-4.515,7.593,7.593,0,0,1-.67-4.143,3.683,3.683,0,0,1,2.613-3.034,3.788,3.788,0,0,1,3.233,1.033,9.349,9.349,0,0,1,1.96,2.911,35.623,35.623,0,0,1,2.051,5.2c-.166-4.267-.215-8.947,2.439-12.3a2.659,2.659,0,0,1,1.033-.885,2.223,2.223,0,0,1,2.274.6,6.41,6.41,0,0,1,1.521,4.333,35.276,35.276,0,0,1-.6,9.418,59.374,59.374,0,0,1,4.689-7.7,8.773,8.773,0,0,1,2.207-2.34,3.348,3.348,0,0,1,3.076-.438,3.217,3.217,0,0,1,1.762,2.712,6.818,6.818,0,0,1-.7,3.291,15.741,15.741,0,0,1-6.309,7.1,58.138,58.138,0,0,1,6.946-3.026,9.108,9.108,0,0,1,3.316-.711,3.423,3.423,0,0,1,2.894,1.521,3.372,3.372,0,0,1-.2,3.357" transform="translate(-135.241 -74.3)" fill="#ecbf4c"/>
            <path id="Trazado_876346" data-name="Trazado 876346" d="M381.933,236.618c-.554-.066-1.108-.149-1.654-.248a62.837,62.837,0,0,1-8.8-8.625c-.339-.405.24-1,.579-.587a62.071,62.071,0,0,0,9.873,9.459" transform="translate(-136.552 -83.472)" fill="#e58f31"/>
            <path id="Trazado_876347" data-name="Trazado 876347" d="M379.97,213.567q4.08,9.129,8.145,18.266c-.306-.008-.6-.025-.909-.041q-3.969-8.905-7.947-17.8c-.215-.48.5-.909.711-.422" transform="translate(-139.434 -78.447)" fill="#e58f31"/>
            <path id="Trazado_876348" data-name="Trazado 876348" d="M396.85,209.71q-.3,10.319-.6,20.647c-.273,0-.546.008-.826.008q.3-10.332.6-20.647c.016-.529.844-.537.827-.008" transform="translate(-145.391 -76.963)" fill="#e58f31"/>
            <path id="Trazado_876349" data-name="Trazado 876349" d="M409.352,214.179A140.082,140.082,0,0,0,399.3,231.85c-.314.025-.629.041-.943.041a139.961,139.961,0,0,1,10.278-18.125c.29-.438,1.009-.033.711.414" transform="translate(-146.473 -78.53)" fill="#e58f31"/>
            <path id="Trazado_876350" data-name="Trazado 876350" d="M417.13,229.492a100.942,100.942,0,0,0-12.833,7.566q-.868.137-1.736.224a101.352,101.352,0,0,1,14.148-8.5c.472-.24.893.472.422.711" transform="translate(-148.017 -84.102)" fill="#e58f31"/>
            <path id="Trazado_876351" data-name="Trazado 876351" d="M308.854,149.948a31.125,31.125,0,0,1-12.063,10.537,31.826,31.826,0,0,1-10.675,3.184,39.069,39.069,0,0,0,1.039,4.5c.064.124.133.245.2.365A36.8,36.8,0,0,0,313,152.7Z" transform="translate(-105.201 -55.134)" fill="#dfdbfc"/>
            <rect id="Rectángulo_413196" data-name="Rectángulo 413196" width="6.852" height="30.908" transform="translate(169.213 91.834) rotate(-17.719)" fill="#5f5ea5"/>
            <path id="Trazado_876352" data-name="Trazado 876352" d="M277.346,174.539,283.4,172.6a.966.966,0,0,1,1.214.627l6.9,21.586a4.145,4.145,0,1,1-7.9,2.523l-6.9-21.586a.967.967,0,0,1,.627-1.215" transform="translate(-101.73 -63.448)" fill="#514e92"/>
            <path id="Trazado_876353" data-name="Trazado 876353" d="M262.677,130.086l.656-9.594,2.05-.655,6.1,7.437-.678,5.975-4.109,1.313Z" transform="translate(-96.583 -44.063)" fill="#ecbf4c"/>
            <path id="Trazado_876354" data-name="Trazado 876354" d="M266.512,139.761,272,138.007a1.5,1.5,0,1,1,.912,2.857l-5.49,1.754a1.5,1.5,0,0,1-.913-2.857" transform="translate(-97.61 -50.717)" fill="#8690f1"/>
            <path id="Trazado_876355" data-name="Trazado 876355" d="M267.342,131.656a1.108,1.108,0,1,1,1.383.689,1.092,1.092,0,0,1-1.383-.689" transform="translate(-98.28 -47.887)" fill="#fff"/>
            <path id="Trazado_876356" data-name="Trazado 876356" d="M267.094,127.646,264.78,120.4l.7-.224,2.314,7.244a.366.366,0,0,1-.243.454.372.372,0,0,1-.281-.021.35.35,0,0,1-.18-.208" transform="translate(-97.357 -44.188)" fill="#fff"/>
            <path id="Trazado_876357" data-name="Trazado 876357" d="M276.21,174.065l7.29-2.329a.926.926,0,0,1,.563,1.764l-7.29,2.329a.926.926,0,1,1-.563-1.764" transform="translate(-101.322 -63.13)" fill="#ecbf4c"/>
            <path id="Trazado_876358" data-name="Trazado 876358" d="M283.913,180.259h0a1.424,1.424,0,0,1,1.784.92l6.723,21.046a1.42,1.42,0,0,1-2.7.864l-6.723-21.046a1.424,1.424,0,0,1,.92-1.784" transform="translate(-104.029 -66.255)" fill="#ecbf4c"/>
            <path id="Trazado_876359" data-name="Trazado 876359" d="M233.4,121.1l-.571-.3c2.045-3.9,6.133-6.783,12.154-8.575,1.9-.565,3.86-1,5.759-1.43a55.323,55.323,0,0,0,8.711-2.46c5.3-2.151,8.967-5.946,9.8-10.152l.632.125c-.873,4.419-4.68,8.391-10.187,10.625a55.921,55.921,0,0,1-8.813,2.491c-1.888.423-3.84.861-5.716,1.419-5.848,1.74-9.807,4.518-11.767,8.257" transform="translate(-85.608 -36.099)" fill="#ecbf4c"/>
            <path id="Trazado_876360" data-name="Trazado 876360" d="M264.883,116.618a1.289,1.289,0,1,1-1.472-1.075,1.289,1.289,0,0,1,1.472,1.075" transform="translate(-96.452 -42.478)" fill="#ecbf4c"/>
            <path id="Trazado_876361" data-name="Trazado 876361" d="M233.8,133.237a1.289,1.289,0,1,1-1.472-1.075,1.29,1.29,0,0,1,1.472,1.075" transform="translate(-85.025 -48.589)" fill="#ecbf4c"/>
            <path id="Trazado_876362" data-name="Trazado 876362" d="M291.36,97.435a1.289,1.289,0,1,1-1.472-1.075,1.29,1.29,0,0,1,1.472,1.075" transform="translate(-106.188 -35.425)" fill="#ecbf4c"/>
          </g>
        </g>
      </g>
    </g>
  </g>
</svg>
