<svg xmlns="http://www.w3.org/2000/svg" xmlns:xlink="http://www.w3.org/1999/xlink" width="139" height="139" viewBox="0 0 139 139">
  <defs>
    <clipPath id="clip-path">
      <rect id="Rect치ngulo_413210" data-name="Rect치ngulo 413210" width="66.371" height="66.344" fill="#12263f"/>
    </clipPath>
  </defs>
  <g id="Grupo_1115342" data-name="Grupo 1115342" transform="translate(-730.499 -6774.501)">
    <g id="Grupo_1115002" data-name="Grupo 1115002" transform="translate(404.004 -596.02)">
      <g id="Grupo_1114883" data-name="Grupo 1114883" transform="translate(465.495 7370.521) rotate(90)">
        <path id="Trazado_875690" data-name="Trazado 875690" d="M9.062,0,0,13.547,8.685,26.532,0,39.516,8.685,52.5,0,65.485,8.685,78.47,0,91.456l9.062,13.549,1.684-1.126L2.438,91.456,11.123,78.47,2.438,65.485,11.123,52.5,2.438,39.516l8.685-12.984L2.438,13.547,10.746,1.127Z" transform="translate(0 0)" fill="#12263f"/>
        <path id="Trazado_875691" data-name="Trazado 875691" d="M9.062,0,0,13.547,8.685,26.532,0,39.516,8.685,52.5,0,65.485,8.685,78.47,0,91.456l9.062,13.549,1.685-1.126L2.438,91.456,11.123,78.47,2.438,65.485,11.123,52.5,2.438,39.516l8.685-12.984L2.438,13.547,10.746,1.127Z" transform="translate(13.405 0)" fill="#12263f"/>
        <path id="Trazado_875692" data-name="Trazado 875692" d="M9.062,0,0,13.547,8.685,26.532,0,39.516,8.685,52.5,0,65.485,8.685,78.47,0,91.456l9.062,13.549,1.684-1.126L2.438,91.456,11.123,78.47,2.438,65.485,11.123,52.5,2.438,39.516l8.685-12.984L2.438,13.547,10.746,1.127Z" transform="translate(26.81 0)" fill="#12263f"/>
        <path id="Trazado_875693" data-name="Trazado 875693" d="M9.062,0,0,13.547,8.685,26.532,0,39.516,8.685,52.5,0,65.485,8.685,78.47,0,91.456l9.062,13.549,1.684-1.126L2.438,91.456,11.123,78.47,2.438,65.485,11.123,52.5,2.438,39.516l8.685-12.984L2.438,13.547,10.746,1.127Z" transform="translate(40.215 0)" fill="#12263f"/>
        <path id="Trazado_875694" data-name="Trazado 875694" d="M9.062,0,0,13.547,8.685,26.532,0,39.516,8.685,52.5,0,65.485,8.685,78.47,0,91.456l9.062,13.549,1.684-1.126L2.438,91.456,11.123,78.47,2.438,65.485,11.123,52.5,2.438,39.516l8.685-12.984L2.438,13.547,10.746,1.127Z" transform="translate(53.62 0)" fill="#12263f"/>
        <path id="Trazado_875695" data-name="Trazado 875695" d="M9.062,0,0,13.547,8.685,26.532,0,39.516,8.685,52.5,0,65.485,8.685,78.47,0,91.456l9.062,13.549,1.685-1.126L2.438,91.456,11.123,78.47,2.438,65.485,11.123,52.5,2.438,39.516l8.685-12.984L2.438,13.547,10.747,1.127Z" transform="translate(67.025 0)" fill="#12263f"/>
        <path id="Trazado_875696" data-name="Trazado 875696" d="M9.062,0,0,13.547,8.685,26.532,0,39.516,8.685,52.5,0,65.485,8.685,78.47,0,91.456l9.062,13.549,1.685-1.126L2.438,91.456,11.123,78.47,2.438,65.485,11.123,52.5,2.438,39.516l8.685-12.984L2.438,13.547,10.746,1.127Z" transform="translate(80.431 0)" fill="#12263f"/>
        <path id="Trazado_875697" data-name="Trazado 875697" d="M9.062,0,0,13.547,8.685,26.532,0,39.516,8.685,52.5,0,65.485,8.685,78.47,0,91.456l9.062,13.549,1.685-1.126L2.438,91.456,11.123,78.47,2.438,65.485,11.123,52.5,2.438,39.516l8.685-12.984L2.438,13.547,10.746,1.127Z" transform="translate(93.835 0)" fill="#12263f"/>
      </g>
      <g id="Grupo_1114882" data-name="Grupo 1114882" transform="translate(326.495 7379.938)">
        <rect id="Rect치ngulo_412780" data-name="Rect치ngulo 412780" width="123.655" height="122.5" rx="20" transform="translate(3.542 3.559)" fill="#ece1f9"/>
        <g id="Grupo_1114814" data-name="Grupo 1114814">
          <path id="Trazado_875775" data-name="Trazado 875775" d="M245.7,319.88a1.7,1.7,0,0,1-1.7-1.7v-5.1a8.512,8.512,0,0,1,8.5-8.5h40.468a11.916,11.916,0,0,0,11.9-11.9V252.28a8.512,8.512,0,0,1,8.5-8.5h5.1a1.7,1.7,0,0,1,0,3.4h-5.1a5.107,5.107,0,0,0-5.1,5.1v40.394a15.321,15.321,0,0,1-15.3,15.3H252.5a5.107,5.107,0,0,0-5.1,5.1v5.1a1.7,1.7,0,0,1-1.7,1.7" transform="translate(-189.434 -190.297)" fill="#12263f"/>
          <path id="Trazado_875777" data-name="Trazado 875777" d="M1.7,76.1A1.7,1.7,0,0,1,0,74.4V69.3a8.512,8.512,0,0,1,8.5-8.5H48.97a11.916,11.916,0,0,0,11.9-11.9V8.5a8.512,8.512,0,0,1,8.5-8.5h5.1a1.7,1.7,0,0,1,0,3.4h-5.1a5.107,5.107,0,0,0-5.1,5.1V48.9a15.321,15.321,0,0,1-15.3,15.3H8.5a5.107,5.107,0,0,0-5.1,5.1v5.1a1.7,1.7,0,0,1-1.7,1.7" transform="translate(76.176 76.102) rotate(180)" fill="#12263f"/>
        </g>
      </g>
    </g>
    <g id="Grupo_1115314" data-name="Grupo 1115314" transform="translate(763.815 6815)">
      <g id="Grupo_1115313" data-name="Grupo 1115313" clip-path="url(#clip-path)">
        <path id="Trazado_876405" data-name="Trazado 876405" d="M2.258.056,63.547,0A2.783,2.783,0,0,1,66.2,1.909c.233,20.8.233,41.7,0,62.5a2.731,2.731,0,0,1-1.761,1.761c-20.8.233-41.7.233-62.5,0A2.731,2.731,0,0,1,.174,64.408c-.233-20.8-.233-41.7,0-62.5A2.773,2.773,0,0,1,2.258.056M60.741,5.6H5.629V60.715H60.741Z" transform="translate(0)" fill="#12263f"/>
        <path id="Trazado_876406" data-name="Trazado 876406" d="M55.522,67.068l39.945-.052c3.049.367,3.049,5.03,0,5.4H55.884c-2.887-.347-3.084-4.565-.362-5.344" transform="translate(-42.491 -53.131)" fill="#12263f"/>
        <path id="Trazado_876407" data-name="Trazado 876407" d="M54.8,227.068l24.989-.052c1.908.367,1.907,5.03,0,5.4H55.027c-1.806-.347-1.929-4.565-.226-5.344" transform="translate(-42.491 -179.98)" fill="#12263f"/>
        <path id="Trazado_876408" data-name="Trazado 876408" d="M55.674,120.137l23.144-.034c3.354,1.021,3.079,5.21-.611,5.578-6.9.689-14.919-.491-21.937-.021a2.8,2.8,0,0,1-.6-5.524" transform="translate(-42.435 -95.219)" fill="#12263f"/>
        <path id="Trazado_876409" data-name="Trazado 876409" d="M56.065,172.143c7.024.487,15.434-.848,22.3-.031,3.516.418,3.689,4.641.424,5.558H55.817c-3.167-.835-3.126-5.033.248-5.527" transform="translate(-42.405 -136.237)" fill="#12263f"/>
        <path id="Trazado_876410" data-name="Trazado 876410" d="M221.372,120.1a2.809,2.809,0,0,1,2.844,4.3c-.48.775-3.735,3.446-3.81,3.869,1.253,2.192,5.726,4.072,3.81,7.111-1.166,1.848-3.092,1.406-4.554.22a51.971,51.971,0,0,1-5.278-5.289,3.02,3.02,0,0,1,.1-4.044,51.35,51.35,0,0,1,5.286-5.281,3.766,3.766,0,0,1,1.6-.883" transform="translate(-169.387 -95.177)" fill="#12263f"/>
      </g>
    </g>
  </g>
</svg>
