<svg xmlns="http://www.w3.org/2000/svg" xmlns:xlink="http://www.w3.org/1999/xlink" width="139" height="139" viewBox="0 0 139 139">
  <defs>
    <clipPath id="clip-path">
      <rect id="Rect치ngulo_413214" data-name="Rect치ngulo 413214" width="65.063" height="69.602" fill="#12263f"/>
    </clipPath>
  </defs>
  <g id="Grupo_1115405" data-name="Grupo 1115405" transform="translate(-1143.999 -1135.923)">
    <g id="Grupo_1115018" data-name="Grupo 1115018" transform="translate(817.504 -6234.598)">
      <g id="Grupo_1114883" data-name="Grupo 1114883" transform="translate(465.495 7370.521) rotate(90)">
        <path id="Trazado_875690" data-name="Trazado 875690" d="M9.062,0,0,13.547,8.685,26.532,0,39.516,8.685,52.5,0,65.485,8.685,78.47,0,91.456l9.062,13.549,1.684-1.126L2.438,91.456,11.123,78.47,2.438,65.485,11.123,52.5,2.438,39.516l8.685-12.984L2.438,13.547,10.746,1.127Z" transform="translate(0 0)" fill="#12263f"/>
        <path id="Trazado_875691" data-name="Trazado 875691" d="M9.062,0,0,13.547,8.685,26.532,0,39.516,8.685,52.5,0,65.485,8.685,78.47,0,91.456l9.062,13.549,1.685-1.126L2.438,91.456,11.123,78.47,2.438,65.485,11.123,52.5,2.438,39.516l8.685-12.984L2.438,13.547,10.746,1.127Z" transform="translate(13.405 0)" fill="#12263f"/>
        <path id="Trazado_875692" data-name="Trazado 875692" d="M9.062,0,0,13.547,8.685,26.532,0,39.516,8.685,52.5,0,65.485,8.685,78.47,0,91.456l9.062,13.549,1.684-1.126L2.438,91.456,11.123,78.47,2.438,65.485,11.123,52.5,2.438,39.516l8.685-12.984L2.438,13.547,10.746,1.127Z" transform="translate(26.81 0)" fill="#12263f"/>
        <path id="Trazado_875693" data-name="Trazado 875693" d="M9.062,0,0,13.547,8.685,26.532,0,39.516,8.685,52.5,0,65.485,8.685,78.47,0,91.456l9.062,13.549,1.684-1.126L2.438,91.456,11.123,78.47,2.438,65.485,11.123,52.5,2.438,39.516l8.685-12.984L2.438,13.547,10.746,1.127Z" transform="translate(40.215 0)" fill="#12263f"/>
        <path id="Trazado_875694" data-name="Trazado 875694" d="M9.062,0,0,13.547,8.685,26.532,0,39.516,8.685,52.5,0,65.485,8.685,78.47,0,91.456l9.062,13.549,1.684-1.126L2.438,91.456,11.123,78.47,2.438,65.485,11.123,52.5,2.438,39.516l8.685-12.984L2.438,13.547,10.746,1.127Z" transform="translate(53.62 0)" fill="#12263f"/>
        <path id="Trazado_875695" data-name="Trazado 875695" d="M9.062,0,0,13.547,8.685,26.532,0,39.516,8.685,52.5,0,65.485,8.685,78.47,0,91.456l9.062,13.549,1.685-1.126L2.438,91.456,11.123,78.47,2.438,65.485,11.123,52.5,2.438,39.516l8.685-12.984L2.438,13.547,10.747,1.127Z" transform="translate(67.025 0)" fill="#12263f"/>
        <path id="Trazado_875696" data-name="Trazado 875696" d="M9.062,0,0,13.547,8.685,26.532,0,39.516,8.685,52.5,0,65.485,8.685,78.47,0,91.456l9.062,13.549,1.685-1.126L2.438,91.456,11.123,78.47,2.438,65.485,11.123,52.5,2.438,39.516l8.685-12.984L2.438,13.547,10.746,1.127Z" transform="translate(80.431 0)" fill="#12263f"/>
        <path id="Trazado_875697" data-name="Trazado 875697" d="M9.062,0,0,13.547,8.685,26.532,0,39.516,8.685,52.5,0,65.485,8.685,78.47,0,91.456l9.062,13.549,1.685-1.126L2.438,91.456,11.123,78.47,2.438,65.485,11.123,52.5,2.438,39.516l8.685-12.984L2.438,13.547,10.746,1.127Z" transform="translate(93.835 0)" fill="#12263f"/>
      </g>
      <g id="Grupo_1114882" data-name="Grupo 1114882" transform="translate(326.495 7379.938)">
        <rect id="Rect치ngulo_412780" data-name="Rect치ngulo 412780" width="123.655" height="122.5" rx="20" transform="translate(3.542 3.559)" fill="#d2eef6"/>
        <g id="Grupo_1114814" data-name="Grupo 1114814">
          <path id="Trazado_875775" data-name="Trazado 875775" d="M245.7,319.88a1.7,1.7,0,0,1-1.7-1.7v-5.1a8.512,8.512,0,0,1,8.5-8.5h40.468a11.916,11.916,0,0,0,11.9-11.9V252.28a8.512,8.512,0,0,1,8.5-8.5h5.1a1.7,1.7,0,0,1,0,3.4h-5.1a5.107,5.107,0,0,0-5.1,5.1v40.394a15.321,15.321,0,0,1-15.3,15.3H252.5a5.107,5.107,0,0,0-5.1,5.1v5.1a1.7,1.7,0,0,1-1.7,1.7" transform="translate(-189.434 -190.297)" fill="#12263f"/>
          <path id="Trazado_875777" data-name="Trazado 875777" d="M1.7,76.1A1.7,1.7,0,0,1,0,74.4V69.3a8.512,8.512,0,0,1,8.5-8.5H48.97a11.916,11.916,0,0,0,11.9-11.9V8.5a8.512,8.512,0,0,1,8.5-8.5h5.1a1.7,1.7,0,0,1,0,3.4h-5.1a5.107,5.107,0,0,0-5.1,5.1V48.9a15.321,15.321,0,0,1-15.3,15.3H8.5a5.107,5.107,0,0,0-5.1,5.1v5.1a1.7,1.7,0,0,1-1.7,1.7" transform="translate(76.176 76.102) rotate(180)" fill="#12263f"/>
        </g>
      </g>
    </g>
    <g id="Grupo_1115322" data-name="Grupo 1115322" transform="translate(1178.468 1174.066)">
      <g id="Grupo_1115321" data-name="Grupo 1115321" clip-path="url(#clip-path)">
        <path id="Trazado_876434" data-name="Trazado 876434" d="M9.53,21.854V25c0,.376.643,1.36,1.183,1.2l18.449-.008,2.166-1.955.11-2.385H25.907c-.748,0-2.125-1.185-2.041-2.08.352-5.5-.536-11.713-.028-17.124.147-1.565.641-2.348,2.275-2.5,2.824-.258,6.155.135,9.024.108A64.079,64.079,0,0,1,41.086,6.24l.093,13.533c.084.9-1.293,2.08-2.041,2.08H33.607l.11,2.385,2.166,1.955,18.449.008c.54.157,1.183-.827,1.183-1.2V21.854H49.984a4.359,4.359,0,0,1-1.634-.752,4.075,4.075,0,0,1-.641-1.962A118.886,118.886,0,0,1,47.7,2.867c.1-1.194.507-2.476,1.864-2.691C52.275-.255,56.176.391,59,.26a51.638,51.638,0,0,1,5.965,5.965l.1,13.573c-.37,3.139-5.452,1.76-7.6,2.056v3.8c0,1.008-1.86,2.732-2.985,2.655l-18.6.055-2.276,2.062V41.376H52.044a2.036,2.036,0,0,0-1.456-2.123c-4.241-.454-9.262.449-13.406-.042-1.8-.214-1.806-1.965,0-2.177a85.576,85.576,0,0,1,12.774.031,4.511,4.511,0,0,1,4.266,4.3c2.432.368,8.892-1.376,8.136,2.839-2.885,7.141-4.517,15.418-7.49,22.444A4.185,4.185,0,0,1,52,69.425c-12.48.308-25.033.126-37.537.092a4.272,4.272,0,0,1-3.633-3.959c.614-9.229-.826-19.537-.011-28.638a4.582,4.582,0,0,1,4.046-4.2A64.521,64.521,0,0,1,24.6,32.7a4.735,4.735,0,0,1,2.935,1.187c1.25.986,2.245,2.946,3.9,3.148V30.422l-2.276-2.062-18.6-.055c-1.125.077-2.985-1.646-2.985-2.655v-3.8c-1.886-.251-6.767.858-7.5-1.506L0,2.021A2.163,2.163,0,0,1,1.844.177,57.67,57.67,0,0,1,10.519.15,1.425,1.425,0,0,1,11.5.476a72.565,72.565,0,0,1,5.31,5.318,2.339,2.339,0,0,1,.482,1.036c-.221,3.956.485,8.634.027,12.505-.147,1.245-.832,2.519-2.253,2.519ZM9.747,2.115H2.264a2.177,2.177,0,0,0-.325.325V19.685H15.17V7.538H11.157c-.4,0-1.41-1.21-1.41-1.627Zm23.86,0H26.015v17.57H39.03V7.538H35.017c-.487,0-1.41-1.424-1.41-1.844Zm29.5,17.57V7.863a2.177,2.177,0,0,0-.325-.325h-3.9a2.7,2.7,0,0,1-1.193-1.193v-3.9a2.177,2.177,0,0,0-.325-.325H49.875v17.57ZM13.651,5.584c-.155-.3-1.71-2-1.951-1.732l0,1.735Zm23.86,0L35.778,3.851l0,1.736Zm23.86,0L59.638,3.851l0,1.736ZM32.025,26.234a1.152,1.152,0,0,0,.184,2.128,1.152,1.152,0,1,0-.184-2.128m-.587,15.142c-.09-.529.178-1.809-.093-2.184a21.255,21.255,0,0,1-2.061-.759c-1.054-.7-2.813-3.283-3.857-3.518-3.27.273-7.653-.53-10.787-.033a2.733,2.733,0,0,0-1.856,2.048V61.982c.315.049.285-.364.377-.6,2.115-5.336,3.365-11.982,5.727-17.051.672-1.441,2.036-2.959,3.765-2.959ZM60.5,43.545H22.219a3.271,3.271,0,0,0-1.421,1.4c-2.3,7.308-5.046,14.526-7.118,21.874.162.586,1.246.806,1.806.813,11.311-.644,23.517.827,34.723,0,.956-.07,2.051-.2,2.529-1.159Z" transform="translate(0 0)" fill="#12263f"/>
        <path id="Trazado_876435" data-name="Trazado 876435" d="M204.642,266.752c.526.162.823,1.6-.089,1.857a59.871,59.871,0,0,1-8.479-.012c-.845-.408-.48-1.845-.108-1.845Z" transform="translate(-153.141 -208.891)" fill="#12263f"/>
        <path id="Trazado_876436" data-name="Trazado 876436" d="M194.642,286.752c.526.162.823,1.6-.089,1.857a59.875,59.875,0,0,1-8.479-.012c-.845-.408-.48-1.845-.108-1.845Z" transform="translate(-145.31 -224.553)" fill="#12263f"/>
        <path id="Trazado_876437" data-name="Trazado 876437" d="M20.529,47.506A1.07,1.07,0,0,1,20.47,45.7a34.713,34.713,0,0,1,6.306-.1c.9.263.651,1.909.261,1.909-1.356,0-5.557.269-6.507,0" transform="translate(-15.662 -35.63)" fill="#12263f"/>
        <path id="Trazado_876438" data-name="Trazado 876438" d="M20.529,67.524a1.07,1.07,0,0,1-.059-1.808,28.773,28.773,0,0,1,6.252-.046c1.059.347.646,1.855.314,1.855-1.356,0-5.557.269-6.507,0" transform="translate(-15.662 -51.31)" fill="#12263f"/>
        <path id="Trazado_876439" data-name="Trazado 876439" d="M241.132,47.506c-.513-.159-.525-1.678.261-1.909a34.713,34.713,0,0,1,6.306.1c.8.341.421,1.808-.059,1.808-1.261,0-5.694.252-6.507,0" transform="translate(-188.546 -35.63)" fill="#12263f"/>
        <path id="Trazado_876440" data-name="Trazado 876440" d="M241.132,67.506c-.513-.159-.525-1.678.261-1.909a34.714,34.714,0,0,1,6.306.1c.8.341.421,1.808-.059,1.808-1.261,0-5.694.252-6.507,0" transform="translate(-188.546 -51.292)" fill="#12263f"/>
        <path id="Trazado_876441" data-name="Trazado 876441" d="M130.805,47.535c-.653-.2-.581-1.511.108-1.845a39.766,39.766,0,0,1,6.141-.066c1.023.31.746,1.91.259,1.91-1.255,0-5.7.251-6.507,0" transform="translate(-102.079 -35.659)" fill="#12263f"/>
        <path id="Trazado_876442" data-name="Trazado 876442" d="M130.805,67.535c-.653-.2-.581-1.511.108-1.845a39.766,39.766,0,0,1,6.141-.066c1.023.31.746,1.91.259,1.91-1.255,0-5.7.251-6.507,0" transform="translate(-102.079 -51.32)" fill="#12263f"/>
      </g>
    </g>
  </g>
</svg>
