<svg xmlns="http://www.w3.org/2000/svg" xmlns:xlink="http://www.w3.org/1999/xlink" width="400" height="259" viewBox="0 0 400 259">
  <defs>
    <clipPath id="clip-path">
      <rect id="Rectángulo_413154" data-name="Rectángulo 413154" width="353.41" height="258.42" fill="none"/>
    </clipPath>
  </defs>
  <g id="Grupo_1115233" data-name="Grupo 1115233" transform="translate(-179.571 -404)">
    <rect id="Rectángulo_412825" data-name="Rectángulo 412825" width="400" height="259" transform="translate(179.571 404)" fill="none"/>
    <g id="Grupo_1115232" data-name="Grupo 1115232" transform="translate(202.571 404)">
      <g id="Grupo_1115231" data-name="Grupo 1115231" clip-path="url(#clip-path)">
        <path id="Trazado_876142" data-name="Trazado 876142" d="M335.124,281.171c0,16.993-70.279,30.77-156.973,30.77S21.178,298.164,21.178,281.171,91.457,250.4,178.151,250.4s156.973,13.776,156.973,30.77" transform="translate(-5.618 -66.42)" fill="#b0c2e5"/>
        <path id="Trazado_876143" data-name="Trazado 876143" d="M405.175,197.218C391.587,208,372.754,191.332,377.258,177.7c2.328-7.049,7.852-12.654,8.96-20.107,1.145-7.7,4.785-10.949,10.731-15.6,2.333-1.823,3.266-5.177,4.351-7.912,2.048-5.162,5.109-9.509,10.033-12.279,6.069-3.414,18.013,1.191,19.5,8.842,1.806,9.285-10.242,13.68-14.186,19.643-3.385,5.118-.192,11.858-5.152,17.4-7.454,8.333,4.364,21.588-6.322,29.53" transform="translate(-99.889 -32.004)" fill="#88c8fc"/>
        <path id="Trazado_876144" data-name="Trazado 876144" d="M395.783,219.411a.551.551,0,0,1-.548-.5,103.075,103.075,0,0,1,22.153-73.7.551.551,0,0,1,.857.694,101.965,101.965,0,0,0-21.912,72.9.552.552,0,0,1-.5.6l-.05,0" transform="translate(-104.727 -38.464)" fill="#29275f"/>
        <path id="Trazado_876145" data-name="Trazado 876145" d="M394.745,196.154c-3.666,5.186-6.553,11-12.772,12.139-9.39,1.724-20.633,10.68-20.06,22.378-.164,23.818,36.167,23.333,38.972,5.642,1.324-8.362,3.447-12.009,11.993-13.236,5.118-.733,6.666-5.044,8.107-9.462a11.25,11.25,0,0,1,5.541-4.428c3.253-1.185,6.924-.671,10.4-.775,3.071-.091,6.139-.724,8.417-2.751a12.344,12.344,0,0,0,3.965-7.733,13.474,13.474,0,0,0-2.167-8.948,15.2,15.2,0,0,0-6.956-5.709,12.019,12.019,0,0,0-9.171-.02c-3.337,1.375-5.928,3.868-8.516,6.3-.017.018-.037.033-.054.051a13.6,13.6,0,0,1-12.785,3.086c-5.613-1.4-10.962-2.121-14.919,3.468" transform="translate(-95.993 -48.37)" fill="#508dd2"/>
        <path id="Trazado_876146" data-name="Trazado 876146" d="M361.118,257.515a.55.55,0,0,1-.472-.832,123.27,123.27,0,0,1,68.243-54.545.551.551,0,1,1,.337,1.049,122.168,122.168,0,0,0-67.633,54.058.551.551,0,0,1-.475.27" transform="translate(-95.642 -53.611)" fill="#29275f"/>
        <path id="Trazado_876147" data-name="Trazado 876147" d="M53.055,210.629c13.588,10.779,32.421-5.886,27.917-19.521-2.328-7.049-7.852-12.654-8.96-20.107-1.145-7.7-4.785-10.949-10.731-15.6-2.333-1.823-3.266-5.177-4.351-7.912-2.048-5.162-5.109-9.509-10.033-12.279-6.069-3.414-18.013,1.191-19.5,8.842-1.806,9.285,10.242,13.68,14.186,19.643,3.385,5.118.192,11.858,5.152,17.4,7.454,8.333-4.364,21.588,6.322,29.53" transform="translate(-7.218 -35.562)" fill="#508dd2"/>
        <path id="Trazado_876148" data-name="Trazado 876148" d="M73.6,232.821l-.051,0a.551.551,0,0,1-.5-.6,101.963,101.963,0,0,0-21.912-72.9.551.551,0,1,1,.856-.694,103.077,103.077,0,0,1,22.153,73.7.552.552,0,0,1-.548.5" transform="translate(-13.532 -42.021)" fill="#29275f"/>
        <path id="Trazado_876149" data-name="Trazado 876149" d="M54.659,205.272c3.666,5.186,6.553,11,12.772,12.14,9.389,1.724,20.633,10.68,20.06,22.377.164,23.818-36.167,23.333-38.972,5.642C47.2,237.07,45.072,233.423,36.526,232.2c-5.118-.733-6.666-5.043-8.107-9.462a11.25,11.25,0,0,0-5.541-4.428c-3.253-1.185-6.924-.671-10.4-.775-3.071-.091-6.139-.724-8.417-2.751a12.343,12.343,0,0,1-3.964-7.733A13.474,13.474,0,0,1,2.259,198.1a15.2,15.2,0,0,1,6.956-5.708,12.013,12.013,0,0,1,9.171-.02c3.337,1.374,5.928,3.867,8.516,6.3.017.018.037.033.054.052A13.6,13.6,0,0,0,39.74,201.8c5.613-1.4,10.962-2.121,14.919,3.468" transform="translate(0 -50.788)" fill="#88c8fc"/>
        <path id="Trazado_876150" data-name="Trazado 876150" d="M94.952,266.634a.552.552,0,0,1-.475-.27,122.167,122.167,0,0,0-67.633-54.058.551.551,0,0,1,.337-1.049A123.269,123.269,0,0,1,95.425,265.8a.551.551,0,0,1-.473.832" transform="translate(-7.019 -56.03)" fill="#29275f"/>
        <path id="Trazado_876151" data-name="Trazado 876151" d="M325.561,316.39H48.431a5.6,5.6,0,0,1-5.6-5.6v-2.356H331.16v2.356a5.6,5.6,0,0,1-5.6,5.6" transform="translate(-11.362 -81.814)" fill="#29275f"/>
        <path id="Trazado_876152" data-name="Trazado 876152" d="M301.079,248.691H72.912l-30.08,43.9H331.159Z" transform="translate(-11.362 -65.966)" fill="#fff"/>
        <path id="Trazado_876153" data-name="Trazado 876153" d="M308.052,51.717H87.741a3.812,3.812,0,0,0-3.813,3.813V196.443H311.865V55.53a3.812,3.812,0,0,0-3.813-3.813" transform="translate(-22.262 -13.718)" fill="#29275f"/>
        <rect id="Rectángulo_413140" data-name="Rectángulo 413140" width="213.985" height="121.504" transform="translate(68.641 49.994)" fill="#67a4e9"/>
        <path id="Trazado_876154" data-name="Trazado 876154" d="M325.362,316.742H48.232a6.157,6.157,0,0,1-6.15-6.15v-2.356a.551.551,0,0,1,.551-.551H330.96a.551.551,0,0,1,.551.551v2.356a6.156,6.156,0,0,1-6.149,6.15M43.184,308.788v1.8a5.053,5.053,0,0,0,5.048,5.048h277.13a5.053,5.053,0,0,0,5.047-5.048v-1.8Z" transform="translate(-11.162 -81.615)" fill="#29275f"/>
        <path id="Trazado_876155" data-name="Trazado 876155" d="M330.96,292.941H42.633a.551.551,0,0,1-.455-.863l30.081-43.9a.55.55,0,0,1,.454-.24H300.879a.552.552,0,0,1,.455.24l30.081,43.9a.551.551,0,0,1-.455.863m-287.281-1.1H329.914l-29.325-42.8H73Z" transform="translate(-11.162 -65.767)" fill="#29275f"/>
        <path id="Trazado_876156" data-name="Trazado 876156" d="M311.666,196.8H83.729a.551.551,0,0,1-.551-.551V55.331a4.368,4.368,0,0,1,4.364-4.364H307.853a4.368,4.368,0,0,1,4.364,4.364V196.244a.551.551,0,0,1-.551.551m-227.386-1.1H311.115V55.331a3.265,3.265,0,0,0-3.262-3.262H87.542a3.265,3.265,0,0,0-3.262,3.262Z" transform="translate(-22.063 -13.519)" fill="#29275f"/>
        <path id="Trazado_876157" data-name="Trazado 876157" d="M307.208,189.9H93.223a.551.551,0,0,1-.551-.551V67.844a.551.551,0,0,1,.551-.551H307.208a.551.551,0,0,1,.551.551v121.5a.551.551,0,0,1-.551.551M93.774,188.8H306.657V68.4H93.774Z" transform="translate(-24.582 -17.85)" fill="#29275f"/>
        <rect id="Rectángulo_413141" data-name="Rectángulo 413141" width="117.247" height="5.326" transform="translate(117.011 176.529)" fill="#fff"/>
        <path id="Trazado_876158" data-name="Trazado 876158" d="M222.918,58.4a3.591,3.591,0,1,1-3.591-3.591,3.591,3.591,0,0,1,3.591,3.591" transform="translate(-57.224 -14.539)" fill="#67a4e9"/>
        <path id="Trazado_876159" data-name="Trazado 876159" d="M265.26,299.412H182.572a.551.551,0,0,1-.455-.863l8.627-12.589a.551.551,0,0,1,.455-.24h65.435a.553.553,0,0,1,.456.24l8.626,12.589a.551.551,0,0,1-.455.863m-81.643-1.1h80.6l-7.871-11.487H191.489Z" transform="translate(-48.282 -75.788)" fill="#29275f"/>
        <path id="Trazado_876160" data-name="Trazado 876160" d="M118.768,261.795H103.519a.551.551,0,0,1-.481-.821l3.913-6.965a.552.552,0,0,1,.481-.281h14.65a.551.551,0,0,1,.5.788l-3.314,6.965a.551.551,0,0,1-.5.314m-14.307-1.1h13.959l2.79-5.863H107.754Z" transform="translate(-27.313 -67.302)" fill="#29275f"/>
        <path id="Trazado_876161" data-name="Trazado 876161" d="M154.6,261.795H139.352a.551.551,0,0,1-.509-.761l2.88-6.965a.551.551,0,0,1,.509-.34h14.651a.55.55,0,0,1,.524.722l-2.282,6.965a.551.551,0,0,1-.524.38m-14.425-1.1H154.2l1.921-5.863H142.6Z" transform="translate(-36.818 -67.302)" fill="#29275f"/>
        <path id="Trazado_876162" data-name="Trazado 876162" d="M190.435,261.795H175.186a.552.552,0,0,1-.533-.692l1.847-6.965a.551.551,0,0,1,.533-.409h14.65a.55.55,0,0,1,.543.648l-1.25,6.965a.551.551,0,0,1-.542.453m-14.533-1.1h14.071l1.052-5.863H177.458Z" transform="translate(-46.323 -67.302)" fill="#29275f"/>
        <path id="Trazado_876163" data-name="Trazado 876163" d="M226.267,261.795H211.018a.552.552,0,0,1-.547-.616l.816-6.964a.551.551,0,0,1,.547-.487h14.652a.552.552,0,0,1,.551.568l-.218,6.965a.551.551,0,0,1-.551.534m-14.629-1.1h14.1l.183-5.863H212.324Z" transform="translate(-55.827 -67.302)" fill="#29275f"/>
        <path id="Trazado_876164" data-name="Trazado 876164" d="M262.021,261.795H246.772a.552.552,0,0,1-.551-.534L246,254.3a.559.559,0,0,1,.156-.4.551.551,0,0,1,.4-.167h14.652a.551.551,0,0,1,.547.487l.815,6.965a.55.55,0,0,1-.547.615m-14.715-1.1h14.1l-.686-5.863H247.124Z" transform="translate(-65.253 -67.302)" fill="#29275f"/>
        <path id="Trazado_876165" data-name="Trazado 876165" d="M297.483,261.795H282.234a.551.551,0,0,1-.542-.454l-1.25-6.965a.55.55,0,0,1,.542-.648h14.651a.551.551,0,0,1,.533.409l1.848,6.965a.551.551,0,0,1-.533.692m-14.788-1.1h14.071l-1.555-5.863H281.642Z" transform="translate(-74.386 -67.302)" fill="#29275f"/>
        <path id="Trazado_876166" data-name="Trazado 876166" d="M332.943,261.795H317.694a.552.552,0,0,1-.524-.38l-2.281-6.965a.55.55,0,0,1,.524-.722h14.65a.55.55,0,0,1,.509.34l2.88,6.965a.551.551,0,0,1-.509.761m-14.849-1.1h14.025L329.7,254.83H316.174Z" transform="translate(-83.518 -67.302)" fill="#29275f"/>
        <path id="Trazado_876167" data-name="Trazado 876167" d="M368.4,261.795H353.154a.55.55,0,0,1-.5-.315l-3.314-6.964a.551.551,0,0,1,.5-.788h14.65a.55.55,0,0,1,.481.281l3.913,6.965a.551.551,0,0,1-.481.821m-14.9-1.1h13.959l-3.293-5.863H350.712Z" transform="translate(-92.65 -67.302)" fill="#29275f"/>
        <path id="Trazado_876168" data-name="Trazado 876168" d="M96.309,275.093H81.06a.551.551,0,0,1-.481-.821l3.913-6.965a.55.55,0,0,1,.48-.281H99.624a.551.551,0,0,1,.5.788l-3.315,6.965a.551.551,0,0,1-.5.315M82,273.99H95.962l2.79-5.863H85.3Z" transform="translate(-21.355 -70.829)" fill="#29275f"/>
        <path id="Trazado_876169" data-name="Trazado 876169" d="M132.142,275.093H116.893a.551.551,0,0,1-.509-.761l2.88-6.965a.55.55,0,0,1,.509-.341h14.651a.552.552,0,0,1,.524.723l-2.282,6.965a.551.551,0,0,1-.524.38m-14.425-1.1h14.025l1.921-5.863H120.142Z" transform="translate(-30.86 -70.829)" fill="#29275f"/>
        <path id="Trazado_876170" data-name="Trazado 876170" d="M167.975,275.093H152.727a.552.552,0,0,1-.533-.692l1.847-6.965a.552.552,0,0,1,.533-.41h14.65a.551.551,0,0,1,.542.649l-1.249,6.965a.552.552,0,0,1-.543.453m-14.532-1.1h14.071l1.052-5.863H155Z" transform="translate(-40.365 -70.829)" fill="#29275f"/>
        <path id="Trazado_876171" data-name="Trazado 876171" d="M203.808,275.093H188.559a.552.552,0,0,1-.547-.615l.815-6.965a.553.553,0,0,1,.548-.488h14.65a.551.551,0,0,1,.551.569l-.217,6.965a.551.551,0,0,1-.55.534m-14.629-1.1h14.095l.184-5.863H189.865Z" transform="translate(-49.87 -70.829)" fill="#29275f"/>
        <path id="Trazado_876172" data-name="Trazado 876172" d="M239.562,275.093H224.314a.552.552,0,0,1-.551-.534l-.217-6.965a.551.551,0,0,1,.551-.569h14.65a.552.552,0,0,1,.547.488l.815,6.965a.55.55,0,0,1-.547.615m-14.714-1.1h14.1l-.686-5.863H224.665Z" transform="translate(-59.296 -70.829)" fill="#29275f"/>
        <path id="Trazado_876173" data-name="Trazado 876173" d="M275.023,275.093H259.775a.551.551,0,0,1-.542-.454l-1.25-6.965a.551.551,0,0,1,.542-.649h14.651a.552.552,0,0,1,.533.41l1.847,6.966a.55.55,0,0,1-.533.691m-14.788-1.1h14.071l-1.555-5.863H259.183Z" transform="translate(-68.429 -70.829)" fill="#29275f"/>
        <path id="Trazado_876174" data-name="Trazado 876174" d="M310.483,275.093H295.235a.552.552,0,0,1-.524-.38l-2.282-6.965a.551.551,0,0,1,.524-.723H307.6a.55.55,0,0,1,.509.341l2.879,6.965a.551.551,0,0,1-.509.761m-14.848-1.1H309.66l-2.424-5.863H293.714Z" transform="translate(-77.561 -70.829)" fill="#29275f"/>
        <path id="Trazado_876175" data-name="Trazado 876175" d="M345.943,275.093H330.694a.552.552,0,0,1-.5-.315l-3.315-6.965a.552.552,0,0,1,.5-.788h14.651a.551.551,0,0,1,.481.281l3.913,6.965a.551.551,0,0,1-.481.821m-14.9-1.1H345l-3.292-5.863H328.252Z" transform="translate(-86.692 -70.829)" fill="#29275f"/>
        <path id="Trazado_876176" data-name="Trazado 876176" d="M381.035,275.093H365.786a.552.552,0,0,1-.5-.315l-3.315-6.965a.552.552,0,0,1,.5-.788h14.65a.55.55,0,0,1,.48.281l3.913,6.965a.551.551,0,0,1-.481.821m-14.9-1.1h13.959l-3.293-5.863H363.344Z" transform="translate(-96.001 -70.829)" fill="#29275f"/>
        <path id="Trazado_876177" data-name="Trazado 876177" d="M279.159,34.312V152.646A12.752,12.752,0,0,1,266.408,165.4H166.342a12.752,12.752,0,0,1-12.751-12.751V34.312a12.752,12.752,0,0,1,12.751-12.751H266.408a12.752,12.752,0,0,1,12.751,12.751" transform="translate(-40.741 -5.719)" fill="#fff"/>
        <path id="Trazado_876178" data-name="Trazado 876178" d="M269.262,30.181a3.154,3.154,0,1,1-3.154-3.154,3.154,3.154,0,0,1,3.154,3.154" transform="translate(-69.75 -7.169)" fill="#88c8fc"/>
        <path id="Trazado_876179" data-name="Trazado 876179" d="M288.121,30.181a3.154,3.154,0,1,1-3.154-3.154,3.154,3.154,0,0,1,3.154,3.154" transform="translate(-74.752 -7.169)" fill="#508dd2"/>
        <path id="Trazado_876180" data-name="Trazado 876180" d="M306.98,30.181a3.154,3.154,0,1,1-3.154-3.154,3.154,3.154,0,0,1,3.154,3.154" transform="translate(-79.755 -7.169)" fill="#29275f"/>
        <path id="Trazado_876181" data-name="Trazado 876181" d="M266.209,165.749H166.143a13.317,13.317,0,0,1-13.3-13.3V34.113a13.317,13.317,0,0,1,13.3-13.3H266.209a13.317,13.317,0,0,1,13.3,13.3V152.447a13.318,13.318,0,0,1-13.3,13.3M166.143,21.913a12.214,12.214,0,0,0-12.2,12.2V152.447a12.214,12.214,0,0,0,12.2,12.2H266.209a12.214,12.214,0,0,0,12.2-12.2V34.113a12.214,12.214,0,0,0-12.2-12.2Z" transform="translate(-40.542 -5.52)" fill="#29275f"/>
        <path id="Trazado_876182" data-name="Trazado 876182" d="M278.96,39.267H153.391a.551.551,0,0,1,0-1.1H278.96a.551.551,0,0,1,0,1.1" transform="translate(-40.541 -10.123)" fill="#29275f"/>
        <path id="Trazado_876183" data-name="Trazado 876183" d="M202.657,49.19l-13.638-5.775L175.381,49.19V17.03h27.276Z" transform="translate(-46.52 -4.517)" fill="#508dd2"/>
        <rect id="Rectángulo_413142" data-name="Rectángulo 413142" width="31.635" height="34.165" transform="translate(122.201 52.232)" fill="#88c8fc"/>
        <rect id="Rectángulo_413143" data-name="Rectángulo 413143" width="70.866" height="2.903" transform="translate(158.202 52.232)" fill="#c7c7c7"/>
        <rect id="Rectángulo_413144" data-name="Rectángulo 413144" width="70.866" height="2.903" transform="translate(158.202 60.004)" fill="#c7c7c7"/>
        <rect id="Rectángulo_413145" data-name="Rectángulo 413145" width="70.866" height="2.903" transform="translate(158.202 67.777)" fill="#c7c7c7"/>
        <rect id="Rectángulo_413146" data-name="Rectángulo 413146" width="70.866" height="2.903" transform="translate(158.202 75.549)" fill="#c7c7c7"/>
        <rect id="Rectángulo_413147" data-name="Rectángulo 413147" width="40.956" height="2.903" transform="translate(158.202 83.321)" fill="#c7c7c7"/>
        <rect id="Rectángulo_413148" data-name="Rectángulo 413148" width="106.867" height="2.903" transform="translate(122.201 98.413)" fill="#c7c7c7"/>
        <rect id="Rectángulo_413149" data-name="Rectángulo 413149" width="106.867" height="2.903" transform="translate(122.201 106.186)" fill="#c7c7c7"/>
        <rect id="Rectángulo_413150" data-name="Rectángulo 413150" width="106.867" height="2.903" transform="translate(122.201 113.958)" fill="#c7c7c7"/>
        <rect id="Rectángulo_413151" data-name="Rectángulo 413151" width="106.867" height="2.903" transform="translate(122.201 121.731)" fill="#c7c7c7"/>
        <rect id="Rectángulo_413152" data-name="Rectángulo 413152" width="76.957" height="2.903" transform="translate(122.201 129.504)" fill="#c7c7c7"/>
        <rect id="Rectángulo_413153" data-name="Rectángulo 413153" width="49.203" height="8.113" transform="translate(179.427 37.999)" fill="#88c8fc"/>
        <path id="Trazado_876184" data-name="Trazado 876184" d="M238.922,204.93a.552.552,0,0,1-.238-.054l-11.258-5.37a.551.551,0,1,1,.475-.994l11.021,5.256,11.02-5.256a.551.551,0,1,1,.475.994l-11.259,5.37a.548.548,0,0,1-.237.054" transform="translate(-60.242 -52.642)" fill="#29275f"/>
        <path id="Trazado_876185" data-name="Trazado 876185" d="M393.661,293.1l-60.753-2.9-10.735-40.467s-17.97-18.982-26.518-32.565-11.867-18.1-12.6-22.541c-.649-3.968-5.314-32.766-6.306-38.9a2.107,2.107,0,0,1,.553-1.813,1.307,1.307,0,0,1,.267-.248c2.06-1.555,7.078-3.625,12.782,6.219,6.572,11.342,7.527,25.66,7.669,28.989l2.328,3.93,6.363,10.732,7.955,13.411a27,27,0,0,0,14.252-8.451l-7.946-13.412-6.362-10.731-2.5-4.226-.029-.038-17.095-24.048s-8.414-3.644-16.7-7.555-10.941-17.5-4.9-16.579c2.289.353,7.345,2.2,12.735,4.369,8.776,3.511,18.419,7.832,18.419,7.832,3.778-3.444,10.207-1.459,10.207-1.459s4.513-2.385,9.023-1.727S348.892,161,352.135,167.434s10.874,66.916,10.874,66.916Z" transform="translate(-71.643 -34.975)" fill="#fff"/>
        <path id="Trazado_876186" data-name="Trazado 876186" d="M282.036,136.793a8.09,8.09,0,0,1-1.08,3.266,2.7,2.7,0,0,1-3.309,1.01l-5.843-2.4a2.735,2.735,0,0,1-1.672-2.839,7,7,0,0,1,.993-3.013,2.692,2.692,0,0,1,3.153-1.036l5.957,2.082a2.735,2.735,0,0,1,1.8,2.935" transform="translate(-71.648 -34.913)" fill="#afd4ef"/>
        <path id="Trazado_876187" data-name="Trazado 876187" d="M286.9,172.383c-1.555,1.268-3.978,1.344-5.261,1.283a1.069,1.069,0,0,1-1-.9l-1.367-8.439a1.094,1.094,0,0,1,.408-1.026,6.505,6.505,0,0,1,4.574-1.162,1.075,1.075,0,0,1,.876.6c1.049,2.256,1.894,7.019,2.159,8.635a1.078,1.078,0,0,1-.385,1" transform="translate(-74.074 -42.998)" fill="#afd4ef"/>
        <path id="Trazado_876188" data-name="Trazado 876188" d="M311.034,178.767a27.046,27.046,0,0,1-14.261,8.452l-2.328-3.93c-.143-3.329-1.1-17.647-7.669-28.989-5.7-9.845-10.721-7.774-12.782-6.22a1.349,1.349,0,0,0-.267.248l-17.113-28.893a16.5,16.5,0,0,0,2.023,2.442l.162.162a7.672,7.672,0,0,0,.868.716,2.832,2.832,0,0,0,.276.2,4.3,4.3,0,0,0,.525.3,3.237,3.237,0,0,0,.372.172c.123.048.248.1.381.134.115.028.238.057.362.076h.019a2.445,2.445,0,0,0,.372.029,2.359,2.359,0,0,0,1.2-.334,4.362,4.362,0,0,0,1.794-4.168.723.723,0,0,0-.01-.143,6.294,6.294,0,0,0-.067-.773c0-.048-.01-.086-.01-.124-.019-.114-.038-.219-.048-.314a.03.03,0,0,1-.01-.019,10.944,10.944,0,0,0-.267-1.173c.019.019.057.057.105.115a.934.934,0,0,1,.085.1c.038.038.076.086.115.124.143.143.325.314.534.506a2.294,2.294,0,0,0,.277.248c.115.1.229.2.353.287a.671.671,0,0,0,.1.076,4.744,4.744,0,0,0,.439.314l.115.086a7.73,7.73,0,0,0,.782.429,4,4,0,0,0,.42.181,3.654,3.654,0,0,0,.429.134,1.589,1.589,0,0,0,.419.085,2.768,2.768,0,0,0,1.154-.057,2.29,2.29,0,0,0,.343-.114,3.1,3.1,0,0,0,.353-.181,2.106,2.106,0,0,0,.734-.744,1.509,1.509,0,0,0,.124-.209v-.01a3.527,3.527,0,0,0,.172-.439.218.218,0,0,0,.029-.105,1.8,1.8,0,0,0,.1-.392,3.727,3.727,0,0,0,.057-.458.186.186,0,0,0,.01-.076,7.322,7.322,0,0,0,.01-1.011c-.01-.134-.019-.267-.029-.391a10.989,10.989,0,0,0-.181-1.269,2.856,2.856,0,0,0-.086-.41c-.038-.191-.076-.381-.124-.563s-.1-.372-.143-.544c-.22-.792-.43-1.364-.487-1.507l11.781,19.87c-5.389-2.166-10.445-4.016-12.735-4.37-6.038-.925-3.386,12.668,4.9,16.579s16.7,7.555,16.7,7.555L308.506,174.5l.029.038Z" transform="translate(-68.068 -29.396)" fill="#e6ac4b"/>
        <path id="Trazado_876189" data-name="Trazado 876189" d="M331.894,214.027a26.973,26.973,0,0,1-14.261,8.452l-6.362-10.732a27.044,27.044,0,0,0,14.261-8.451Z" transform="translate(-82.566 -53.925)" fill="#c7c7c7"/>
        <path id="Trazado_876190" data-name="Trazado 876190" d="M342.137,231.313a27.006,27.006,0,0,1-14.252,8.452l-7.956-13.412A26.968,26.968,0,0,0,334.19,217.9Z" transform="translate(-84.862 -57.799)" fill="#fff"/>
        <path id="Trazado_876191" data-name="Trazado 876191" d="M270.766,111.737a7.1,7.1,0,0,1-.01,1.011.187.187,0,0,1-.01.076,3.746,3.746,0,0,1-.057.458c-.01.038-.019.086-.029.124a.474.474,0,0,1-.029.124.788.788,0,0,1-.038.143c-.01.038-.019.067-.029.105a3.437,3.437,0,0,1-.171.439v.01a1.521,1.521,0,0,1-.124.21,2.108,2.108,0,0,1-.735.744,3.084,3.084,0,0,1-.353.181,2.441,2.441,0,0,1-.343.115,2.771,2.771,0,0,1-1.155.057,3.671,3.671,0,0,1-.42-.086,3.741,3.741,0,0,1-.429-.134,3.826,3.826,0,0,1-.42-.181,7.889,7.889,0,0,1-.782-.429l-.115-.086a4.707,4.707,0,0,1-.439-.315.625.625,0,0,1-.095-.076c-.124-.085-.239-.19-.353-.286a3.41,3.41,0,0,1-.276-.248c-.21-.19-.392-.362-.534-.506a.728.728,0,0,0-.115-.123.858.858,0,0,0-.086-.1c-.048-.057-.086-.1-.105-.115a10.86,10.86,0,0,1,.267,1.173.03.03,0,0,0,.01.019c.01.1.029.2.048.314,0,.038.01.076.01.124a6.453,6.453,0,0,1,.066.773.712.712,0,0,1,.01.143,4.363,4.363,0,0,1-1.793,4.169,2.37,2.37,0,0,1-1.2.334,2.429,2.429,0,0,1-.372-.029h-.019c-.124-.019-.248-.048-.363-.076-.133-.038-.257-.086-.381-.134a3.051,3.051,0,0,1-.372-.171,4.112,4.112,0,0,1-.525-.306,2.8,2.8,0,0,1-.277-.2,7.665,7.665,0,0,1-.868-.716l-.162-.162a16.45,16.45,0,0,1-2.022-2.442c-.076-.124-.124-.191-.124-.191l-2.766-14.2a11.7,11.7,0,0,0,4.96-4.655l12.067,10.407a.074.074,0,0,0,.01.029c.057.143.267.715.486,1.507q.072.257.143.544c.048.181.086.372.124.563a2.936,2.936,0,0,1,.085.41,10.944,10.944,0,0,1,.181,1.269c.01.133.019.267.029.391" transform="translate(-67.024 -25.628)" fill="#fff"/>
        <path id="Trazado_876192" data-name="Trazado 876192" d="M257.286,95.478a11.694,11.694,0,0,1-4.96,4.655l-.982-5.055,2.289-2.757Z" transform="translate(-66.67 -24.488)" fill="#29275f"/>
        <path id="Trazado_876193" data-name="Trazado 876193" d="M332.3,293.2a.551.551,0,0,1-.532-.41L321.479,249.8c-1.439-1.528-18.334-19.589-26.488-32.549-1.487-2.361-2.815-4.449-4-6.309-5.7-8.954-8.054-12.659-8.679-16.435-.649-3.969-5.313-32.767-6.306-38.9a2.652,2.652,0,0,1,.7-2.281,1.723,1.723,0,0,1,.342-.313,6.514,6.514,0,0,1,5.283-1.3c2.89.585,5.683,3.17,8.3,7.686,6.43,11.1,7.547,24.906,7.738,29.1l16.372,27.612a26.768,26.768,0,0,0,13.3-7.888L311.438,180.2,294.43,156.28c-1.14-.5-8.958-3.905-16.577-7.5-6.442-3.039-9.442-11.372-8.245-15.292a3.077,3.077,0,0,1,3.659-2.329c2.046.315,6.371,1.8,12.857,4.4,7.793,3.118,16.369,6.918,18.119,7.7,3.618-2.985,9.075-1.722,10.248-1.4a17.07,17.07,0,0,1,9.159-1.683c5.017.744,25.64,20.591,28.781,26.816,3.223,6.371,10.463,63.4,10.917,67l31.1,58.408a.551.551,0,0,1-.98.5L362.322,234.4a.538.538,0,0,1-.057-.183c-.076-.6-7.646-60.465-10.819-66.736-3.263-6.467-23.643-25.582-27.959-26.222-4.286-.623-8.642,1.647-8.685,1.669a.551.551,0,0,1-.42.039c-.062-.018-6.178-1.846-9.674,1.34a.551.551,0,0,1-.6.1c-.1-.043-9.734-4.358-18.4-7.824-6.319-2.538-10.68-4.037-12.614-4.336a1.993,1.993,0,0,0-2.439,1.562c-1.092,3.576,1.905,11.259,7.661,13.974,8.186,3.862,16.6,7.511,16.686,7.547a.549.549,0,0,1,.231.186l17.093,24.048c.009.012.046.064.054.076l16.807,28.369a.551.551,0,0,1-.053.635,27.283,27.283,0,0,1-14.572,8.639.545.545,0,0,1-.575-.261L297.349,188.95a.544.544,0,0,1-.076-.256c-.17-3.96-1.22-17.732-7.6-28.737-2.451-4.231-5-6.639-7.564-7.158a5.447,5.447,0,0,0-4.408,1.1.852.852,0,0,0-.171.154,1.585,1.585,0,0,0-.439,1.372c.993,6.14,5.658,34.936,6.306,38.9.588,3.553,2.91,7.2,8.522,16.023,1.184,1.861,2.514,3.951,4,6.314,8.42,13.38,26.273,32.291,26.452,32.48a.551.551,0,0,1,.132.237L332.836,292.5a.551.551,0,0,1-.533.692" transform="translate(-71.446 -34.777)" fill="#29275f"/>
        <path id="Trazado_876194" data-name="Trazado 876194" d="M302.936,198.3a.553.553,0,0,1-.475-.27l-8.69-14.662a.559.559,0,0,1-.076-.257c-.17-3.96-1.22-17.732-7.6-28.736-2.451-4.231-5-6.64-7.564-7.159a5.449,5.449,0,0,0-4.408,1.1.8.8,0,0,0-.17.154.555.555,0,0,1-.469.2.55.55,0,0,1-.435-.269l-17.112-28.893a.551.551,0,0,1,.93-.591,15.854,15.854,0,0,0,1.95,2.357l.168.168a6.876,6.876,0,0,0,.791.651,1.7,1.7,0,0,0,.194.144l.085.059a3.67,3.67,0,0,0,.445.259,2.868,2.868,0,0,0,.334.156c.108.042.217.085.334.118.075.018.17.041.267.057l.047,0a1.821,1.821,0,0,0,1.212-.236c1.078-.636,1.59-1.872,1.522-3.672-.006-.029-.009-.116-.01-.145a5.687,5.687,0,0,0-.06-.7.486.486,0,0,1-.007-.087q0-.033-.007-.062c-.018-.105-.031-.184-.04-.252a.49.49,0,0,1-.012-.055h0a9.109,9.109,0,0,0-.228-1.015c-.017-.062-.029-.107-.034-.13a.551.551,0,0,1,.932-.5c.029.03.076.077.134.147a.7.7,0,0,1,.061.064,1.5,1.5,0,0,1,.148.165c.1.093.271.258.473.442a2.111,2.111,0,0,0,.251.226l.105.088a2.582,2.582,0,0,0,.217.174.533.533,0,0,1,.076.064,5.164,5.164,0,0,0,.436.314l.155.113a7.367,7.367,0,0,0,.682.37l.07.032a2.452,2.452,0,0,0,.292.125,3.226,3.226,0,0,0,.387.122,1.23,1.23,0,0,0,.326.071,2.317,2.317,0,0,0,.971-.039,1.912,1.912,0,0,0,.277-.091,2.538,2.538,0,0,0,.287-.149,1.568,1.568,0,0,0,.54-.55,1.5,1.5,0,0,0,.082-.131c.005-.013.011-.027.017-.04a3.029,3.029,0,0,0,.145-.37c0-.012.037-.13.042-.142a.852.852,0,0,1,.029-.111c0-.021.009-.057.01-.062s.017-.071.018-.076l.017-.073a3.244,3.244,0,0,0,.043-.363.458.458,0,0,1,.012-.085,6.972,6.972,0,0,0,.006-.937l-.028-.38a10.562,10.562,0,0,0-.17-1.2,2.739,2.739,0,0,0-.077-.371c-.046-.223-.081-.4-.126-.573-.048-.194-.1-.371-.141-.538-.209-.754-.413-1.312-.467-1.449a.551.551,0,0,1,.986-.486l11.78,19.869a.551.551,0,0,1-.68.792c-6.317-2.538-10.679-4.037-12.613-4.335a1.992,1.992,0,0,0-2.438,1.561c-1.092,3.576,1.905,11.259,7.661,13.974,8.185,3.863,16.6,7.511,16.686,7.547a.544.544,0,0,1,.23.187l17.094,24.048c.009.013.046.064.054.077l8.862,14.956a.552.552,0,0,1-.053.636,27.247,27.247,0,0,1-14.583,8.639.516.516,0,0,1-.1.01m-8.145-15.375,8.417,14.2a26.732,26.732,0,0,0,13.314-7.887l-8.66-14.618L290.853,150.7c-1.14-.5-8.959-3.905-16.578-7.5-6.442-3.04-9.442-11.372-8.245-15.293a3.079,3.079,0,0,1,3.66-2.329c1.882.29,5.7,1.569,11.352,3.8l-8.982-15.151c.027.2.051.416.071.637l.029.4a7.508,7.508,0,0,1-.01,1.1.413.413,0,0,1-.012.123,4.571,4.571,0,0,1-.061.464c0,.007-.018.076-.018.083a1.626,1.626,0,0,1-.051.22,1.345,1.345,0,0,1-.043.154c0,.018-.01.035-.01.038a4.122,4.122,0,0,1-.193.521.572.572,0,0,1-.029.072,2.071,2.071,0,0,1-.168.283,2.572,2.572,0,0,1-.9.9,3.569,3.569,0,0,1-.427.219,3.018,3.018,0,0,1-.422.14,3.309,3.309,0,0,1-1.367.068,2,2,0,0,1-.525-.112,4.659,4.659,0,0,1-.832-.3,8.537,8.537,0,0,1-.9-.489l-.154-.113a4.62,4.62,0,0,1-.455-.327.777.777,0,0,1-.1-.078c-.079-.057-.156-.12-.231-.184a7.129,7.129,0,0,1,.061.734,1.44,1.44,0,0,1,.011.2c.084,2.183-.63,3.8-2.065,4.643a2.919,2.919,0,0,1-1.905.381l-.051-.005c-.143-.022-.284-.054-.414-.087-.166-.047-.306-.1-.445-.154a3.9,3.9,0,0,1-.436-.2,4.51,4.51,0,0,1-.568-.332l-.045-.03,14.277,24.106a6.455,6.455,0,0,1,5.084-1.151c2.89.584,5.682,3.17,8.3,7.686,6.43,11.1,7.546,24.906,7.737,29.1" transform="translate(-67.869 -29.196)" fill="#29275f"/>
        <path id="Trazado_876195" data-name="Trazado 876195" d="M327.686,240.117a.551.551,0,0,1-.474-.27l-7.956-13.412a.552.552,0,0,1,.374-.823,26.642,26.642,0,0,0,13.939-8.264.546.546,0,0,1,.467-.195.552.552,0,0,1,.429.268l7.946,13.412a.552.552,0,0,1-.052.636,27.289,27.289,0,0,1-14.572,8.638.537.537,0,0,1-.1.01m-7.094-13.591,7.364,12.416a26.754,26.754,0,0,0,13.306-7.887l-7.356-12.415a27.466,27.466,0,0,1-13.314,7.885" transform="translate(-84.663 -57.6)" fill="#29275f"/>
        <path id="Trazado_876196" data-name="Trazado 876196" d="M260.377,119.115a3.028,3.028,0,0,1-.423-.029l-.051-.005c-.142-.022-.283-.054-.413-.087-.167-.047-.306-.1-.445-.154a3.831,3.831,0,0,1-.436-.2,4.561,4.561,0,0,1-.569-.332l-.079-.054a2.291,2.291,0,0,1-.259-.194,7.212,7.212,0,0,1-.876-.723l-.176-.176a17.01,17.01,0,0,1-2.088-2.522c-.075-.12-.115-.177-.119-.184a.552.552,0,0,1-.09-.212L250.6,94.983a.553.553,0,0,1,.117-.457l2.29-2.757a.549.549,0,0,1,.378-.2.574.574,0,0,1,.406.132l15.72,13.564a.549.549,0,0,1,.173.278c.1.266.3.815.495,1.528.048.176.1.362.146.558s.09.386.13.588a3.039,3.039,0,0,1,.092.444,11.446,11.446,0,0,1,.184,1.295l.029.4v.011a7.58,7.58,0,0,1-.011,1.09.444.444,0,0,1-.012.123,4.535,4.535,0,0,1-.061.464l-.019.083a1.513,1.513,0,0,1-.05.22,1.35,1.35,0,0,1-.043.154c0,.018-.01.035-.01.038a4.019,4.019,0,0,1-.193.521.7.7,0,0,1-.029.072,2.146,2.146,0,0,1-.169.283,2.564,2.564,0,0,1-.9.9,3.684,3.684,0,0,1-.427.219,3.029,3.029,0,0,1-.422.14,3.3,3.3,0,0,1-1.367.068,4.416,4.416,0,0,1-.481-.1,4.247,4.247,0,0,1-.493-.156,3.537,3.537,0,0,1-.384-.162,8.525,8.525,0,0,1-.9-.489l-.154-.113a4.449,4.449,0,0,1-.455-.327.728.728,0,0,1-.1-.078c-.079-.057-.157-.12-.232-.184a6.929,6.929,0,0,1,.061.734,1.441,1.441,0,0,1,.011.2c.084,2.183-.629,3.8-2.064,4.643a2.9,2.9,0,0,1-1.482.41m-.336-1.129a.382.382,0,0,1,.046,0,1.823,1.823,0,0,0,1.213-.236c1.078-.636,1.59-1.872,1.521-3.672-.006-.029-.009-.117-.01-.146a5.555,5.555,0,0,0-.059-.7.561.561,0,0,1-.007-.087q0-.033-.007-.062c-.018-.105-.031-.184-.04-.252a.366.366,0,0,1-.012-.055h0a9.468,9.468,0,0,0-.228-1.015c-.017-.062-.029-.107-.034-.13a.551.551,0,0,1,.932-.5c.029.03.076.077.134.147a.572.572,0,0,1,.061.065,1.358,1.358,0,0,1,.148.165c.1.093.272.258.474.442a3.086,3.086,0,0,0,.251.226l.1.088c.07.06.142.122.217.174a.543.543,0,0,1,.077.064,5.159,5.159,0,0,0,.436.314l.154.113a7.559,7.559,0,0,0,.682.37l.071.032a2.634,2.634,0,0,0,.291.126,3.4,3.4,0,0,0,.387.121,3.261,3.261,0,0,0,.366.076,2.236,2.236,0,0,0,.93-.043,1.909,1.909,0,0,0,.277-.091,2.545,2.545,0,0,0,.287-.149,1.559,1.559,0,0,0,.539-.55c.039-.057.062-.1.082-.131.005-.013.01-.026.016-.04a2.919,2.919,0,0,0,.145-.37c0-.012.037-.13.042-.142.005-.029.017-.071.029-.111l.01-.062c0-.005.016-.071.017-.076l.018-.073a3.248,3.248,0,0,0,.043-.363.461.461,0,0,1,.012-.084,7.423,7.423,0,0,0,.007-.932l-.029-.385a10.4,10.4,0,0,0-.171-1.2,2.641,2.641,0,0,0-.076-.371c-.046-.223-.082-.4-.126-.573-.049-.194-.1-.371-.142-.538-.177-.638-.35-1.137-.431-1.357L253.5,92.906l-1.764,2.123,3.678,18.894c.021.031.046.069.073.114a15.869,15.869,0,0,0,1.937,2.338l.168.168a6.88,6.88,0,0,0,.791.651,1.689,1.689,0,0,0,.195.144l.085.059a3.661,3.661,0,0,0,.445.259,2.877,2.877,0,0,0,.335.156c.108.042.217.084.334.118.074.018.17.041.267.057" transform="translate(-66.47 -24.29)" fill="#29275f"/>
        <path id="Trazado_876197" data-name="Trazado 876197" d="M272.779,129.071a.552.552,0,0,1-.494-.306l-4.407-8.862a.551.551,0,0,1,.987-.491l4.407,8.862a.551.551,0,0,1-.248.738.544.544,0,0,1-.245.058" transform="translate(-71.04 -31.593)" fill="#29275f"/>
        <path id="Trazado_876198" data-name="Trazado 876198" d="M318.528,204.056a.55.55,0,0,1-.47-.262L307.1,186.027a.551.551,0,0,1,.939-.578L319,203.215a.551.551,0,0,1-.469.841" transform="translate(-81.438 -49.121)" fill="#29275f"/>
        <path id="Trazado_876199" data-name="Trazado 876199" d="M341.152,176.364a.552.552,0,0,1-.413-.185l-24.381-27.49a.551.551,0,1,1,.825-.731l24.381,27.489a.551.551,0,0,1-.412.917" transform="translate(-83.878 -39.197)" fill="#29275f"/>
        <path id="Trazado_876200" data-name="Trazado 876200" d="M353.552,167.706a.548.548,0,0,1-.371-.143l-22.89-20.818a.551.551,0,1,1,.742-.815l22.889,20.817a.551.551,0,0,1-.371.959" transform="translate(-87.563 -38.67)" fill="#29275f"/>
        <path id="Trazado_876201" data-name="Trazado 876201" d="M340.775,291.547a.551.551,0,0,1-.112-1.09,86.409,86.409,0,0,0,10.694-2.976.551.551,0,1,1,.4,1.026,85.706,85.706,0,0,1-10.87,3.029.54.54,0,0,1-.114.012" transform="translate(-90.246 -76.245)" fill="#29275f"/>
        <path id="Trazado_876202" data-name="Trazado 876202" d="M103.941,80.094a2.508,2.508,0,1,1,2.508-2.508,2.508,2.508,0,0,1-2.508,2.508" transform="translate(-26.905 -19.914)" fill="#afd4ef"/>
        <path id="Trazado_876203" data-name="Trazado 876203" d="M120.433,80.094a2.508,2.508,0,1,1,2.508-2.508,2.509,2.509,0,0,1-2.508,2.508" transform="translate(-31.28 -19.914)" fill="#afd4ef"/>
        <path id="Trazado_876204" data-name="Trazado 876204" d="M101.433,94.077a2.508,2.508,0,1,1,2.508,2.508,2.508,2.508,0,0,1-2.508-2.508" transform="translate(-26.905 -24.289)" fill="#afd4ef"/>
        <path id="Trazado_876205" data-name="Trazado 876205" d="M101.433,110.569a2.508,2.508,0,1,1,2.508,2.508,2.508,2.508,0,0,1-2.508-2.508" transform="translate(-26.905 -28.664)" fill="#afd4ef"/>
        <path id="Trazado_876206" data-name="Trazado 876206" d="M101.433,127.061a2.508,2.508,0,1,1,2.508,2.508,2.508,2.508,0,0,1-2.508-2.508" transform="translate(-26.905 -33.038)" fill="#afd4ef"/>
        <path id="Trazado_876207" data-name="Trazado 876207" d="M101.433,143.553a2.508,2.508,0,1,1,2.508,2.508,2.508,2.508,0,0,1-2.508-2.508" transform="translate(-26.905 -37.413)" fill="#afd4ef"/>
        <path id="Trazado_876208" data-name="Trazado 876208" d="M120.433,96.586a2.508,2.508,0,1,1,2.508-2.508,2.509,2.509,0,0,1-2.508,2.508" transform="translate(-31.28 -24.289)" fill="#afd4ef"/>
        <path id="Trazado_876209" data-name="Trazado 876209" d="M117.925,110.569a2.508,2.508,0,1,1,2.508,2.508,2.509,2.509,0,0,1-2.508-2.508" transform="translate(-31.28 -28.664)" fill="#afd4ef"/>
        <path id="Trazado_876210" data-name="Trazado 876210" d="M117.925,127.061a2.508,2.508,0,1,1,2.508,2.508,2.508,2.508,0,0,1-2.508-2.508" transform="translate(-31.28 -33.038)" fill="#afd4ef"/>
        <path id="Trazado_876211" data-name="Trazado 876211" d="M117.925,143.553a2.508,2.508,0,1,1,2.508,2.508,2.508,2.508,0,0,1-2.508-2.508" transform="translate(-31.28 -37.413)" fill="#afd4ef"/>
        <path id="Trazado_876212" data-name="Trazado 876212" d="M101.433,160.045a2.508,2.508,0,1,1,2.508,2.508,2.508,2.508,0,0,1-2.508-2.508" transform="translate(-26.905 -41.787)" fill="#afd4ef"/>
        <path id="Trazado_876213" data-name="Trazado 876213" d="M117.925,160.045a2.508,2.508,0,1,1,2.508,2.508,2.509,2.509,0,0,1-2.508-2.508" transform="translate(-31.28 -41.787)" fill="#afd4ef"/>
        <path id="Trazado_876214" data-name="Trazado 876214" d="M356.4,80.257a2.508,2.508,0,1,1,2.508-2.508,2.509,2.509,0,0,1-2.508,2.508" transform="translate(-93.872 -19.958)" fill="#afd4ef"/>
        <path id="Trazado_876215" data-name="Trazado 876215" d="M372.894,80.257a2.508,2.508,0,1,1,2.508-2.508,2.509,2.509,0,0,1-2.508,2.508" transform="translate(-98.246 -19.958)" fill="#afd4ef"/>
        <path id="Trazado_876216" data-name="Trazado 876216" d="M353.894,94.24a2.508,2.508,0,1,1,2.508,2.508,2.508,2.508,0,0,1-2.508-2.508" transform="translate(-93.872 -24.332)" fill="#afd4ef"/>
        <path id="Trazado_876217" data-name="Trazado 876217" d="M353.894,110.732a2.508,2.508,0,1,1,2.508,2.508,2.509,2.509,0,0,1-2.508-2.508" transform="translate(-93.872 -28.707)" fill="#afd4ef"/>
        <path id="Trazado_876218" data-name="Trazado 876218" d="M353.894,127.224a2.508,2.508,0,1,1,2.508,2.508,2.509,2.509,0,0,1-2.508-2.508" transform="translate(-93.872 -33.081)" fill="#afd4ef"/>
        <path id="Trazado_876219" data-name="Trazado 876219" d="M372.894,96.749A2.508,2.508,0,1,1,375.4,94.24a2.509,2.509,0,0,1-2.508,2.508" transform="translate(-98.246 -24.332)" fill="#afd4ef"/>
        <path id="Trazado_876220" data-name="Trazado 876220" d="M370.386,110.732a2.508,2.508,0,1,1,2.508,2.508,2.509,2.509,0,0,1-2.508-2.508" transform="translate(-98.246 -28.707)" fill="#afd4ef"/>
        <path id="Trazado_876221" data-name="Trazado 876221" d="M370.386,127.224a2.508,2.508,0,1,1,2.508,2.508,2.509,2.509,0,0,1-2.508-2.508" transform="translate(-98.246 -33.081)" fill="#afd4ef"/>
        <path id="Trazado_876222" data-name="Trazado 876222" d="M339.372,79.688a2.508,2.508,0,1,1,2.508-2.508,2.509,2.509,0,0,1-2.508,2.508" transform="translate(-89.354 -19.807)" fill="#afd4ef"/>
        <path id="Trazado_876223" data-name="Trazado 876223" d="M339.372,96.18a2.508,2.508,0,1,1,2.508-2.508,2.509,2.509,0,0,1-2.508,2.508" transform="translate(-89.354 -24.181)" fill="#afd4ef"/>
        <path id="Trazado_876224" data-name="Trazado 876224" d="M336.864,110.163a2.508,2.508,0,1,1,2.508,2.508,2.509,2.509,0,0,1-2.508-2.508" transform="translate(-89.354 -28.556)" fill="#afd4ef"/>
        <path id="Trazado_876225" data-name="Trazado 876225" d="M336.864,126.655a2.508,2.508,0,1,1,2.508,2.508,2.509,2.509,0,0,1-2.508-2.508" transform="translate(-89.354 -32.93)" fill="#afd4ef"/>
        <path id="Trazado_876226" data-name="Trazado 876226" d="M354.669,6.44a1.4,1.4,0,0,1-1.4,1.4h-3.644v3.644a1.4,1.4,0,1,1-2.8,0V7.838h-3.644a1.4,1.4,0,1,1,0-2.795h3.644V1.4a1.4,1.4,0,1,1,2.8,0V5.043h3.644a1.4,1.4,0,0,1,1.4,1.4" transform="translate(-90.661 0)" fill="#afd4ef"/>
        <path id="Trazado_876227" data-name="Trazado 876227" d="M354.611,30.125a1.888,1.888,0,0,0,0,3.774,1.888,1.888,0,0,0,0-3.774" transform="translate(-93.578 -7.991)" fill="#afd4ef"/>
        <path id="Trazado_876228" data-name="Trazado 876228" d="M378.182,9.283a1.888,1.888,0,0,0,0,3.774,1.888,1.888,0,0,0,0-3.774" transform="translate(-99.831 -2.462)" fill="#afd4ef"/>
        <path id="Trazado_876229" data-name="Trazado 876229" d="M434.322,90.348a1.4,1.4,0,0,1-1.4,1.4h-3.644V95.39a1.4,1.4,0,1,1-2.8,0V91.746h-3.644a1.4,1.4,0,1,1,0-2.795h3.644V85.306a1.4,1.4,0,1,1,2.8,0v3.644h3.644a1.4,1.4,0,0,1,1.4,1.4" transform="translate(-111.789 -22.257)" fill="#afd4ef"/>
        <path id="Trazado_876230" data-name="Trazado 876230" d="M410.18,108.089a1.888,1.888,0,0,0,0,3.774,1.888,1.888,0,0,0,0-3.774" transform="translate(-108.318 -28.671)" fill="#afd4ef"/>
        <path id="Trazado_876231" data-name="Trazado 876231" d="M412.967,70.5a1.888,1.888,0,0,0,0,3.774,1.888,1.888,0,0,0,0-3.774" transform="translate(-109.057 -18.699)" fill="#afd4ef"/>
        <path id="Trazado_876232" data-name="Trazado 876232" d="M128.867,28.994a1.4,1.4,0,0,1-1.4,1.4h-3.644v3.644a1.4,1.4,0,1,1-2.8,0V30.392h-3.644a1.4,1.4,0,1,1,0-2.795h3.644V23.952a1.4,1.4,0,1,1,2.8,0V27.6h3.644a1.4,1.4,0,0,1,1.4,1.4" transform="translate(-30.766 -5.983)" fill="#afd4ef"/>
        <path id="Trazado_876233" data-name="Trazado 876233" d="M101.878,24.984a1.888,1.888,0,0,0,0,3.774,1.888,1.888,0,0,0,0-3.774" transform="translate(-26.54 -6.627)" fill="#afd4ef"/>
        <path id="Trazado_876234" data-name="Trazado 876234" d="M137.86,6.993a1.888,1.888,0,0,0,0,3.774,1.888,1.888,0,0,0,0-3.774" transform="translate(-36.084 -1.855)" fill="#afd4ef"/>
        <path id="Trazado_876235" data-name="Trazado 876235" d="M50.766,109.935a1.4,1.4,0,0,1-1.4,1.4H45.725v3.644a1.4,1.4,0,1,1-2.8,0v-3.644H39.285a1.4,1.4,0,1,1,0-2.795h3.644v-3.644a1.4,1.4,0,1,1,2.8,0v3.644h3.644a1.4,1.4,0,0,1,1.4,1.4" transform="translate(-10.05 -27.453)" fill="#afd4ef"/>
        <path id="Trazado_876236" data-name="Trazado 876236" d="M23.059,106.373a1.888,1.888,0,0,0,0,3.774,1.888,1.888,0,0,0,0-3.774" transform="translate(-5.633 -28.216)" fill="#afd4ef"/>
      </g>
    </g>
  </g>
</svg>
