<svg xmlns="http://www.w3.org/2000/svg" xmlns:xlink="http://www.w3.org/1999/xlink" width="139" height="139" viewBox="0 0 139 139">
  <defs>
    <clipPath id="clip-path">
      <rect id="Rect치ngulo_413216" data-name="Rect치ngulo 413216" width="67.282" height="66.745" fill="#12263f"/>
    </clipPath>
  </defs>
  <g id="Grupo_1115405" data-name="Grupo 1115405" transform="translate(-1045.999 -4258.873)">
    <g id="Grupo_1115084" data-name="Grupo 1115084" transform="translate(719.504 -3111.647)">
      <g id="Grupo_1114883" data-name="Grupo 1114883" transform="translate(465.495 7370.521) rotate(90)">
        <path id="Trazado_875690" data-name="Trazado 875690" d="M9.062,0,0,13.547,8.685,26.532,0,39.516,8.685,52.5,0,65.485,8.685,78.47,0,91.456l9.062,13.549,1.684-1.126L2.438,91.456,11.123,78.47,2.438,65.485,11.123,52.5,2.438,39.516l8.685-12.984L2.438,13.547,10.746,1.127Z" transform="translate(0 0)" fill="#12263f"/>
        <path id="Trazado_875691" data-name="Trazado 875691" d="M9.062,0,0,13.547,8.685,26.532,0,39.516,8.685,52.5,0,65.485,8.685,78.47,0,91.456l9.062,13.549,1.685-1.126L2.438,91.456,11.123,78.47,2.438,65.485,11.123,52.5,2.438,39.516l8.685-12.984L2.438,13.547,10.746,1.127Z" transform="translate(13.405 0)" fill="#12263f"/>
        <path id="Trazado_875692" data-name="Trazado 875692" d="M9.062,0,0,13.547,8.685,26.532,0,39.516,8.685,52.5,0,65.485,8.685,78.47,0,91.456l9.062,13.549,1.684-1.126L2.438,91.456,11.123,78.47,2.438,65.485,11.123,52.5,2.438,39.516l8.685-12.984L2.438,13.547,10.746,1.127Z" transform="translate(26.81 0)" fill="#12263f"/>
        <path id="Trazado_875693" data-name="Trazado 875693" d="M9.062,0,0,13.547,8.685,26.532,0,39.516,8.685,52.5,0,65.485,8.685,78.47,0,91.456l9.062,13.549,1.684-1.126L2.438,91.456,11.123,78.47,2.438,65.485,11.123,52.5,2.438,39.516l8.685-12.984L2.438,13.547,10.746,1.127Z" transform="translate(40.215 0)" fill="#12263f"/>
        <path id="Trazado_875694" data-name="Trazado 875694" d="M9.062,0,0,13.547,8.685,26.532,0,39.516,8.685,52.5,0,65.485,8.685,78.47,0,91.456l9.062,13.549,1.684-1.126L2.438,91.456,11.123,78.47,2.438,65.485,11.123,52.5,2.438,39.516l8.685-12.984L2.438,13.547,10.746,1.127Z" transform="translate(53.62 0)" fill="#12263f"/>
        <path id="Trazado_875695" data-name="Trazado 875695" d="M9.062,0,0,13.547,8.685,26.532,0,39.516,8.685,52.5,0,65.485,8.685,78.47,0,91.456l9.062,13.549,1.685-1.126L2.438,91.456,11.123,78.47,2.438,65.485,11.123,52.5,2.438,39.516l8.685-12.984L2.438,13.547,10.747,1.127Z" transform="translate(67.025 0)" fill="#12263f"/>
        <path id="Trazado_875696" data-name="Trazado 875696" d="M9.062,0,0,13.547,8.685,26.532,0,39.516,8.685,52.5,0,65.485,8.685,78.47,0,91.456l9.062,13.549,1.685-1.126L2.438,91.456,11.123,78.47,2.438,65.485,11.123,52.5,2.438,39.516l8.685-12.984L2.438,13.547,10.746,1.127Z" transform="translate(80.431 0)" fill="#12263f"/>
        <path id="Trazado_875697" data-name="Trazado 875697" d="M9.062,0,0,13.547,8.685,26.532,0,39.516,8.685,52.5,0,65.485,8.685,78.47,0,91.456l9.062,13.549,1.685-1.126L2.438,91.456,11.123,78.47,2.438,65.485,11.123,52.5,2.438,39.516l8.685-12.984L2.438,13.547,10.746,1.127Z" transform="translate(93.835 0)" fill="#12263f"/>
      </g>
      <g id="Grupo_1114882" data-name="Grupo 1114882" transform="translate(326.495 7379.938)">
        <rect id="Rect치ngulo_412780" data-name="Rect치ngulo 412780" width="123.655" height="122.5" rx="20" transform="translate(3.542 3.559)" fill="#ece1f9"/>
        <g id="Grupo_1114814" data-name="Grupo 1114814">
          <path id="Trazado_875775" data-name="Trazado 875775" d="M245.7,319.88a1.7,1.7,0,0,1-1.7-1.7v-5.1a8.512,8.512,0,0,1,8.5-8.5h40.468a11.916,11.916,0,0,0,11.9-11.9V252.28a8.512,8.512,0,0,1,8.5-8.5h5.1a1.7,1.7,0,0,1,0,3.4h-5.1a5.107,5.107,0,0,0-5.1,5.1v40.394a15.321,15.321,0,0,1-15.3,15.3H252.5a5.107,5.107,0,0,0-5.1,5.1v5.1a1.7,1.7,0,0,1-1.7,1.7" transform="translate(-189.434 -190.297)" fill="#12263f"/>
          <path id="Trazado_875777" data-name="Trazado 875777" d="M1.7,76.1A1.7,1.7,0,0,1,0,74.4V69.3a8.512,8.512,0,0,1,8.5-8.5H48.97a11.916,11.916,0,0,0,11.9-11.9V8.5a8.512,8.512,0,0,1,8.5-8.5h5.1a1.7,1.7,0,0,1,0,3.4h-5.1a5.107,5.107,0,0,0-5.1,5.1V48.9a15.321,15.321,0,0,1-15.3,15.3H8.5a5.107,5.107,0,0,0-5.1,5.1v5.1a1.7,1.7,0,0,1-1.7,1.7" transform="translate(76.176 76.102) rotate(180)" fill="#12263f"/>
        </g>
      </g>
    </g>
    <g id="Grupo_1115327" data-name="Grupo 1115327" transform="translate(1081.695 4298)">
      <g id="Grupo_1115326" data-name="Grupo 1115326" clip-path="url(#clip-path)">
        <path id="Trazado_876455" data-name="Trazado 876455" d="M18.841.74c.11-.606.815-.755,1.346-.738L43.123.015a.86.86,0,0,1,.433.192c.288.165,4.524,4.405,4.692,4.691a1.624,1.624,0,0,1,.205.939c4.165.32,8.895-.406,12.994.036a6.154,6.154,0,0,1,5.558,5.908c.877,11.115-.669,23.375-.011,34.61a6.288,6.288,0,0,1-6.146,5.736H44.9v5.837h7.818a7.949,7.949,0,0,1,2.708,1.462c1.322,1.347,1.52,4.986,1.057,6.687a.571.571,0,0,1-.373.468c-14.85.289-29.759.115-44.628.088-.651-.08-.709-.521-.77-1.092-.2-1.848-.25-4.783,1.148-6.152a9.478,9.478,0,0,1,2.709-1.46h7.818V52.127H6.438A6.268,6.268,0,0,1,.28,46.194C-.6,35.024.933,22.688.314,11.4c0-2.419,2.9-5.551,5.29-5.551H18.841c.193-1.528-.261-3.664,0-5.107M41.981,2.1H20.926V35.867H46.359V6.473H42.5a3.48,3.48,0,0,1-.521-.521ZM18.841,7.932H5.6c-1.461,0-3.348,2.123-3.24,3.64L2.372,46.4A4.105,4.105,0,0,0,6.43,50.05l54.218,0a4.087,4.087,0,0,0,4.273-3.857l-.008-34.823c0-1.441-1.832-3.439-3.232-3.439H48.444v2.085H61.473c.388,0,1.508,1.215,1.36,1.767l-.1,31.181-.321.513-57.03.114c-.826.008-.877-.69-.936-1.357-.855-9.622.668-20.494,0-30.248-.232-.614.9-1.97,1.365-1.97H18.841Zm0,4.169H6.542V41.7h54.2V12.1h-12.3v25.12a1.9,1.9,0,0,1-1.35.734c-8.587-.6-18.237.785-26.7.005-.385-.035-1.554-.317-1.554-.739ZM42.815,52.127H24.47v5.837H42.815ZM54.489,64.635V61.613c0-.891-2.6-1.863-3.432-1.779-11.29.626-23.433-.807-34.622,0-.884.064-3.639.671-3.639,1.781v3.023Z" transform="translate(0 -0.001)" fill="#12263f"/>
        <path id="Trazado_876456" data-name="Trazado 876456" d="M117.682,77.556c-.992-.279-.747-1.933,1.032-2.095,4.956-.451,10.6.346,15.633.022,1.7.28,1.179,2.073.637,2.073Z" transform="translate(-92.691 -59.618)" fill="#12263f"/>
        <path id="Trazado_876457" data-name="Trazado 876457" d="M117.675,101.075c-.992-.279-.754-2.082,1.032-2.095,7.353-.053,10.6.346,15.633.022,1.7.28,1.179,2.073.637,2.073Z" transform="translate(-92.684 -78.342)" fill="#12263f"/>
        <path id="Trazado_876458" data-name="Trazado 876458" d="M135.341,54.832c-.232.232-.762.239-1.087.267-5.068.427-10.723-.339-15.856,0-1.64-.017-1.49-1.909-.007-2.1l16.579.12a1.124,1.124,0,0,1,.371,1.717" transform="translate(-92.786 -41.947)" fill="#12263f"/>
        <path id="Trazado_876459" data-name="Trazado 876459" d="M117.953,123.047h17.3c.66,0,.66,1.876,0,1.876h-17.3c-.548,0-.793-1.6,0-1.876" transform="translate(-92.962 -97.396)" fill="#12263f"/>
        <path id="Trazado_876460" data-name="Trazado 876460" d="M117.953,146.047h17.3c.66,0,.66,1.876,0,1.876h-17.3c-.548,0-.793-1.6,0-1.876" transform="translate(-92.962 -115.601)" fill="#12263f"/>
        <path id="Trazado_876461" data-name="Trazado 876461" d="M130.692,31.409c-.232.232-.762.239-1.087.267a80.711,80.711,0,0,1-11.27-.009c-1.589-.171-1.59-1.913,0-2.085,3.592-.387,7.817.3,11.48-.011a1.134,1.134,0,0,1,.876,1.837" transform="translate(-92.723 -23.319)" fill="#12263f"/>
      </g>
    </g>
  </g>
</svg>
