<svg xmlns="http://www.w3.org/2000/svg" xmlns:xlink="http://www.w3.org/1999/xlink" width="123.023" height="122.908" viewBox="0 0 123.023 122.908">
  <defs>
    <clipPath id="clip-path">
      <rect id="Rect치ngulo_413200" data-name="Rect치ngulo 413200" width="63.205" height="63.205" fill="#12263f"/>
    </clipPath>
  </defs>
  <g id="Grupo_1115337" data-name="Grupo 1115337" transform="translate(-739.667 -2609.66)">
    <g id="Grupo_1114985" data-name="Grupo 1114985" transform="translate(353 -2727.34)">
      <rect id="Rect치ngulo_412780" data-name="Rect치ngulo 412780" width="116.357" height="116.243" rx="20" transform="translate(390 5340.349)" fill="#b0c2e5"/>
      <g id="Grupo_1114814" data-name="Grupo 1114814">
        <path id="Trazado_875775" data-name="Trazado 875775" d="M245.6,315.389a1.6,1.6,0,0,1-1.6-1.6v-4.8a8.009,8.009,0,0,1,8-8h38.08a11.213,11.213,0,0,0,11.2-11.2v-38.01a8.009,8.009,0,0,1,8-8h4.8a1.6,1.6,0,1,1,0,3.2h-4.8a4.806,4.806,0,0,0-4.8,4.8v38.01a14.417,14.417,0,0,1-14.4,14.4H252a4.806,4.806,0,0,0-4.8,4.8v4.8a1.6,1.6,0,0,1-1.6,1.6" transform="translate(194.014 5144.519)" fill="#12263f"/>
        <path id="Trazado_875777" data-name="Trazado 875777" d="M245.6,315.389a1.6,1.6,0,0,1-1.6-1.6v-4.8a8.009,8.009,0,0,1,8-8h38.08a11.213,11.213,0,0,0,11.2-11.2v-38.01a8.009,8.009,0,0,1,8-8h4.8a1.6,1.6,0,1,1,0,3.2h-4.8a4.806,4.806,0,0,0-4.8,4.8v38.01a14.417,14.417,0,0,1-14.4,14.4H252a4.806,4.806,0,0,0-4.8,4.8v4.8a1.6,1.6,0,0,1-1.6,1.6" transform="translate(702.344 5652.389) rotate(180)" fill="#12263f"/>
      </g>
    </g>
    <g id="Grupo_1115304" data-name="Grupo 1115304" transform="translate(769.565 2639.512)">
      <g id="Grupo_1115303" data-name="Grupo 1115303" clip-path="url(#clip-path)">
        <path id="Trazado_876389" data-name="Trazado 876389" d="M9.177,3.67h17.9V.818c0-.377.9-.664,1.267-.7a47.776,47.776,0,0,1,6.892.016,1.93,1.93,0,0,1,.89.684V3.67h17.9c.079-.857-.356-3.178.727-3.5,1.229.1,7.511-.362,8.079.205s.1,6.85.205,8.079c-.325,1.083-2.646.647-3.5.727v17.9h2.852c.377,0,.664.9.7,1.267a47.776,47.776,0,0,1-.016,6.892,1.93,1.93,0,0,1-.684.89H59.535v17.9c.857.079,3.178-.356,3.5.727-.1,1.229.362,7.511-.205,8.079s-6.85.1-8.079.205c-1.083-.325-.647-2.646-.727-3.5h-17.9v2.852c0,.377-.9.664-1.267.7a47.777,47.777,0,0,1-6.892-.016,1.93,1.93,0,0,1-.89-.684V59.536H9.177c-.079.857.356,3.178-.727,3.5-1.229-.1-7.511.362-8.079-.205s-.1-6.85-.205-8.079c.325-1.083,2.646-.647,3.5-.727v-17.9H.817c-.377,0-.664-.9-.7-1.267a47.776,47.776,0,0,1,.016-6.892,1.93,1.93,0,0,1,.684-.89H3.669V9.178C2.813,9.1.492,9.534.167,8.452.268,7.223-.2.94.372.373s6.85-.1,8.079-.205c1.083.325.647,2.646.727,3.5M7.21,1.9H2.194a1.974,1.974,0,0,0-.3.3V7.211H7.21Zm26.949,0H29.045V7.211h5.114ZM61.305,7.211V2.2a1.974,1.974,0,0,0-.3-.3H55.994V7.211ZM27.078,5.441H9.177V8.293a1.921,1.921,0,0,1-.885.885H5.44v17.9H8.292c.385,0,.811.706.873,1.094a42.254,42.254,0,0,1,.021,6.488c-.045.491-.288,1.466-.894,1.466H5.44v17.9H8.292a1.921,1.921,0,0,1,.885.885v2.852h17.9V54.913c0-.385.706-.811,1.094-.873a42.254,42.254,0,0,1,6.488-.021c.491.045,1.466.288,1.466.894v2.852h17.9V54.913a1.921,1.921,0,0,1,.885-.885h2.852v-17.9H54.912c-.385,0-.811-.706-.873-1.094a42.254,42.254,0,0,1-.021-6.488c.045-.491.288-1.466.894-1.466h2.852V9.178H54.912a1.921,1.921,0,0,1-.885-.885V5.441h-17.9V8.293c0,.385-.706.811-1.094.873a42.254,42.254,0,0,1-6.488.021c-.491-.045-1.466-.288-1.466-.894ZM7.21,29.046H1.9V34.16H7.21Zm54.1,0H55.994V34.16h5.311ZM7.21,56H1.9v5.016a1.974,1.974,0,0,0,.3.3H7.21Zm26.949,0H29.045v5.311h5.114Zm27.146,0H55.994v5.311H61.01a1.974,1.974,0,0,0,.3-.3Z" transform="translate(0 -0.001)" fill="#12263f"/>
        <path id="Trazado_876390" data-name="Trazado 876390" d="M80.883,73.508a1.545,1.545,0,0,1-.39-.4,67.943,67.943,0,0,1-.11-7.579c.043-.335.074-.6.4-.779l12.284-.079c1.458.208.684,1.752.4,1.752H82.457a1.974,1.974,0,0,0-.3.3v5.016H91.7a3.016,3.016,0,0,1,.688.492V99.474H97.7V83.737H94.456c-.242,0-.465-.813-.5-1.078a34.323,34.323,0,0,1,.107-5.409c.455-1.032,2.695-.448,3.635-.595V72.426a1.146,1.146,0,0,1,.688-.688h9.54V66.426H96.817c-.623,0-.623-1.77,0-1.77h12.393a3.284,3.284,0,0,1,.492.492v8.065a1.974,1.974,0,0,1-.3.3H99.767a1.974,1.974,0,0,0-.3.3v2.852h3.836c.844,0,.821,1.77.2,1.77H95.931v3.541h6.983a3.283,3.283,0,0,1,.492.492V99.474h3.541V82.458a3.284,3.284,0,0,1,.492-.492h6.983V78.426h-7.573c-.439,0-.908-1.5.235-1.723,2.419-.468,6.164.169,8.716.05a1.517,1.517,0,0,1,.578,1,26.292,26.292,0,0,1-.186,5.642.992.992,0,0,1-.491.346h-6.983v17.015a3.4,3.4,0,0,1-.594.586,38.242,38.242,0,0,1-5.6.1,1.93,1.93,0,0,1-.89-.684V83.737c-.643.114-2-.371-2.164.491l-.1,16.821a1.425,1.425,0,0,1-.982.395,58.019,58.019,0,0,1-7.18-.106,3.407,3.407,0,0,1-.594-.586V73.508Z" transform="translate(-64.526 -51.938)" fill="#12263f"/>
        <path id="Trazado_876391" data-name="Trazado 876391" d="M57.073,174.717l11.361-.04c1.3.551,1.031,1.8-.386,1.967a72.648,72.648,0,0,1-10.63,0c-1.486-.171-1.469-1.684-.346-1.927" transform="translate(-45.196 -140.316)" fill="#12263f"/>
        <path id="Trazado_876392" data-name="Trazado 876392" d="M57.073,241.158c3.448.218,7.613-.443,10.976-.047,1.637.193,1.636,1.78,0,1.974a72.648,72.648,0,0,1-10.63,0c-1.486-.171-1.469-1.684-.346-1.927" transform="translate(-45.196 -193.578)" fill="#12263f"/>
        <path id="Trazado_876393" data-name="Trazado 876393" d="M69.05,152.656c.934.162.608,1.77.2,1.77h-12c-.623,0-.623-1.77,0-1.77Z" transform="translate(-45.611 -122.627)" fill="#12263f"/>
        <path id="Trazado_876394" data-name="Trazado 876394" d="M57.2,197.656h12c.656,0,.386,1.77-.2,1.77H57.2c-.518,0-.749-1.512,0-1.77" transform="translate(-45.564 -158.775)" fill="#12263f"/>
        <path id="Trazado_876395" data-name="Trazado 876395" d="M57.2,219.656H69c.583,0,.853,1.77.2,1.77h-12c-.518,0-.749-1.512,0-1.77" transform="translate(-45.564 -176.448)" fill="#12263f"/>
      </g>
    </g>
  </g>
</svg>
