<svg xmlns="http://www.w3.org/2000/svg" xmlns:xlink="http://www.w3.org/1999/xlink" width="123.022" height="122.908" viewBox="0 0 123.022 122.908">
  <defs>
    <clipPath id="clip-path">
      <rect id="Rect치ngulo_413202" data-name="Rect치ngulo 413202" width="56" height="56" fill="#12263f"/>
    </clipPath>
  </defs>
  <g id="Grupo_1115339" data-name="Grupo 1115339" transform="translate(4770.618 8914.166)">
    <g id="Grupo_1114987" data-name="Grupo 1114987" transform="translate(-5157.285 -14251.166)">
      <rect id="Rect치ngulo_412780" data-name="Rect치ngulo 412780" width="116.357" height="116.243" rx="20" transform="translate(390 5340.349)" fill="#b0c2e5"/>
      <g id="Grupo_1114814" data-name="Grupo 1114814">
        <path id="Trazado_875775" data-name="Trazado 875775" d="M245.6,315.389a1.6,1.6,0,0,1-1.6-1.6v-4.8a8.009,8.009,0,0,1,8-8h38.08a11.213,11.213,0,0,0,11.2-11.2v-38.01a8.009,8.009,0,0,1,8-8h4.8a1.6,1.6,0,1,1,0,3.2h-4.8a4.806,4.806,0,0,0-4.8,4.8v38.01a14.417,14.417,0,0,1-14.4,14.4H252a4.806,4.806,0,0,0-4.8,4.8v4.8a1.6,1.6,0,0,1-1.6,1.6" transform="translate(194.014 5144.519)" fill="#12263f"/>
        <path id="Trazado_875777" data-name="Trazado 875777" d="M245.6,315.389a1.6,1.6,0,0,1-1.6-1.6v-4.8a8.009,8.009,0,0,1,8-8h38.08a11.213,11.213,0,0,0,11.2-11.2v-38.01a8.009,8.009,0,0,1,8-8h4.8a1.6,1.6,0,1,1,0,3.2h-4.8a4.806,4.806,0,0,0-4.8,4.8v38.01a14.417,14.417,0,0,1-14.4,14.4H252a4.806,4.806,0,0,0-4.8,4.8v4.8a1.6,1.6,0,0,1-1.6,1.6" transform="translate(702.344 5652.389) rotate(180)" fill="#12263f"/>
      </g>
      <g id="Grupo_1115308" data-name="Grupo 1115308" transform="translate(420.285 5370.166)">
        <g id="Grupo_1115307" data-name="Grupo 1115307" clip-path="url(#clip-path)">
          <path id="Trazado_876399" data-name="Trazado 876399" d="M3.311,0V46.7l13.5-35.545h8.625V0H28.75V11.151H55.757v3.311H29.447L43.56,52.447h12.2v3.311H29.36l-2.544-8c-2.892.025-5.865-.141-8.715.086l-2.507,7.912H0V0ZM40.076,52.447,26.052,14.633c-.129-.191-.324-.157-.516-.181a41.733,41.733,0,0,0-6.118,0c-.192.024-.388-.013-.514.183C14.243,27.239,9.363,39.8,4.879,52.447h8.276l2.507-7.912.274-.115,13.32.029,2.282,8Z" fill="#12263f"/>
          <path id="Trazado_876400" data-name="Trazado 876400" d="M268.572,106.17c-.1-.1-1.314.144-1.567-.086.676-.514,2.8-4.1,3.395-4.1.255,0,2.475,3.7,3.051,4.1-.193.213-1.567.008-1.567.086V129c.29,0,1.569-.1,1.565.261,0,.26-2.864,3.534-3.22,4.092-.538-.992-2.722-3.063-3.02-3.947a1.081,1.081,0,0,1-.028-.405c.193-.052,1.393.069,1.393,0Z" transform="translate(-220.482 -84.216)" fill="#12263f"/>
          <path id="Trazado_876401" data-name="Trazado 876401" d="M49.165,2.371c.062-.062-.045-1.139,0-1.393a1.08,1.08,0,0,1,.405.028c.872.294,2.941,2.5,3.947,3.02l-4.092,3.22c-.5-.208-.088-1.528-.361-1.568-.835.186-6.459-.234-6.7,0-.113.113.232,1.345-.26,1.566l-4.092-3.22c1.006-.519,3.075-2.726,3.947-3.02a1.08,1.08,0,0,1,.405-.028c.052.193-.069,1.393,0,1.393.909,0,6.555.24,6.8,0" transform="translate(-31.393 -0.803)" fill="#12263f"/>
          <path id="Trazado_876402" data-name="Trazado 876402" d="M106.674,128.433H95L101.1,107Zm-4.182-3.311-1.655-5.752-1.655,5.752Z" transform="translate(-78.447 -88.357)" fill="#12263f"/>
        </g>
      </g>
    </g>
  </g>
</svg>
