<svg xmlns="http://www.w3.org/2000/svg" xmlns:xlink="http://www.w3.org/1999/xlink" width="139" height="139" viewBox="0 0 139 139">
  <defs>
    <clipPath id="clip-path">
      <rect id="Rect치ngulo_413211" data-name="Rect치ngulo 413211" width="71.18" height="71.5" fill="#12263f"/>
    </clipPath>
  </defs>
  <g id="Grupo_1115343" data-name="Grupo 1115343" transform="translate(-1143.999 -6774.501)">
    <g id="Grupo_1115003" data-name="Grupo 1115003" transform="translate(817.504 -596.02)">
      <g id="Grupo_1114883" data-name="Grupo 1114883" transform="translate(465.495 7370.521) rotate(90)">
        <path id="Trazado_875690" data-name="Trazado 875690" d="M9.062,0,0,13.547,8.685,26.532,0,39.516,8.685,52.5,0,65.485,8.685,78.47,0,91.456l9.062,13.549,1.684-1.126L2.438,91.456,11.123,78.47,2.438,65.485,11.123,52.5,2.438,39.516l8.685-12.984L2.438,13.547,10.746,1.127Z" transform="translate(0 0)" fill="#12263f"/>
        <path id="Trazado_875691" data-name="Trazado 875691" d="M9.062,0,0,13.547,8.685,26.532,0,39.516,8.685,52.5,0,65.485,8.685,78.47,0,91.456l9.062,13.549,1.685-1.126L2.438,91.456,11.123,78.47,2.438,65.485,11.123,52.5,2.438,39.516l8.685-12.984L2.438,13.547,10.746,1.127Z" transform="translate(13.405 0)" fill="#12263f"/>
        <path id="Trazado_875692" data-name="Trazado 875692" d="M9.062,0,0,13.547,8.685,26.532,0,39.516,8.685,52.5,0,65.485,8.685,78.47,0,91.456l9.062,13.549,1.684-1.126L2.438,91.456,11.123,78.47,2.438,65.485,11.123,52.5,2.438,39.516l8.685-12.984L2.438,13.547,10.746,1.127Z" transform="translate(26.81 0)" fill="#12263f"/>
        <path id="Trazado_875693" data-name="Trazado 875693" d="M9.062,0,0,13.547,8.685,26.532,0,39.516,8.685,52.5,0,65.485,8.685,78.47,0,91.456l9.062,13.549,1.684-1.126L2.438,91.456,11.123,78.47,2.438,65.485,11.123,52.5,2.438,39.516l8.685-12.984L2.438,13.547,10.746,1.127Z" transform="translate(40.215 0)" fill="#12263f"/>
        <path id="Trazado_875694" data-name="Trazado 875694" d="M9.062,0,0,13.547,8.685,26.532,0,39.516,8.685,52.5,0,65.485,8.685,78.47,0,91.456l9.062,13.549,1.684-1.126L2.438,91.456,11.123,78.47,2.438,65.485,11.123,52.5,2.438,39.516l8.685-12.984L2.438,13.547,10.746,1.127Z" transform="translate(53.62 0)" fill="#12263f"/>
        <path id="Trazado_875695" data-name="Trazado 875695" d="M9.062,0,0,13.547,8.685,26.532,0,39.516,8.685,52.5,0,65.485,8.685,78.47,0,91.456l9.062,13.549,1.685-1.126L2.438,91.456,11.123,78.47,2.438,65.485,11.123,52.5,2.438,39.516l8.685-12.984L2.438,13.547,10.747,1.127Z" transform="translate(67.025 0)" fill="#12263f"/>
        <path id="Trazado_875696" data-name="Trazado 875696" d="M9.062,0,0,13.547,8.685,26.532,0,39.516,8.685,52.5,0,65.485,8.685,78.47,0,91.456l9.062,13.549,1.685-1.126L2.438,91.456,11.123,78.47,2.438,65.485,11.123,52.5,2.438,39.516l8.685-12.984L2.438,13.547,10.746,1.127Z" transform="translate(80.431 0)" fill="#12263f"/>
        <path id="Trazado_875697" data-name="Trazado 875697" d="M9.062,0,0,13.547,8.685,26.532,0,39.516,8.685,52.5,0,65.485,8.685,78.47,0,91.456l9.062,13.549,1.685-1.126L2.438,91.456,11.123,78.47,2.438,65.485,11.123,52.5,2.438,39.516l8.685-12.984L2.438,13.547,10.746,1.127Z" transform="translate(93.835 0)" fill="#12263f"/>
      </g>
      <g id="Grupo_1114882" data-name="Grupo 1114882" transform="translate(326.495 7379.938)">
        <rect id="Rect치ngulo_412780" data-name="Rect치ngulo 412780" width="123.655" height="122.5" rx="20" transform="translate(3.542 3.559)" fill="#d2eef6"/>
        <g id="Grupo_1114814" data-name="Grupo 1114814">
          <path id="Trazado_875775" data-name="Trazado 875775" d="M245.7,319.88a1.7,1.7,0,0,1-1.7-1.7v-5.1a8.512,8.512,0,0,1,8.5-8.5h40.468a11.916,11.916,0,0,0,11.9-11.9V252.28a8.512,8.512,0,0,1,8.5-8.5h5.1a1.7,1.7,0,0,1,0,3.4h-5.1a5.107,5.107,0,0,0-5.1,5.1v40.394a15.321,15.321,0,0,1-15.3,15.3H252.5a5.107,5.107,0,0,0-5.1,5.1v5.1a1.7,1.7,0,0,1-1.7,1.7" transform="translate(-189.434 -190.297)" fill="#12263f"/>
          <path id="Trazado_875777" data-name="Trazado 875777" d="M1.7,76.1A1.7,1.7,0,0,1,0,74.4V69.3a8.512,8.512,0,0,1,8.5-8.5H48.97a11.916,11.916,0,0,0,11.9-11.9V8.5a8.512,8.512,0,0,1,8.5-8.5h5.1a1.7,1.7,0,0,1,0,3.4h-5.1a5.107,5.107,0,0,0-5.1,5.1V48.9a15.321,15.321,0,0,1-15.3,15.3H8.5a5.107,5.107,0,0,0-5.1,5.1v5.1a1.7,1.7,0,0,1-1.7,1.7" transform="translate(76.176 76.102) rotate(180)" fill="#12263f"/>
        </g>
      </g>
    </g>
    <g id="Grupo_1115316" data-name="Grupo 1115316" transform="translate(1176.41 6813.251)">
      <g id="Grupo_1115315" data-name="Grupo 1115315" clip-path="url(#clip-path)">
        <path id="Trazado_876411" data-name="Trazado 876411" d="M4.7,4.859V66.672h8.449V7.861a3.227,3.227,0,0,1,1.169-1.276,2.38,2.38,0,0,1,3.11,1c.4,20.5.044,41.111.179,61.654a2.131,2.131,0,0,1-2.118,2.107c-4.1.493-9.146-.382-13.351,0A2.629,2.629,0,0,1,.2,69.95C-.162,47.315.079,24.576.077,1.9A2.73,2.73,0,0,1,1.933.2c4.2.426,9.72-.622,13.759,0A2.258,2.258,0,0,1,16.823,4.2a5.742,5.742,0,0,1-1.562.662Z" transform="translate(0 -0.001)" fill="#12263f"/>
        <path id="Trazado_876412" data-name="Trazado 876412" d="M104.593,28.882l44.872-.052a2.246,2.246,0,0,1-.222,4.457l-44.262,0a2.292,2.292,0,0,1-.388-4.41" transform="translate(-80.169 -22.42)" fill="#12263f"/>
        <path id="Trazado_876413" data-name="Trazado 876413" d="M104.628,150.88l44.65-.052a2.229,2.229,0,0,1-.006,4.452l-44.252.005c-2.31-.208-2.563-3.7-.393-4.405" transform="translate(-80.204 -117.292)" fill="#12263f"/>
        <path id="Trazado_876414" data-name="Trazado 876414" d="M104.628,211.865l37.984-.057a2.267,2.267,0,0,1,0,4.466l-37.591,0c-2.31-.208-2.563-3.7-.393-4.405" transform="translate(-80.204 -164.713)" fill="#12263f"/>
        <path id="Trazado_876415" data-name="Trazado 876415" d="M104.628,89.881l31.309-.052a2.283,2.283,0,0,1,.716,4.283c-10.5.394-21.1.052-31.632.174-2.31-.208-2.563-3.7-.393-4.405" transform="translate(-80.204 -69.856)" fill="#12263f"/>
        <path id="Trazado_876416" data-name="Trazado 876416" d="M104.646,272.951l18.388-.042a2.264,2.264,0,0,1-.2,4.439c-5.538.649-12.329-.484-18-.018-2.149-.34-2.258-3.734-.181-4.38" transform="translate(-80.214 -212.229)" fill="#12263f"/>
      </g>
    </g>
  </g>
</svg>
